{"glyphs":{"0":{"ha":278,"x_min":0,"x_max":0,"o":"m 496 1056 b 28 642 256 1060 60 860 b 219 69 -3 425 50 211 b 775 68 389 -72 636 -50 b 919 746 933 204 993 539 b 496 1056 856 925 692 1053 z m 336 278 b 278 682 276 326 193 474 b 514 824 322 792 446 831 b 718 614 603 817 696 728 b 632 265 738 507 726 342 b 336 278 546 196 424 207 z "},"1":{"ha":278,"x_min":0,"x_max":0,"o":"m 318 733 b 353 740 325 733 339 736 b 408 678 381 749 410 728 b 404 94 406 511 399 143 b 515 -12 413 21 476 -10 b 635 89 560 -15 631 24 b 650 854 640 154 650 772 b 550 1063 650 938 644 1040 b 282 965 454 1085 374 1028 b 201 806 189 901 186 853 b 318 733 215 760 256 735 z "},"2":{"ha":278,"x_min":0,"x_max":0,"o":"m 324 774 b 388 829 336 796 353 814 b 510 825 415 842 456 844 b 582 649 579 800 608 736 b 276 294 550 539 386 397 b 132 96 167 193 129 157 b 247 -3 135 36 215 -8 b 735 -3 301 -3 638 -3 b 872 101 831 -3 879 29 b 758 210 872 161 831 210 b 599 213 717 210 650 211 b 572 256 557 214 544 231 b 654 336 596 276 625 306 b 814 665 739 429 793 506 b 553 1053 833 807 746 1004 b 142 907 358 1101 196 1004 b 183 726 92 819 125 747 b 324 774 240 704 297 729 z "},"3":{"ha":278,"x_min":0,"x_max":0,"o":"m 721 586 b 794 731 751 624 788 676 b 685 1008 808 853 782 943 b 483 1064 617 1054 538 1064 b 257 1006 403 1064 307 1042 b 197 906 219 978 199 943 b 226 833 196 878 207 850 b 376 824 267 799 319 794 b 475 844 390 831 439 844 b 532 826 500 844 519 838 b 551 717 578 788 568 750 b 433 633 536 686 472 654 b 372 500 388 608 351 554 b 485 414 390 454 436 435 l 506 404 b 585 275 533 392 596 343 b 486 217 579 232 528 217 b 465 217 479 217 472 217 b 332 300 417 222 372 260 b 157 285 282 349 193 339 b 207 94 129 242 135 167 b 496 -18 261 40 356 -18 b 569 -12 519 -18 544 -15 b 808 290 717 10 810 143 b 729 483 807 368 765 438 b 721 586 701 518 697 558 z "},"4":{"ha":278,"x_min":0,"x_max":0,"o":"m 489 1001 b 97 515 436 943 139 569 b 67 350 57 463 42 396 b 204 267 92 304 129 269 b 458 264 257 265 385 264 b 513 188 492 263 513 229 b 517 65 511 144 513 93 b 629 -18 524 13 586 -18 b 725 71 672 -18 722 18 b 728 189 726 97 728 147 b 797 263 729 228 751 263 b 829 263 807 263 818 263 b 928 379 897 263 928 324 b 847 483 928 433 885 482 b 818 486 839 485 829 486 b 735 600 753 486 735 540 b 738 942 736 704 736 853 b 626 1049 738 1008 669 1044 b 489 1001 583 1054 533 1051 z m 393 500 b 379 542 353 500 383 518 b 481 668 379 542 465 624 b 515 654 504 690 515 654 l 513 543 b 475 500 513 543 515 500 b 393 500 449 500 415 500 z "},"5":{"ha":278,"x_min":0,"x_max":0,"o":"m 271 1029 b 190 944 224 1029 192 994 b 190 535 190 818 190 588 b 349 443 190 467 264 426 b 550 436 394 453 485 468 b 603 246 628 397 649 307 b 385 225 561 190 446 182 b 219 261 329 264 271 289 b 179 115 176 239 146 175 b 482 -22 214 51 300 -17 b 826 233 668 -28 799 92 b 706 594 854 385 817 515 b 456 651 635 646 524 650 b 397 694 399 654 397 694 l 397 731 b 472 803 397 731 390 796 b 658 804 531 806 608 804 b 792 917 744 804 790 853 b 664 1035 794 994 733 1035 b 271 1029 611 1035 392 1032 z "},"6":{"ha":278,"x_min":0,"x_max":0,"o":"m 625 611 b 511 626 585 621 547 626 b 418 614 474 626 443 619 b 360 653 367 600 356 632 b 426 793 369 706 390 749 b 535 832 447 818 486 832 b 617 819 563 832 590 828 b 671 810 636 813 654 810 b 747 849 715 810 739 833 b 726 976 769 882 776 935 b 524 1047 674 1021 600 1047 b 439 1036 494 1047 465 1043 b 136 568 304 999 156 857 b 381 14 118 265 196 89 b 504 -10 419 -1 460 -10 b 817 213 628 -10 779 60 b 625 611 868 417 760 576 z m 632 328 b 538 210 633 279 599 219 b 503 206 525 207 514 206 b 393 261 456 206 419 225 b 389 376 372 292 376 343 b 506 446 406 424 461 446 b 536 442 517 446 526 444 b 632 328 589 426 629 379 z "},"7":{"ha":278,"x_min":0,"x_max":0,"o":"m 317 756 b 313 642 318 713 315 663 b 210 575 308 601 254 575 b 114 649 164 575 118 603 b 111 892 108 694 110 840 b 276 1039 114 969 164 1040 b 761 1026 389 1036 693 1029 b 879 861 828 1024 903 965 b 586 65 863 788 619 110 b 456 6 546 11 522 -11 b 386 138 401 18 369 71 b 615 749 399 190 549 583 b 569 822 639 808 569 822 l 386 825 b 317 756 386 825 317 821 z "},"8":{"ha":278,"x_min":0,"x_max":0,"o":"m 246 600 b 243 531 264 576 264 551 b 150 357 208 496 160 435 b 275 53 136 239 160 143 b 669 19 393 -39 561 -24 b 831 347 792 69 858 206 b 742 519 817 421 772 483 b 738 586 722 543 721 568 b 793 674 758 608 783 642 b 724 979 811 733 821 883 b 333 1029 626 1076 438 1085 b 190 753 229 974 188 868 b 246 600 190 686 221 633 z m 583 724 b 469 697 551 694 513 689 b 394 790 413 707 392 764 b 492 885 396 817 415 881 b 603 825 568 888 596 844 b 583 724 615 792 610 747 z m 582 408 b 624 275 622 372 633 326 b 499 182 613 207 535 181 b 368 294 463 183 375 204 b 444 428 360 383 417 418 b 582 408 488 443 550 439 z "},"9":{"ha":278,"x_min":0,"x_max":0,"o":"m 683 1011 b 508 1057 629 1049 558 1057 b 317 1018 440 1057 368 1042 b 150 729 222 971 153 850 b 290 432 149 611 200 500 b 453 383 333 400 399 388 b 488 315 474 381 510 360 b 408 138 456 253 419 167 b 414 39 396 108 399 69 b 468 -8 425 14 444 -1 b 507 -15 482 -12 494 -15 b 594 47 549 -15 571 7 b 758 425 624 94 738 368 b 772 464 763 438 767 450 b 826 700 797 525 829 608 b 683 1011 821 831 776 944 z m 574 625 b 479 601 556 613 515 601 b 435 610 461 601 447 604 b 363 753 383 632 351 694 b 479 857 372 813 432 856 l 485 857 b 614 757 528 857 599 831 b 574 625 625 699 597 639 z "},"\u0000":{"ha":0,"x_min":0,"x_max":0,"o":""},"!":{"ha":-278,"x_min":0,"x_max":0,"o":"m 306 1008 b 218 1047 283 1033 253 1047 b 111 1001 175 1047 136 1031 b 76 885 85 972 74 932 b 122 347 79 821 113 386 b 204 269 133 299 164 269 l 208 269 b 292 346 253 272 283 299 b 342 876 300 390 335 800 b 306 1008 344 929 332 978 z m 224 233 b 194 236 214 235 204 236 b 76 99 114 236 76 156 b 208 -32 76 36 128 -32 b 329 72 267 -32 317 11 b 318 174 338 111 333 146 b 224 233 300 203 268 224 z "},"\"":{"ha":-65,"x_min":0,"x_max":0,"o":"m 431 874 b 454 840 449 868 461 857 b 436 817 451 833 444 829 b 447 764 418 790 431 772 b 525 806 465 756 496 768 b 569 972 554 844 575 915 b 449 1083 565 1028 514 1086 b 350 938 375 1081 332 1003 b 431 874 360 897 401 881 z m 144 874 b 168 840 163 868 175 857 b 150 817 165 833 158 829 b 163 764 133 790 144 772 b 240 806 179 756 211 768 b 285 972 269 844 289 915 b 164 1083 281 1028 228 1086 b 64 938 90 1081 46 1003 b 144 874 75 897 115 881 z "},"#":{"ha":399,"x_min":0,"x_max":0,"o":"m 946 667 b 1050 769 1008 676 1046 729 b 982 881 1054 806 1033 863 b 944 933 935 896 943 926 b 864 1058 954 999 914 1049 b 746 978 821 1067 769 1050 b 668 897 743 968 742 893 b 589 899 642 900 615 899 b 528 957 515 901 526 943 b 443 1076 528 1014 504 1069 b 319 965 367 1085 339 1036 b 224 901 317 953 297 899 b 85 779 139 906 79 839 b 218 671 89 719 124 678 b 251 604 226 671 261 657 b 228 467 243 560 236 513 b 186 421 225 451 218 421 b 38 311 97 421 38 367 b 135 203 38 264 67 218 b 172 124 144 201 181 192 b 267 -14 161 35 213 -14 b 378 90 322 -14 358 26 b 388 131 381 97 383 111 b 463 193 390 147 419 194 b 561 192 496 193 528 192 b 601 103 617 194 603 117 b 694 -17 596 18 644 -17 b 800 67 744 -17 781 -3 b 811 115 803 75 807 92 b 886 190 815 136 818 189 b 1024 294 981 193 1022 242 b 918 413 1025 356 988 408 b 872 482 908 414 858 408 b 893 610 882 525 886 568 b 946 667 904 663 940 665 z m 597 418 b 500 419 565 421 532 419 b 449 479 444 418 444 460 b 471 610 456 524 463 568 b 543 667 474 629 497 665 b 638 665 574 667 606 665 b 682 604 681 665 685 625 b 661 479 675 564 668 521 b 597 418 657 458 647 415 z "},"$":{"ha":42,"x_min":0,"x_max":0,"o":"m 468 624 b 469 724 468 657 469 690 b 469 746 469 731 469 738 b 519 767 469 793 506 778 b 567 735 533 754 547 743 b 686 804 614 715 686 739 b 529 972 686 858 644 932 b 443 1051 474 993 460 1033 b 386 1078 426 1068 407 1078 b 313 1043 361 1078 331 1064 b 240 979 299 1028 275 989 b 118 913 199 969 156 946 b 57 629 39 843 13 724 b 235 464 90 558 149 518 b 285 376 279 438 285 397 b 285 307 285 354 285 331 b 219 278 281 242 231 272 b 131 310 190 294 158 310 b 75 290 111 310 93 303 b 33 218 40 265 33 236 b 76 135 32 188 49 157 l 85 129 b 238 44 122 99 167 67 b 310 -10 275 33 299 1 b 335 -28 317 -18 325 -24 b 368 -35 344 -33 356 -35 b 444 8 393 -35 429 -24 b 506 46 446 13 461 33 b 696 253 613 76 676 146 b 519 525 717 369 622 461 b 468 624 503 535 469 558 z m 235 733 b 263 781 240 754 249 769 b 290 758 283 799 290 772 b 289 686 290 736 290 711 b 256 674 288 658 265 664 b 235 733 236 694 229 715 z m 501 256 b 464 265 493 239 463 221 b 465 314 465 293 465 313 b 508 307 465 354 503 324 b 501 256 514 292 511 275 z "},"%":{"ha":364,"x_min":0,"x_max":0,"o":"m 926 982 b 868 1013 911 1001 890 1013 b 757 946 832 1013 792 988 b 689 864 743 928 718 899 b 506 644 631 796 550 703 b 328 424 474 603 400 513 b 135 183 244 322 158 215 b 115 40 93 126 85 67 b 186 15 131 28 157 15 b 251 42 211 15 233 24 b 432 251 299 88 372 178 l 450 275 b 601 457 472 301 532 374 b 911 833 732 613 893 807 l 913 836 b 926 982 939 876 972 926 z m 444 939 b 257 1033 411 986 336 1033 b 164 1010 224 1033 193 1025 b 40 724 51 949 17 817 b 257 567 64 629 139 574 b 272 565 263 565 268 565 b 463 683 367 565 438 626 b 444 939 500 764 492 871 z m 319 772 b 258 733 315 758 300 733 b 215 753 242 733 226 740 b 200 818 200 772 196 800 b 271 860 204 840 239 860 b 304 850 283 860 296 857 b 319 772 322 835 329 800 z m 1006 308 b 796 471 969 407 888 471 b 739 463 778 471 758 468 b 568 246 631 431 568 353 b 699 33 568 165 626 69 b 789 14 725 21 756 14 b 926 60 839 14 892 31 b 1006 308 979 103 1042 213 z m 786 303 b 850 250 825 303 849 272 b 792 179 851 221 838 183 b 788 179 790 179 789 179 b 731 236 754 179 731 217 b 786 303 731 256 746 303 z "},"&":{"ha":228,"x_min":0,"x_max":0,"o":"m 876 143 b 863 169 874 151 869 161 b 843 267 835 197 839 247 b 846 314 847 282 849 299 b 739 404 839 360 790 401 l 736 404 b 718 401 729 404 724 403 b 604 419 694 396 628 399 b 551 475 588 436 569 454 b 554 563 514 515 535 553 b 679 765 613 597 676 675 b 486 1060 683 872 635 1007 b 388 1076 456 1071 422 1076 b 107 910 265 1076 153 1008 b 107 669 69 829 69 753 b 146 604 118 647 132 625 b 144 515 161 585 179 553 b 75 426 119 489 92 458 b 68 143 28 335 25 235 b 421 -33 128 22 293 -33 b 438 -33 426 -33 432 -33 b 631 38 517 -31 583 4 b 729 42 667 63 713 50 b 835 40 764 24 810 22 b 876 143 865 61 893 100 z m 319 725 b 297 771 308 738 303 754 b 301 832 290 793 292 814 b 349 872 313 854 333 868 b 372 875 356 875 364 875 b 457 811 413 875 449 849 b 411 708 465 776 450 742 b 319 725 397 697 351 688 z m 367 372 l 482 264 b 482 192 482 264 519 219 b 383 164 457 174 422 158 b 243 292 300 174 249 221 b 278 376 242 324 256 357 b 367 372 318 414 367 372 z "},"'":{"ha":-278,"x_min":0,"x_max":0,"o":"m 178 874 b 201 840 196 868 208 857 b 183 817 199 833 193 829 b 196 764 167 790 178 772 b 274 806 213 756 244 768 b 318 972 303 844 322 915 b 197 1083 314 1028 261 1086 b 97 938 124 1081 81 1003 b 178 874 108 897 149 881 z "},"(":{"ha":-139,"x_min":0,"x_max":0,"o":"m 407 940 b 440 1088 460 1000 471 1056 b 271 1064 399 1129 338 1128 b 67 499 204 1000 60 803 b 310 -49 75 175 246 1 b 454 -51 374 -97 428 -75 b 440 88 481 -28 486 18 b 261 522 393 157 258 300 b 407 940 265 746 367 896 z "},")":{"ha":-139,"x_min":0,"x_max":0,"o":"m 125 940 b 271 522 165 896 267 746 b 93 88 274 300 139 157 b 78 -51 46 18 51 -28 b 222 -49 104 -75 158 -97 b 465 499 288 1 457 175 b 261 1064 474 803 328 1000 b 92 1088 194 1128 133 1129 b 125 940 61 1056 72 1000 z "},"*":{"ha":8,"x_min":0,"x_max":0,"o":"m 606 606 b 518 674 597 611 563 639 b 515 742 504 685 482 713 b 583 794 547 769 574 788 b 644 881 613 819 642 849 b 629 925 646 896 640 911 b 578 951 614 943 596 951 b 501 917 550 951 524 935 l 496 914 b 461 886 486 906 475 896 b 426 908 436 871 426 894 b 425 949 426 926 426 940 b 356 1049 424 997 415 1047 b 296 1022 333 1049 313 1039 b 271 946 278 1003 268 976 b 271 911 271 939 272 926 b 226 900 269 871 239 890 b 186 929 206 915 192 925 b 132 946 168 940 150 946 b 67 906 104 946 81 931 b 108 800 44 863 75 828 b 188 739 115 794 146 771 b 185 678 199 729 215 700 b 106 615 143 647 114 624 b 83 496 65 581 56 532 b 129 472 96 481 111 472 b 190 496 147 472 168 481 b 233 526 197 500 213 511 b 271 510 244 535 269 538 b 271 478 271 494 271 483 b 346 389 275 425 304 389 b 353 389 349 389 350 389 b 421 483 410 394 419 424 l 421 499 b 421 519 421 506 421 513 b 456 533 422 532 426 553 b 514 490 486 514 506 496 b 569 472 531 479 550 472 b 631 503 594 472 617 483 b 606 606 644 522 660 561 z "},"+":{"ha":281,"x_min":0,"x_max":0,"o":"m 803 628 b 714 629 793 628 760 629 b 657 629 697 629 678 629 b 582 696 588 628 582 675 b 581 911 582 804 582 890 b 472 1015 576 979 532 1024 b 396 897 414 1008 400 951 b 394 707 394 883 394 806 b 322 631 394 682 375 625 b 292 631 313 632 301 631 b 150 629 224 631 164 631 b 44 532 86 625 44 588 b 146 456 44 504 57 460 b 331 453 164 454 239 453 b 396 382 382 454 396 404 b 397 282 396 346 396 311 b 397 181 397 229 397 192 b 492 71 397 118 439 71 b 576 168 528 71 572 88 b 581 381 578 185 579 272 b 653 453 581 403 599 454 b 794 454 713 451 775 453 b 915 492 839 457 889 463 b 932 544 928 506 933 524 b 803 628 928 618 868 628 z "},",":{"ha":-281,"x_min":0,"x_max":0,"o":"m 181 -8 b 204 -42 199 -12 211 -25 b 186 -65 201 -47 194 -53 b 199 -117 169 -92 181 -108 b 276 -75 215 -126 247 -112 b 321 90 306 -37 325 35 b 200 201 317 147 264 204 b 100 56 126 199 82 121 b 181 -8 111 15 151 -1 z "},"-":{"ha":-15,"x_min":0,"x_max":0,"o":"m 196 279 b 519 281 251 279 458 264 b 614 386 596 283 618 343 b 486 463 610 431 549 463 b 185 463 425 463 279 457 b 65 351 113 460 64 406 b 196 279 81 293 124 279 z "},".":{"ha":-306,"x_min":0,"x_max":0,"o":"m 203 -36 b 314 71 261 -40 314 22 b 207 196 314 119 294 192 b 82 72 121 201 76 125 b 203 -36 86 19 131 -29 z "},"/":{"ha":19,"x_min":0,"x_max":0,"o":"m 472 988 b 288 622 447 932 331 726 b 65 158 244 519 99 238 b 79 11 31 79 47 28 b 201 43 111 -4 165 -7 b 374 356 239 92 329 263 b 646 921 418 447 621 872 b 619 1074 672 968 692 1035 b 472 988 547 1113 499 1047 z "},":":{"ha":-267,"x_min":0,"x_max":0,"o":"m 217 681 b 338 792 281 676 346 725 b 235 913 338 847 308 899 b 96 797 160 926 90 847 b 217 681 100 746 138 686 z m 211 169 b 332 282 286 161 332 235 b 239 393 332 328 304 383 b 101 286 174 403 117 326 b 211 169 101 231 146 178 z "},";":{"ha":-264,"x_min":0,"x_max":0,"o":"m 222 676 b 333 783 281 672 333 735 b 226 908 333 831 314 904 b 101 785 140 914 97 838 b 222 676 106 732 150 683 z m 182 182 b 206 149 200 178 213 165 b 189 125 203 142 197 138 b 200 72 171 99 183 82 b 278 115 217 64 249 76 b 322 281 307 153 326 224 b 201 392 318 336 267 394 b 101 246 128 389 85 311 b 182 182 113 206 153 189 z "},"<":{"ha":208,"x_min":0,"x_max":0,"o":"m 736 808 b 854 911 790 840 846 871 b 792 1004 861 943 836 989 b 763 1010 783 1008 774 1010 b 617 958 724 1010 669 990 l 592 943 b 151 661 499 886 217 714 l 146 657 b 50 543 106 625 60 589 b 101 432 36 489 63 463 b 532 176 144 397 388 260 b 617 129 569 156 600 139 b 767 74 697 82 732 74 b 849 154 804 74 849 111 l 849 156 b 771 269 849 196 849 228 b 386 474 719 297 515 406 b 375 589 333 501 328 560 b 726 803 494 663 688 781 z "},"=":{"ha":208,"x_min":0,"x_max":0,"o":"m 182 643 b 732 647 231 639 675 633 b 847 744 794 647 856 679 b 744 831 847 801 822 801 b 165 831 683 835 251 826 b 57 719 100 826 49 785 b 182 643 64 671 100 649 z m 714 433 b 160 435 663 433 224 439 b 47 333 94 431 47 393 b 154 257 47 285 86 260 b 701 256 218 254 625 251 b 851 347 779 260 856 274 b 714 433 847 419 790 433 z "},">":{"ha":208,"x_min":0,"x_max":0,"o":"m 163 808 l 174 803 b 525 589 211 781 404 663 b 513 474 571 560 565 501 b 129 269 383 406 181 297 b 50 156 50 228 50 196 l 50 154 b 132 74 50 111 96 74 b 283 129 168 74 201 82 b 367 176 300 139 329 156 b 799 432 513 260 756 397 b 850 543 836 463 863 489 b 753 657 839 589 793 625 l 747 661 b 307 943 682 714 400 886 l 282 958 b 138 1010 231 990 176 1010 b 107 1004 126 1010 115 1008 b 44 911 63 989 39 943 b 163 808 53 871 108 840 z "},"?":{"ha":53,"x_min":0,"x_max":0,"o":"m 396 233 b 367 236 386 235 376 236 b 250 99 286 236 250 156 b 381 -32 250 36 300 -32 b 503 72 440 -32 490 11 b 490 174 511 111 507 146 b 396 233 472 203 440 224 z m 642 949 b 390 1058 590 1018 500 1058 b 219 1022 331 1058 269 1046 b 49 788 96 964 63 867 b 68 697 43 754 50 721 b 136 660 85 675 107 663 b 260 749 207 651 240 704 b 338 839 267 765 294 821 b 372 843 343 840 356 843 b 467 806 388 843 442 840 b 429 614 511 743 482 658 b 293 382 342 542 300 471 b 319 303 292 351 300 322 b 389 275 336 285 360 275 b 504 385 463 275 494 351 b 565 472 510 406 536 436 b 644 572 590 501 618 535 b 642 949 708 664 740 811 z "},"@":{"ha":425,"x_min":0,"x_max":0,"o":"m 931 933 b 571 1050 850 1006 715 1050 b 347 1006 483 1050 404 1035 b 57 600 189 926 81 775 b 303 90 28 374 124 174 b 621 19 428 32 544 19 b 739 31 663 19 704 24 b 922 124 846 54 908 85 b 918 206 933 150 931 182 b 860 246 906 228 885 242 b 746 231 831 250 786 240 b 665 217 715 224 686 217 b 364 290 608 217 443 231 b 257 624 275 357 232 490 b 497 853 282 753 401 828 b 578 863 522 860 549 863 b 825 767 674 863 764 828 b 875 543 924 667 889 565 b 811 563 858 518 806 522 b 793 628 813 582 804 604 b 554 758 763 706 656 764 b 328 524 447 753 331 676 b 482 321 325 414 407 342 b 590 307 514 311 553 307 b 818 313 643 307 767 313 b 867 317 835 313 850 314 b 1064 522 969 332 1047 413 b 931 933 1079 617 1082 796 z m 643 515 b 557 461 625 474 586 457 b 494 497 531 464 506 479 b 489 546 485 511 483 528 b 575 614 503 588 536 614 b 614 606 588 614 600 611 b 644 575 629 599 639 589 b 643 515 654 554 650 529 z "},"A":{"ha":436,"x_min":0,"x_max":0,"o":"m 1083 136 b 722 990 1056 194 758 931 b 504 1038 686 1051 571 1065 b 364 794 439 1010 399 883 b 56 143 328 707 89 232 b 125 -19 22 54 61 -6 b 263 49 189 -33 217 -15 b 349 214 274 65 315 153 b 451 282 393 293 451 282 l 713 282 b 803 218 713 282 769 289 b 871 67 835 154 856 94 b 1039 0 913 -8 993 -21 b 1083 136 1086 22 1111 78 z m 611 686 b 663 561 625 650 647 603 b 635 510 679 510 635 510 l 536 508 b 508 563 536 508 483 506 b 563 685 528 610 547 653 b 611 686 578 719 597 718 z "},"B":{"ha":253,"x_min":0,"x_max":0,"o":"m 767 518 b 754 536 761 526 756 535 b 763 550 756 538 758 544 b 817 846 786 589 847 690 b 610 1046 799 933 717 1032 b 404 1056 547 1054 464 1056 b 247 1051 347 1056 289 1054 b 114 918 167 1046 114 993 b 114 879 114 913 114 899 b 119 106 113 406 114 146 b 239 -6 126 38 188 -6 b 286 -7 250 -6 267 -6 b 419 -11 319 -8 364 -11 b 601 -3 479 -11 539 -8 b 849 264 744 11 828 100 b 767 518 863 379 794 476 z m 596 796 b 582 636 635 744 619 667 b 464 611 561 619 522 611 b 389 615 433 611 406 614 l 382 615 b 354 629 371 617 361 622 b 343 669 346 640 342 654 b 344 735 344 685 344 710 b 346 800 344 760 344 785 b 401 831 349 828 389 831 b 413 831 404 831 408 831 b 451 832 422 831 436 832 b 596 796 529 832 579 819 z m 343 263 b 344 324 344 278 344 301 b 346 383 344 346 344 369 b 401 415 347 413 389 415 b 414 415 404 415 408 415 b 457 415 424 415 439 415 b 614 381 543 415 597 404 b 599 229 653 329 638 260 b 471 206 579 214 536 206 b 386 210 436 206 403 208 l 382 210 b 354 224 371 210 361 215 b 343 263 346 233 342 247 z "},"C":{"ha":308,"x_min":0,"x_max":0,"o":"m 806 258 b 731 247 782 258 757 253 b 668 236 711 243 689 239 b 638 235 658 235 649 235 b 436 292 574 235 483 253 b 335 551 360 354 328 436 b 522 782 343 674 449 764 b 600 790 549 788 574 790 b 747 753 656 790 708 778 b 835 724 778 733 807 724 b 907 756 865 724 890 736 b 908 903 933 789 954 833 b 560 1042 867 969 721 1042 b 543 1040 554 1042 549 1040 b 90 588 383 1036 131 911 b 335 51 47 253 247 101 b 625 -6 397 15 506 -6 b 817 22 706 -6 775 4 b 915 117 869 44 904 78 b 890 217 924 149 915 183 b 806 258 869 246 843 258 z "},"D":{"ha":364,"x_min":0,"x_max":0,"o":"m 874 875 b 443 1040 790 986 649 1040 b 372 1039 417 1040 393 1040 b 322 1039 351 1039 336 1038 b 317 1039 321 1039 319 1039 b 115 883 225 1039 122 990 b 113 404 111 836 113 596 b 113 149 113 288 113 186 b 238 -6 110 54 151 4 b 339 -8 258 -7 292 -8 b 535 -6 393 -8 463 -7 l 550 -6 b 936 244 690 -3 874 65 b 874 875 999 428 999 713 z m 764 489 b 493 235 758 319 668 235 b 431 238 468 235 446 236 b 408 239 421 238 414 239 b 342 293 385 239 344 239 b 342 663 340 338 342 549 b 342 733 342 697 342 724 b 401 789 342 775 358 789 b 413 789 406 789 410 789 b 421 789 415 789 418 789 b 421 789 421 789 421 789 b 435 789 425 789 429 789 b 457 789 442 789 449 789 b 693 711 497 789 618 789 b 764 489 742 661 765 586 z "},"E":{"ha":225,"x_min":0,"x_max":0,"o":"m 736 225 b 399 228 678 228 463 228 b 349 260 375 228 349 236 b 350 346 349 268 349 301 b 410 407 350 365 349 407 b 636 406 485 407 575 406 b 699 407 668 406 689 406 b 794 507 753 408 792 461 b 764 594 796 539 783 572 b 710 618 749 610 731 618 b 418 624 678 618 532 625 b 351 672 361 624 351 658 b 354 758 353 721 353 754 b 383 793 357 782 367 793 b 408 793 388 793 396 793 b 556 793 440 793 497 793 b 735 794 643 793 704 793 b 846 903 804 797 846 838 b 747 1018 846 957 815 1015 b 319 1024 693 1021 457 1024 b 243 1024 285 1024 260 1024 b 115 883 156 1021 115 976 b 114 735 115 864 115 807 b 111 114 111 536 107 204 b 240 -6 115 15 183 -6 b 733 1 286 -6 682 -1 b 826 113 789 4 826 69 b 736 225 826 157 799 222 z "},"F":{"ha":211,"x_min":0,"x_max":0,"o":"m 357 739 b 406 788 357 781 406 788 b 556 788 438 788 496 788 b 735 789 643 788 704 788 b 847 900 806 790 847 832 b 746 1011 847 954 817 1008 b 243 1015 683 1013 333 1018 b 114 874 156 1014 114 967 b 121 101 114 792 115 219 b 246 -19 126 -11 218 -19 b 254 -19 249 -19 251 -19 b 365 90 307 -17 365 28 b 364 213 365 96 364 144 b 361 383 363 260 363 319 b 431 461 361 408 365 461 b 718 465 539 463 686 464 b 815 572 775 469 814 524 b 783 660 817 604 804 638 b 725 685 767 676 747 685 b 725 685 725 685 725 685 b 435 685 693 683 546 686 b 357 739 338 685 357 735 z "},"G":{"ha":411,"x_min":0,"x_max":0,"o":"m 922 563 b 835 567 904 565 876 567 b 719 565 799 567 757 565 l 676 564 b 574 528 631 564 596 551 b 547 457 556 510 546 490 b 676 367 549 397 615 367 b 744 367 693 367 718 364 b 789 308 790 371 803 329 b 696 239 769 279 740 251 b 592 225 661 229 625 225 b 400 290 517 225 451 247 b 379 692 285 388 294 589 b 614 794 460 789 589 794 b 704 783 647 794 679 790 b 756 760 721 778 739 769 b 781 744 764 756 772 750 b 858 713 803 729 828 713 b 940 754 889 713 919 728 b 957 846 958 776 964 808 b 743 1013 946 899 871 988 b 593 1028 704 1019 653 1028 b 254 907 465 1028 351 988 b 97 365 101 782 51 606 b 475 8 122 236 260 33 b 575 3 510 4 543 3 b 888 103 703 3 806 35 b 1033 435 1033 224 1033 433 b 922 563 1032 507 976 557 z "},"H":{"ha":417,"x_min":0,"x_max":0,"o":"m 110 875 b 118 138 110 778 121 219 b 228 -7 115 60 154 -7 b 353 122 301 -7 346 32 b 356 326 357 158 356 257 b 419 400 354 396 419 400 l 697 396 b 764 326 697 396 763 388 b 771 117 764 253 764 146 b 874 -6 788 43 800 1 b 1000 119 947 -14 1000 26 b 990 868 1000 218 999 738 b 899 1008 986 942 971 1000 b 763 847 825 1015 764 986 b 761 681 763 814 763 739 b 697 606 758 600 697 606 l 424 607 b 344 685 424 607 342 607 b 344 856 347 749 344 832 b 213 1008 344 921 322 1008 b 110 875 101 1008 110 875 z "},"I":{"ha":-239,"x_min":0,"x_max":0,"o":"m 353 504 b 349 885 350 672 347 847 b 317 972 350 928 332 956 b 233 1010 294 996 263 1010 b 110 899 178 1010 118 971 b 118 158 100 825 114 253 b 235 4 121 85 153 4 b 242 6 238 4 239 4 b 357 143 333 11 354 63 b 353 504 358 175 356 335 z "},"J":{"ha":161,"x_min":0,"x_max":0,"o":"m 632 1019 l 628 1019 b 551 990 597 1019 571 1010 b 515 876 526 964 514 924 b 514 393 518 815 517 486 b 376 238 511 296 463 240 b 368 238 374 238 371 238 b 368 238 368 238 368 238 b 235 318 294 238 267 275 l 226 329 b 136 374 206 358 174 374 b 51 332 100 374 65 357 b 101 111 13 267 28 196 b 376 0 161 42 264 0 b 481 13 413 0 447 4 b 726 311 631 49 718 154 b 746 874 733 410 746 785 b 632 1019 746 968 707 1018 z "},"K":{"ha":294,"x_min":0,"x_max":0,"o":"m 915 204 b 615 463 892 229 715 379 b 608 567 586 488 556 517 b 825 761 672 628 772 721 b 931 914 893 814 932 869 b 824 1018 931 967 879 1017 b 617 893 769 1018 706 965 l 603 882 b 568 854 592 872 581 864 b 413 733 531 824 478 783 b 354 761 368 700 354 739 b 354 925 353 843 353 906 b 321 1011 356 967 336 994 b 239 1047 300 1033 268 1047 b 117 936 183 1046 125 1008 b 121 146 108 861 117 224 b 236 -6 124 74 156 -6 b 246 -4 239 -6 242 -4 b 358 133 336 1 356 50 b 358 256 358 147 358 193 b 418 297 358 281 368 333 b 521 217 456 269 494 239 b 772 22 575 171 708 58 b 840 4 793 10 817 4 b 946 58 886 4 928 25 b 915 204 968 97 954 164 z "},"L":{"ha":306,"x_min":0,"x_max":0,"o":"m 808 265 b 553 267 767 265 649 267 b 418 267 486 267 431 267 b 379 311 393 267 379 282 b 378 421 379 322 378 364 l 378 433 b 374 911 376 590 372 854 b 338 1014 375 953 363 989 b 243 1053 314 1039 281 1053 b 117 910 167 1053 119 999 b 119 185 114 844 117 308 b 307 10 122 47 243 10 b 807 13 369 10 731 11 b 907 56 846 14 882 28 b 939 140 929 79 940 108 b 808 265 936 203 894 265 z "},"M":{"ha":492,"x_min":0,"x_max":0,"o":"m 1078 690 l 1078 694 b 1076 844 1078 769 1076 828 b 1018 1013 1076 915 1072 968 b 949 1036 999 1028 975 1036 b 846 999 914 1036 875 1022 b 633 685 815 974 701 796 b 556 682 618 660 582 643 b 386 918 506 754 433 863 b 236 1024 336 976 292 1024 b 204 1019 226 1024 215 1022 b 114 860 143 999 114 947 b 113 739 114 843 113 800 l 113 733 b 111 114 110 540 104 179 b 221 1 122 17 185 1 b 228 3 224 1 226 3 b 342 118 290 6 339 56 b 343 496 342 151 346 363 b 388 522 342 565 371 543 b 499 390 424 478 468 425 b 601 339 531 357 565 339 b 696 383 636 339 668 354 b 797 525 711 399 757 465 b 846 489 851 607 846 489 b 860 111 851 349 858 150 b 978 7 863 40 924 4 b 1081 111 1035 10 1076 51 b 1078 690 1083 151 1081 489 z "},"N":{"ha":450,"x_min":0,"x_max":0,"o":"m 929 1040 l 926 1040 b 814 925 872 1040 814 997 b 814 476 814 876 814 625 b 764 464 814 443 785 436 b 397 960 653 619 436 917 b 247 1033 340 1021 285 1033 b 228 1032 240 1033 233 1032 b 114 904 160 1022 118 975 b 122 132 113 858 115 215 b 236 15 129 49 185 13 b 349 117 289 18 346 56 b 347 525 350 158 349 382 b 401 542 347 561 379 572 b 832 28 525 378 771 60 b 903 10 856 15 879 10 b 1031 117 975 10 1026 65 b 1039 929 1035 181 1039 874 b 929 1040 1039 993 982 1039 z "},"O":{"ha":447,"x_min":0,"x_max":0,"o":"m 1060 660 b 558 1031 997 878 792 1031 l 547 1031 b 86 657 307 1026 124 838 b 274 97 38 421 143 197 b 586 8 347 42 464 8 b 853 71 686 8 778 31 b 1060 660 1029 167 1124 436 z m 818 410 b 572 258 789 307 668 254 b 332 439 456 264 354 340 b 406 722 304 558 332 661 b 574 778 447 758 508 778 b 760 706 649 778 717 751 b 818 410 851 610 843 492 z "},"P":{"ha":286,"x_min":0,"x_max":0,"o":"m 676 1036 b 318 1049 532 1044 401 1049 b 233 1046 279 1049 250 1047 b 114 910 157 1038 114 989 b 114 813 114 897 114 861 b 117 78 113 590 108 126 b 236 -22 126 10 186 -22 b 356 85 288 -22 347 15 b 360 317 358 115 360 232 b 438 400 360 354 381 394 b 475 399 450 400 461 399 b 685 407 553 399 624 401 b 928 728 846 421 924 583 b 676 1036 932 890 819 1029 z m 367 647 b 368 754 365 668 367 718 b 369 796 369 772 369 789 b 399 835 369 828 381 835 b 636 828 425 835 585 832 b 700 736 682 824 703 779 b 614 626 696 665 668 631 b 492 624 589 625 547 624 b 418 624 464 624 436 624 l 397 625 b 367 647 375 625 368 625 z "},"Q":{"ha":433,"x_min":0,"x_max":0,"o":"m 1007 278 b 1039 663 1065 392 1075 538 b 536 1025 979 874 774 1029 b 85 660 299 1021 122 838 b 268 110 36 425 143 206 b 810 71 388 19 632 -12 b 871 68 842 86 864 75 b 1010 64 918 28 983 33 b 1025 178 1038 96 1053 139 b 1010 196 1021 183 1017 189 b 1007 278 1003 206 979 224 z m 561 254 b 311 442 438 260 333 340 b 388 735 286 553 304 665 b 756 718 483 814 664 814 b 828 457 833 636 849 526 b 764 438 819 432 792 422 b 642 414 717 463 663 446 b 625 329 625 388 618 360 b 603 261 629 313 640 275 b 561 254 592 257 572 253 z "},"R":{"ha":300,"x_min":0,"x_max":0,"o":"m 804 456 b 931 728 883 519 926 632 b 672 1029 935 886 811 1022 b 224 1039 496 1039 289 1046 b 114 913 160 1032 114 994 b 115 85 114 840 106 144 b 226 -8 125 25 176 -8 b 336 90 278 -8 329 29 b 339 321 340 124 339 242 b 396 393 338 363 360 393 b 469 393 417 393 442 392 b 557 332 539 399 547 354 b 678 67 607 225 661 106 b 822 8 707 -1 781 -11 b 882 151 864 29 904 82 b 782 369 871 186 826 278 b 804 456 772 388 756 415 z m 349 633 b 351 797 346 665 351 774 b 390 844 351 826 361 844 b 632 838 421 844 579 843 b 718 722 685 833 721 769 b 608 603 713 649 671 607 b 390 600 547 599 413 600 b 349 633 367 600 350 600 z "},"S":{"ha":128,"x_min":0,"x_max":0,"o":"m 764 881 b 526 1057 749 938 676 1017 b 432 1068 497 1064 465 1068 b 135 882 321 1068 185 1019 b 182 558 101 790 96 657 b 363 425 229 506 300 463 b 464 356 407 399 444 376 b 485 293 481 338 489 315 b 449 239 482 271 468 250 b 394 229 438 233 418 229 b 251 258 347 229 292 242 b 186 274 229 269 207 274 b 89 221 149 274 115 256 b 110 68 57 176 65 117 b 299 -7 136 39 239 -1 b 371 -10 324 -8 347 -10 b 613 51 472 -10 554 11 b 700 394 719 126 758 276 b 482 600 658 478 561 558 b 347 731 418 633 353 675 b 415 825 342 775 372 815 b 439 828 422 826 431 828 b 574 792 483 828 543 811 b 660 763 606 772 632 763 b 701 768 674 763 686 765 b 754 808 724 774 742 788 b 764 881 768 831 771 856 z "},"T":{"ha":286,"x_min":0,"x_max":0,"o":"m 857 1061 b 164 1067 792 1069 242 1069 b 31 949 97 1064 21 1028 b 158 851 42 869 89 854 b 315 853 175 851 236 853 b 393 765 389 851 393 803 b 394 128 390 569 392 193 b 507 -14 397 57 428 -19 b 611 113 593 -10 608 39 b 614 769 614 163 613 572 b 708 858 614 808 631 860 b 847 858 776 857 829 860 b 953 956 915 856 953 914 b 857 1061 953 999 924 1054 z "},"U":{"ha":392,"x_min":0,"x_max":0,"o":"m 867 1029 b 743 894 794 1029 743 974 b 744 800 743 876 743 842 b 742 404 747 671 751 475 b 560 249 728 297 674 250 b 554 249 558 249 556 249 b 369 394 436 249 399 317 b 353 796 340 469 349 674 b 356 876 354 831 356 858 b 240 1029 356 975 317 1026 b 235 1029 238 1029 236 1029 b 110 879 157 1029 110 972 b 124 390 110 803 113 546 b 564 7 139 147 300 7 l 569 7 b 965 335 808 8 951 178 b 976 881 972 421 976 797 b 867 1029 976 974 935 1029 z "},"V":{"ha":369,"x_min":0,"x_max":0,"o":"m 972 1000 b 919 1015 956 1010 938 1015 b 804 938 869 1015 824 975 b 565 440 786 901 639 596 b 490 439 546 401 506 410 b 272 926 421 583 301 875 b 144 1022 239 986 192 1022 b 99 1010 129 1022 113 1018 b 50 840 36 975 21 919 b 385 94 68 792 293 243 b 515 21 414 49 463 21 b 639 88 567 21 613 46 b 1019 839 688 164 1006 800 b 972 1000 1039 889 1038 960 z "},"W":{"ha":500,"x_min":0,"x_max":0,"o":"m 38 867 b 301 88 46 807 256 176 b 494 56 344 3 440 -6 b 574 263 514 79 550 186 b 622 263 588 308 608 308 b 700 60 644 193 678 99 b 904 67 731 6 853 -21 b 1151 861 956 156 1136 814 b 1103 992 1167 907 1147 972 b 950 924 1047 1017 976 1004 b 826 500 924 844 861 625 b 776 500 817 465 786 467 b 696 735 756 575 724 681 b 497 740 650 826 538 815 b 425 521 482 714 449 600 b 379 521 415 483 390 481 b 265 904 344 639 285 846 b 113 1013 246 964 192 1039 b 38 867 63 996 26 947 z "},"X":{"ha":275,"x_min":0,"x_max":0,"o":"m 688 589 b 900 835 792 711 879 814 b 897 1003 956 893 935 969 b 732 1001 861 1035 790 1053 b 532 776 713 983 631 892 b 429 774 494 732 444 754 b 269 979 349 876 283 958 b 107 1003 222 1042 144 1033 b 81 843 69 974 40 908 b 274 590 96 819 176 714 b 271 469 289 569 314 519 b 81 243 175 360 100 267 b 69 46 32 183 1 100 b 244 74 142 -11 189 17 b 419 275 261 89 331 171 b 531 267 469 332 513 289 b 682 79 606 174 664 100 b 871 36 732 22 808 -21 b 874 211 939 97 919 147 b 674 465 858 232 775 338 b 688 589 660 483 629 519 z "},"Y":{"ha":322,"x_min":0,"x_max":0,"o":"m 61 856 b 340 517 75 832 249 625 b 396 369 374 476 396 417 b 397 129 394 290 394 178 b 519 -6 401 51 446 -4 b 635 108 581 -6 632 44 b 636 361 636 151 636 278 b 696 507 636 404 660 464 b 949 835 774 603 904 765 b 951 1007 981 883 994 964 b 806 1007 908 1051 846 1039 b 583 750 776 986 657 840 b 467 742 549 708 500 704 b 250 982 396 819 282 947 b 75 1014 203 1036 131 1054 b 61 856 21 975 28 914 z "},"Z":{"ha":197,"x_min":0,"x_max":0,"o":"m 194 788 b 407 790 222 788 331 789 b 425 715 450 792 460 761 b 181 369 350 613 221 436 b 54 138 139 303 54 217 b 188 7 54 57 114 10 b 744 10 250 6 665 4 b 847 119 824 17 851 65 b 736 221 843 174 807 224 b 443 224 706 221 544 222 b 419 307 394 225 383 258 b 722 747 515 444 701 706 b 768 926 757 818 786 875 b 632 1017 751 976 704 1014 b 194 1018 561 1018 296 1021 b 50 893 94 1017 47 961 b 194 788 51 826 121 788 z "},"[":{"ha":-158,"x_min":0,"x_max":0,"o":"m 106 1003 b 104 36 110 938 97 110 b 211 -62 113 -37 165 -76 b 424 -61 260 -67 358 -65 b 501 25 489 -57 525 -25 b 440 103 501 61 485 99 b 371 107 424 104 397 106 b 278 201 325 108 278 149 b 276 401 279 260 278 338 b 282 858 274 486 279 722 b 374 961 283 918 331 960 b 414 961 389 961 403 961 b 501 1036 464 961 497 985 b 439 1124 506 1083 499 1121 b 211 1125 401 1124 268 1125 b 106 1003 154 1125 100 1085 z "},"¥":{"ha":0,"x_min":0,"x_max":0,"o":""},"]":{"ha":-147,"x_min":0,"x_max":0,"o":"m 444 1003 b 338 1125 450 1085 396 1125 b 111 1124 281 1125 147 1124 b 47 1036 81 1121 44 1083 b 135 961 51 985 86 961 b 175 961 147 961 161 961 b 267 858 218 960 265 918 b 274 401 271 722 276 486 b 271 201 271 338 271 260 b 179 107 271 149 225 108 b 110 103 153 106 126 104 b 49 25 65 99 49 61 b 126 -61 54 -25 61 -57 b 339 -62 210 -75 289 -67 b 444 36 390 -76 436 -37 b 444 1003 456 94 440 938 z "},"^":{"ha":172,"x_min":0,"x_max":0,"o":"m 403 750 b 496 747 432 800 471 797 b 579 583 521 694 554 629 b 726 360 628 494 681 376 b 844 403 772 342 829 365 b 783 572 858 440 807 519 b 542 1036 761 624 572 990 b 400 1068 510 1082 435 1088 b 242 818 367 1047 311 925 b 38 486 174 713 63 546 b 75 365 11 425 43 379 b 196 410 106 351 164 369 b 403 750 218 438 333 633 z "},"_":{"ha":67,"x_min":0,"x_max":0,"o":"m 608 -39 b 526 -37 599 -39 572 -37 b 368 -36 421 -37 488 -36 b 129 -37 300 -36 142 -36 b 24 -135 64 -42 24 -79 b 125 -211 24 -162 36 -207 b 379 -214 158 -212 214 -214 b 600 -212 443 -214 569 -214 b 721 -175 644 -210 694 -204 b 738 -122 733 -161 739 -143 b 608 -39 733 -49 672 -39 z "},"`":{"ha":-81,"x_min":0,"x_max":0,"o":"m 276 1043 b 164 1042 236 1072 204 1079 b 168 910 124 1004 129 942 b 322 829 206 876 279 847 b 385 931 363 813 424 868 b 276 1043 357 975 306 1021 z "},"a":{"ha":194,"x_min":0,"x_max":0,"o":"m 536 38 b 608 18 567 50 590 39 b 669 -12 622 3 642 -12 b 783 96 732 -12 782 22 b 725 525 785 164 828 364 b 274 638 654 638 439 718 b 75 279 96 551 69 404 b 354 6 82 103 217 17 b 536 38 433 -1 497 18 z m 556 286 b 414 199 531 235 476 199 b 285 349 319 199 269 278 b 461 467 301 421 351 496 b 556 286 569 438 585 344 z "},"b":{"ha":178,"x_min":0,"x_max":0,"o":"m 103 907 b 110 140 106 813 96 288 b 338 0 122 -6 222 3 b 742 131 453 -4 657 10 b 715 571 828 251 828 435 b 411 685 638 664 496 682 b 343 743 371 686 343 708 b 340 900 342 794 340 868 b 232 1026 340 956 293 1019 b 103 907 171 1033 100 993 z m 324 254 b 319 393 319 307 319 351 b 394 468 319 446 342 468 b 553 399 446 468 517 468 b 504 225 585 339 567 258 b 324 254 444 192 326 194 z "},"c":{"ha":75,"x_min":0,"x_max":0,"o":"m 593 10 b 714 133 651 26 714 60 b 638 244 714 213 664 239 b 463 240 597 254 524 233 b 328 385 347 254 314 314 b 567 463 353 500 476 494 b 699 531 625 442 678 468 b 646 674 725 607 681 651 b 328 708 592 708 472 749 b 71 336 147 660 61 503 b 321 17 82 171 189 47 b 593 10 454 -17 531 -8 z "},"d":{"ha":181,"x_min":0,"x_max":0,"o":"m 768 144 b 767 911 781 290 764 815 b 636 1029 768 996 697 1036 b 528 901 575 1021 528 956 b 528 749 528 869 528 800 b 465 685 528 713 503 686 b 158 568 382 682 236 664 b 136 128 47 431 49 247 b 542 1 222 8 426 -4 b 768 144 657 6 756 -3 z m 556 394 b 553 256 556 353 556 308 b 372 224 550 196 432 192 b 321 397 310 257 290 338 b 481 468 358 467 428 468 b 556 394 532 468 556 447 z "},"e":{"ha":47,"x_min":0,"x_max":0,"o":"m 74 385 b 342 7 74 121 199 32 b 625 78 517 -24 600 32 b 524 215 668 154 590 231 b 351 233 426 193 376 213 b 372 264 333 249 346 264 b 579 299 431 264 531 268 b 639 563 668 356 694 460 b 319 706 582 667 482 724 b 74 385 157 689 74 517 z m 472 479 b 319 432 488 425 358 403 b 350 528 293 453 297 507 b 472 479 404 549 460 525 z "},"f":{"ha":131,"x_min":0,"x_max":0,"o":"m 703 982 b 397 951 621 1036 465 1010 b 283 757 342 904 297 850 b 215 688 279 736 258 685 b 164 685 196 689 178 686 b 42 517 61 678 24 601 b 207 428 54 450 122 428 b 274 347 265 426 274 372 b 276 99 272 238 272 135 b 386 -1 283 33 338 -6 b 488 108 433 1 488 50 b 493 360 488 142 490 253 b 565 431 493 383 501 431 b 590 432 574 431 582 431 b 719 546 665 433 724 481 b 614 682 717 600 682 675 b 563 685 603 683 585 683 b 538 740 519 688 525 725 b 647 753 564 779 617 769 b 768 808 678 736 740 754 b 703 982 794 863 783 928 z "},"g":{"ha":122,"x_min":0,"x_max":0,"o":"m 460 150 b 506 93 481 153 518 136 b 375 14 490 47 440 25 b 214 39 322 4 285 31 b 117 -87 143 46 103 -32 b 342 -221 135 -154 221 -214 b 640 -96 468 -228 575 -181 b 724 417 735 26 746 256 b 474 751 697 603 613 715 b 90 576 313 794 156 724 b 164 214 44 472 74 292 b 460 150 249 140 376 144 z m 499 410 b 354 367 479 358 418 357 b 296 521 299 375 257 464 b 463 532 333 579 433 564 b 499 410 493 499 517 458 z "},"h":{"ha":186,"x_min":0,"x_max":0,"o":"m 107 893 b 114 121 103 851 107 190 b 219 0 121 36 147 -6 b 331 126 283 6 317 36 b 335 308 338 165 333 265 b 561 313 342 457 551 460 b 567 96 565 271 563 139 b 678 0 571 53 603 0 b 778 86 747 0 772 50 b 779 324 783 118 788 215 b 615 613 768 464 717 567 b 407 650 529 651 456 656 b 338 708 365 647 339 667 b 331 893 335 765 332 843 b 207 1036 331 954 300 1036 b 107 893 114 1036 113 965 z "},"i":{"ha":-231,"x_min":0,"x_max":0,"o":"m 246 663 b 371 786 333 669 371 728 b 289 921 371 844 346 892 b 104 811 240 947 118 921 b 246 663 94 729 158 657 z m 111 143 b 224 -12 118 69 126 -4 b 351 101 297 -18 336 28 b 358 438 365 175 358 315 b 242 611 358 556 310 611 b 110 463 172 611 117 572 b 111 143 101 351 104 217 z "},"j":{"ha":53,"x_min":0,"x_max":0,"o":"m 522 658 b 676 785 613 650 672 733 b 542 929 679 836 636 921 b 400 783 447 938 400 842 b 522 658 400 724 460 664 z m 414 439 b 364 64 418 293 450 103 b 219 79 329 49 265 50 b 71 69 172 108 108 111 b 78 -111 22 17 42 -74 b 385 -190 147 -181 264 -210 b 633 67 489 -172 621 -83 b 649 443 643 185 653 350 b 544 604 644 536 629 604 b 414 439 460 604 411 532 z "},"k":{"ha":64,"x_min":0,"x_max":0,"o":"m 528 428 b 649 533 567 464 619 511 b 682 692 699 574 708 642 b 521 718 656 742 575 756 b 379 611 496 701 436 656 b 328 632 340 579 328 611 b 326 900 328 765 326 876 b 199 1022 326 964 276 1022 b 107 894 121 1022 107 957 b 114 111 107 838 117 179 b 214 -8 110 42 143 -14 b 326 104 286 -1 324 51 b 328 135 326 110 328 119 b 371 158 328 175 356 174 b 497 35 421 108 472 57 b 668 38 565 -25 646 13 b 668 185 692 65 701 144 b 521 340 646 211 569 290 b 528 428 497 365 500 403 z "},"l":{"ha":-253,"x_min":0,"x_max":0,"o":"m 335 147 b 342 875 338 218 339 789 b 238 1006 344 960 289 1006 b 114 888 185 1006 124 969 b 107 164 104 806 103 263 b 231 0 110 82 139 -7 b 335 147 329 6 331 61 z "},"m":{"ha":439,"x_min":0,"x_max":0,"o":"m 104 582 b 110 79 104 518 104 188 b 219 -15 114 11 175 -15 b 313 53 264 -15 304 13 b 326 394 322 93 318 350 b 407 461 336 439 363 465 b 469 381 451 457 465 425 b 485 74 475 336 471 118 b 574 -3 497 29 519 -3 b 676 79 628 -3 672 29 b 689 382 681 128 676 332 b 757 444 703 431 721 444 b 833 382 793 444 824 431 b 838 76 842 332 828 131 b 928 -11 846 22 875 -11 b 1024 69 982 -11 1019 21 b 1028 463 1028 119 1046 328 b 824 682 1011 597 918 674 b 689 653 775 686 725 669 b 583 660 653 636 614 640 b 478 694 558 676 524 692 b 375 671 438 696 401 685 b 282 692 340 654 297 681 b 204 710 261 706 236 710 b 104 582 146 710 104 658 z "},"n":{"ha":197,"x_min":0,"x_max":0,"o":"m 106 593 b 115 86 97 507 104 160 b 222 -14 128 11 167 -18 b 321 78 276 -11 318 15 b 322 328 322 133 324 238 b 464 467 319 439 389 467 b 590 358 538 467 582 443 b 600 79 597 282 593 165 b 707 -14 607 4 657 -17 b 793 79 758 -10 789 32 b 785 392 797 126 801 282 b 542 671 761 547 686 640 b 374 664 465 688 418 665 b 289 681 338 650 307 667 b 208 711 267 700 236 713 b 106 593 157 707 113 671 z "},"o":{"ha":128,"x_min":0,"x_max":0,"o":"m 410 -7 b 761 308 631 -7 751 144 b 404 690 768 457 694 688 b 72 264 113 693 36 425 b 410 -7 115 74 272 -7 z m 549 307 b 382 218 535 251 475 199 b 276 386 286 236 261 325 b 475 472 290 438 375 522 b 549 307 563 429 561 347 z "},"p":{"ha":125,"x_min":0,"x_max":0,"o":"m 107 576 b 115 -114 94 431 119 -18 b 229 -232 113 -199 168 -239 b 328 -107 290 -225 328 -161 b 328 -42 328 -86 328 -62 b 388 25 326 -4 350 25 b 678 139 465 28 600 46 b 706 586 790 275 790 465 b 319 718 619 707 435 721 b 107 576 203 714 121 724 z m 301 325 b 304 463 301 365 301 411 b 486 493 308 522 426 525 b 535 319 547 460 567 379 b 375 250 497 250 428 250 b 301 325 324 250 301 272 z "},"q":{"ha":119,"x_min":0,"x_max":0,"o":"m 708 -114 b 717 576 706 -18 731 431 b 506 718 704 724 622 714 b 119 586 390 721 206 707 b 147 139 35 465 35 275 b 435 25 224 46 357 28 b 497 -44 474 25 499 -6 b 496 -107 497 -65 496 -87 b 596 -232 496 -161 535 -225 b 708 -114 657 -239 713 -199 z m 521 463 b 524 325 524 411 524 365 b 449 250 524 272 501 250 b 290 319 397 250 326 250 b 339 493 258 379 276 460 b 521 463 399 525 517 522 z "},"r":{"ha":58,"x_min":0,"x_max":0,"o":"m 100 579 b 118 119 107 481 106 188 b 257 10 131 53 124 -26 b 344 242 339 31 319 156 b 569 453 375 349 451 419 b 701 599 679 483 721 519 b 489 663 683 678 588 693 b 363 594 440 647 396 619 b 310 622 331 571 310 579 b 196 735 310 690 269 735 b 100 579 122 735 94 678 z "},"s":{"ha":-14,"x_min":0,"x_max":0,"o":"m 119 604 b 213 340 88 496 139 407 b 365 199 269 288 389 258 b 186 204 350 158 264 188 b 72 49 71 229 42 88 b 311 -42 103 8 160 -40 b 567 128 456 -44 532 3 b 433 429 607 275 501 372 b 338 540 388 467 296 490 b 514 540 381 592 442 540 b 600 679 597 542 624 625 b 360 774 575 736 482 778 b 119 604 263 769 161 744 z "},"t":{"ha":19,"x_min":0,"x_max":0,"o":"m 564 707 b 526 708 558 707 543 708 b 464 767 501 710 465 729 b 374 886 460 829 443 886 b 268 778 301 886 275 853 b 199 707 263 729 221 711 b 36 572 114 692 36 651 b 201 474 36 496 125 476 b 251 411 250 472 251 432 b 256 136 250 304 250 193 b 363 -4 265 43 288 -4 b 461 132 436 -4 461 51 b 461 414 461 171 461 294 b 533 474 463 465 524 474 b 676 576 619 474 675 517 b 564 707 678 619 651 696 z "},"u":{"ha":172,"x_min":0,"x_max":0,"o":"m 93 550 b 111 235 97 486 72 432 b 550 10 150 39 299 -42 b 771 519 803 61 775 414 b 675 704 765 646 746 700 b 557 615 604 710 561 679 b 535 269 551 551 567 335 b 356 233 504 204 400 208 b 315 575 310 257 318 513 b 199 711 311 638 278 717 b 93 550 121 707 86 667 z "},"v":{"ha":267,"x_min":0,"x_max":0,"o":"m 51 526 b 300 93 74 463 199 257 b 628 86 383 -43 557 -26 b 908 525 676 165 893 482 b 868 688 925 567 940 642 b 703 629 796 733 736 678 b 506 329 679 594 567 424 b 424 333 481 290 447 293 b 264 617 374 421 292 564 b 92 699 222 694 160 738 b 51 526 26 660 21 607 z "},"w":{"ha":308,"x_min":0,"x_max":0,"o":"m 951 650 b 903 703 939 675 926 694 b 864 713 885 710 882 713 b 751 638 811 713 769 685 b 688 457 738 603 711 526 b 636 450 678 429 646 425 b 594 544 622 488 607 524 b 500 606 572 582 546 606 b 406 549 454 606 428 583 b 371 465 399 538 385 503 b 322 469 363 443 332 443 b 268 624 301 532 278 599 b 139 724 250 669 206 724 b 103 718 126 724 115 721 b 42 582 42 700 31 647 b 251 64 50 531 215 125 b 346 -1 276 24 297 -1 b 408 36 381 -1 383 13 b 471 168 418 46 449 114 b 533 164 488 208 517 204 b 589 43 554 114 581 57 b 669 -6 608 14 624 -6 b 758 49 717 -6 735 14 b 933 508 789 93 861 296 b 954 571 944 542 951 564 b 951 650 964 596 963 624 z "},"x":{"ha":72,"x_min":0,"x_max":0,"o":"m 693 208 b 590 325 683 222 649 263 b 590 426 553 364 575 411 b 676 517 633 472 665 506 b 708 601 699 540 710 569 b 679 676 708 633 701 656 b 518 676 636 715 565 717 b 428 586 507 665 472 632 b 333 589 414 571 378 539 b 260 669 297 631 268 658 b 161 721 236 703 201 721 b 88 697 133 721 107 713 b 72 538 43 663 33 601 b 176 419 82 519 119 479 b 175 322 190 406 213 361 b 78 215 126 271 90 231 b 33 97 58 193 29 147 b 74 28 38 71 51 46 b 140 6 100 8 117 6 b 236 57 181 6 210 31 b 382 210 250 71 310 133 b 506 75 443 147 492 92 b 626 7 542 32 586 7 b 699 36 653 7 678 17 b 693 208 782 110 717 174 z "},"y":{"ha":153,"x_min":0,"x_max":0,"o":"m 63 506 b 238 238 83 461 183 315 b 231 147 258 207 254 175 b 179 81 215 131 197 108 b 149 -128 131 8 89 -82 b 326 -104 229 -192 274 -149 b 754 449 389 -51 697 371 b 779 657 813 526 843 589 b 613 647 717 725 644 681 b 465 465 582 615 513 526 b 375 465 436 429 399 429 b 272 621 343 514 300 581 b 83 690 219 699 146 733 b 63 506 21 647 22 593 z "},"z":{"ha":53,"x_min":0,"x_max":0,"o":"m 160 497 b 307 500 193 496 258 499 b 328 460 340 500 350 485 b 126 235 269 394 160 271 b 57 78 82 183 42 131 b 164 -8 68 43 114 -8 b 588 -10 215 -8 524 -19 b 708 92 654 -10 703 28 b 622 197 713 156 663 194 b 422 206 596 200 490 203 b 411 260 390 206 383 228 b 642 539 485 346 625 513 b 557 704 696 615 615 704 b 172 701 499 704 268 704 b 44 581 83 699 42 639 b 160 497 47 522 99 501 z "},"{":{"ha":-214,"x_min":0,"x_max":0,"o":"m 401 981 b 435 1040 421 996 433 1018 b 422 1085 436 1058 432 1074 b 363 1107 411 1099 388 1107 b 240 1044 338 1107 288 1099 b 207 739 164 960 196 789 b 179 603 219 683 199 617 b 121 476 133 569 114 526 b 160 403 125 446 143 424 b 193 342 175 383 189 364 b 190 251 197 321 194 286 b 193 88 186 199 181 138 b 349 -93 214 4 286 -93 b 408 -69 375 -93 396 -85 b 424 -12 422 -56 426 -36 b 392 42 421 10 407 25 b 346 100 379 56 364 72 b 333 265 324 135 329 204 b 335 365 335 303 338 336 b 304 460 332 403 318 435 b 307 533 296 475 283 503 b 349 631 328 558 343 594 b 346 793 356 681 350 740 b 340 871 343 822 340 850 b 401 981 340 918 379 963 z "},"|":{"ha":-264,"x_min":0,"x_max":0,"o":"m 313 996 b 204 1100 308 1063 264 1108 b 128 982 146 1092 132 1036 b 129 89 125 949 128 278 b 129 -14 129 36 129 -1 b 224 -124 129 -75 171 -124 b 308 -25 260 -124 304 -106 b 313 996 313 24 317 935 z "},"}":{"ha":-203,"x_min":0,"x_max":0,"o":"m 99 981 b 160 871 121 963 160 918 b 156 793 160 850 157 822 b 151 631 150 740 144 681 b 193 533 157 594 174 558 b 196 460 217 503 204 475 b 165 365 182 435 168 403 b 167 265 163 336 165 303 b 154 100 172 204 176 135 b 108 42 136 72 121 56 b 76 -12 93 25 79 10 b 92 -69 74 -36 78 -56 b 151 -93 104 -85 125 -93 b 307 88 214 -93 286 4 b 310 251 319 138 314 199 b 307 342 306 286 303 321 b 340 403 311 364 325 383 b 379 476 357 424 375 446 b 321 603 388 526 367 569 b 293 739 301 617 281 683 b 261 1044 304 789 336 960 b 139 1107 213 1099 163 1107 b 78 1085 113 1107 89 1099 b 65 1040 68 1074 64 1058 b 99 981 68 1018 79 996 z "},"~":{"ha":-136,"x_min":0,"x_max":0,"o":"m 164 944 b 294 931 200 958 244 950 b 449 921 343 913 390 896 b 503 1022 507 944 517 988 b 424 1058 490 1057 453 1071 b 276 1068 394 1047 329 1047 b 96 1065 211 1093 135 1093 b 65 951 51 1033 42 983 b 164 944 88 919 115 925 z "},"\\":{"ha":28,"x_min":0,"x_max":0,"o":"m 244 988 b 97 1074 218 1047 169 1113 b 71 921 25 1035 44 968 b 343 356 96 872 299 447 b 515 42 388 263 478 92 b 638 11 551 -7 606 -4 b 651 158 669 28 686 79 b 429 622 618 238 472 519 b 244 988 386 726 269 932 z "},"¦":{"ha":0,"x_min":0,"x_max":0,"o":""},"¡":{"ha":0,"x_min":0,"x_max":0,"o":""},"¢":{"ha":0,"x_min":0,"x_max":0,"o":""},"£":{"ha":0,"x_min":0,"x_max":0,"o":""},"⁄":{"ha":0,"x_min":0,"x_max":0,"o":""},"¤":{"ha":0,"x_min":0,"x_max":0,"o":""},"«":{"ha":0,"x_min":0,"x_max":0,"o":""},"‹":{"ha":0,"x_min":0,"x_max":0,"o":""},"›":{"ha":0,"x_min":0,"x_max":0,"o":""},"ﬁ":{"ha":0,"x_min":0,"x_max":0,"o":""},"ﬂ":{"ha":0,"x_min":0,"x_max":0,"o":""},"‒":{"ha":0,"x_min":0,"x_max":0,"o":""},"·":{"ha":0,"x_min":0,"x_max":0,"o":""},"•":{"ha":0,"x_min":0,"x_max":0,"o":""},"‚":{"ha":0,"x_min":0,"x_max":0,"o":""},"„":{"ha":0,"x_min":0,"x_max":0,"o":""},"»":{"ha":0,"x_min":0,"x_max":0,"o":""},"¿":{"ha":0,"x_min":0,"x_max":0,"o":""},"́":{"ha":0,"x_min":0,"x_max":0,"o":""},"̂":{"ha":0,"x_min":0,"x_max":0,"o":""},"¯":{"ha":0,"x_min":0,"x_max":0,"o":""},"̆":{"ha":0,"x_min":0,"x_max":0,"o":""},"̇":{"ha":0,"x_min":0,"x_max":0,"o":""},"̈":{"ha":0,"x_min":0,"x_max":0,"o":""},"̊":{"ha":0,"x_min":0,"x_max":0,"o":""},"¸":{"ha":0,"x_min":0,"x_max":0,"o":""},"̋":{"ha":0,"x_min":0,"x_max":0,"o":""},"̨":{"ha":0,"x_min":0,"x_max":0,"o":""},"̌":{"ha":0,"x_min":0,"x_max":0,"o":""},"̶":{"ha":0,"x_min":0,"x_max":0,"o":""},"Æ":{"ha":0,"x_min":0,"x_max":0,"o":""},"ª":{"ha":0,"x_min":0,"x_max":0,"o":""},"Ł":{"ha":0,"x_min":0,"x_max":0,"o":""},"Ø":{"ha":0,"x_min":0,"x_max":0,"o":""},"Œ":{"ha":0,"x_min":0,"x_max":0,"o":""},"º":{"ha":0,"x_min":0,"x_max":0,"o":""},"æ":{"ha":0,"x_min":0,"x_max":0,"o":""},"ı":{"ha":0,"x_min":0,"x_max":0,"o":""},"ł":{"ha":0,"x_min":0,"x_max":0,"o":""},"ø":{"ha":0,"x_min":0,"x_max":0,"o":""},"œ":{"ha":0,"x_min":0,"x_max":0,"o":""},"ß":{"ha":0,"x_min":0,"x_max":0,"o":""},"­":{"ha":0,"x_min":0,"x_max":0,"o":""},"©":{"ha":0,"x_min":0,"x_max":0,"o":""},"¬":{"ha":0,"x_min":0,"x_max":0,"o":""},"®":{"ha":0,"x_min":0,"x_max":0,"o":""},"²":{"ha":0,"x_min":0,"x_max":0,"o":""},"³":{"ha":0,"x_min":0,"x_max":0,"o":""},"µ":{"ha":0,"x_min":0,"x_max":0,"o":""},"¹":{"ha":0,"x_min":0,"x_max":0,"o":""},"¼":{"ha":0,"x_min":0,"x_max":0,"o":""},"½":{"ha":0,"x_min":0,"x_max":0,"o":""},"¾":{"ha":0,"x_min":0,"x_max":0,"o":""},"À":{"ha":0,"x_min":0,"x_max":0,"o":""},"Á":{"ha":0,"x_min":0,"x_max":0,"o":""},"Â":{"ha":0,"x_min":0,"x_max":0,"o":""},"Ã":{"ha":0,"x_min":0,"x_max":0,"o":""},"Ä":{"ha":0,"x_min":0,"x_max":0,"o":""},"Å":{"ha":0,"x_min":0,"x_max":0,"o":""},"Ç":{"ha":0,"x_min":0,"x_max":0,"o":""},"È":{"ha":0,"x_min":0,"x_max":0,"o":""},"É":{"ha":0,"x_min":0,"x_max":0,"o":""},"Ê":{"ha":0,"x_min":0,"x_max":0,"o":""},"Ë":{"ha":0,"x_min":0,"x_max":0,"o":""},"Ì":{"ha":0,"x_min":0,"x_max":0,"o":""},"Í":{"ha":0,"x_min":0,"x_max":0,"o":""},"Î":{"ha":0,"x_min":0,"x_max":0,"o":""},"Ï":{"ha":0,"x_min":0,"x_max":0,"o":""},"Ð":{"ha":0,"x_min":0,"x_max":0,"o":""},"Ñ":{"ha":0,"x_min":0,"x_max":0,"o":""},"Ò":{"ha":0,"x_min":0,"x_max":0,"o":""},"Ó":{"ha":0,"x_min":0,"x_max":0,"o":""},"Ô":{"ha":0,"x_min":0,"x_max":0,"o":""},"Õ":{"ha":0,"x_min":0,"x_max":0,"o":""},"Ö":{"ha":0,"x_min":0,"x_max":0,"o":""},"Ù":{"ha":0,"x_min":0,"x_max":0,"o":""},"Ú":{"ha":0,"x_min":0,"x_max":0,"o":""},"Û":{"ha":0,"x_min":0,"x_max":0,"o":""},"Ü":{"ha":0,"x_min":0,"x_max":0,"o":""},"Ý":{"ha":0,"x_min":0,"x_max":0,"o":""},"Þ":{"ha":0,"x_min":0,"x_max":0,"o":""},"à":{"ha":0,"x_min":0,"x_max":0,"o":""},"á":{"ha":0,"x_min":0,"x_max":0,"o":""},"â":{"ha":0,"x_min":0,"x_max":0,"o":""},"ã":{"ha":0,"x_min":0,"x_max":0,"o":""},"ä":{"ha":0,"x_min":0,"x_max":0,"o":""},"å":{"ha":0,"x_min":0,"x_max":0,"o":""},"ç":{"ha":0,"x_min":0,"x_max":0,"o":""},"è":{"ha":0,"x_min":0,"x_max":0,"o":""},"é":{"ha":0,"x_min":0,"x_max":0,"o":""},"ê":{"ha":0,"x_min":0,"x_max":0,"o":""},"ë":{"ha":0,"x_min":0,"x_max":0,"o":""},"ì":{"ha":0,"x_min":0,"x_max":0,"o":""},"í":{"ha":0,"x_min":0,"x_max":0,"o":""},"î":{"ha":0,"x_min":0,"x_max":0,"o":""},"ï":{"ha":0,"x_min":0,"x_max":0,"o":""},"ð":{"ha":0,"x_min":0,"x_max":0,"o":""},"ñ":{"ha":0,"x_min":0,"x_max":0,"o":""},"ò":{"ha":0,"x_min":0,"x_max":0,"o":""},"ó":{"ha":0,"x_min":0,"x_max":0,"o":""},"ô":{"ha":0,"x_min":0,"x_max":0,"o":""},"õ":{"ha":0,"x_min":0,"x_max":0,"o":""},"ö":{"ha":0,"x_min":0,"x_max":0,"o":""},"ù":{"ha":0,"x_min":0,"x_max":0,"o":""},"ú":{"ha":0,"x_min":0,"x_max":0,"o":""},"û":{"ha":0,"x_min":0,"x_max":0,"o":""},"ü":{"ha":0,"x_min":0,"x_max":0,"o":""},"ý":{"ha":0,"x_min":0,"x_max":0,"o":""},"þ":{"ha":0,"x_min":0,"x_max":0,"o":""},"ÿ":{"ha":0,"x_min":0,"x_max":0,"o":""},"Š":{"ha":0,"x_min":0,"x_max":0,"o":""},"Ÿ":{"ha":0,"x_min":0,"x_max":0,"o":""},"Ž":{"ha":0,"x_min":0,"x_max":0,"o":""},"̅":{"ha":0,"x_min":0,"x_max":0,"o":""},"š":{"ha":0,"x_min":0,"x_max":0,"o":""},"™":{"ha":0,"x_min":0,"x_max":0,"o":""},"ž":{"ha":0,"x_min":0,"x_max":0,"o":""}," ":{"ha":0,"x_min":0,"x_max":0,"o":""},"￨":{"ha":0,"x_min":0,"x_max":0,"o":""},"‾":{"ha":0,"x_min":0,"x_max":0,"o":""},"｡":{"ha":14,"x_min":0,"x_max":0,"o":"m 219 -39 b 408 129 318 -47 426 36 b 247 311 408 213 360 290 b 61 136 136 332 54 213 b 219 -39 68 58 100 -31 z m 286 143 b 225 86 286 119 263 82 b 174 144 192 90 176 93 b 239 199 174 174 206 204 b 286 143 271 194 286 167 z "},"｢":{"ha":208,"x_min":0,"x_max":0,"o":"m 469 819 b 547 913 469 876 503 913 b 726 917 603 914 675 917 b 844 997 803 919 844 964 b 764 1094 844 1039 819 1088 b 419 1101 682 1104 519 1099 b 281 976 338 1101 281 1039 b 288 13 281 915 281 74 b 374 -72 294 -50 332 -72 b 463 17 415 -72 463 -44 b 469 819 463 67 467 603 z "},"｣":{"ha":208,"x_min":0,"x_max":0,"o":"m 436 208 b 358 115 436 153 403 117 b 179 111 303 114 231 113 b 61 31 103 110 61 65 b 142 -65 61 -10 86 -58 b 486 -72 224 -75 404 -97 b 625 51 568 -72 625 -10 b 618 1017 625 114 625 954 b 532 1101 611 1079 574 1101 b 443 1013 490 1101 443 1074 b 436 208 443 963 439 426 z "},"､":{"ha":17,"x_min":0,"x_max":0,"o":"m 117 117 b 269 -19 149 89 224 17 b 390 6 317 -57 365 -26 b 364 125 415 39 419 76 b 225 251 328 156 269 217 b 86 235 181 286 114 283 b 117 117 58 188 75 154 z "},"･":{"ha":19,"x_min":0,"x_max":0,"o":"m 367 428 b 513 568 449 422 513 499 b 390 721 513 639 485 703 b 222 574 296 739 217 639 b 367 428 229 510 267 435 z "},"ｦ":{"ha":0,"x_min":0,"x_max":0,"o":""},"ｧ":{"ha":0,"x_min":0,"x_max":0,"o":""},"ｨ":{"ha":0,"x_min":0,"x_max":0,"o":""},"ｩ":{"ha":0,"x_min":0,"x_max":0,"o":""},"ｪ":{"ha":0,"x_min":0,"x_max":0,"o":""},"ｫ":{"ha":0,"x_min":0,"x_max":0,"o":""},"ｬ":{"ha":0,"x_min":0,"x_max":0,"o":""},"ｭ":{"ha":0,"x_min":0,"x_max":0,"o":""},"ｮ":{"ha":0,"x_min":0,"x_max":0,"o":""},"ｯ":{"ha":0,"x_min":0,"x_max":0,"o":""},"ｰ":{"ha":0,"x_min":0,"x_max":0,"o":""},"ｱ":{"ha":0,"x_min":0,"x_max":0,"o":""},"ｲ":{"ha":0,"x_min":0,"x_max":0,"o":""},"ｳ":{"ha":0,"x_min":0,"x_max":0,"o":""},"ｴ":{"ha":0,"x_min":0,"x_max":0,"o":""},"ｵ":{"ha":0,"x_min":0,"x_max":0,"o":""},"ｶ":{"ha":0,"x_min":0,"x_max":0,"o":""},"ｷ":{"ha":0,"x_min":0,"x_max":0,"o":""},"ｸ":{"ha":0,"x_min":0,"x_max":0,"o":""},"ｹ":{"ha":0,"x_min":0,"x_max":0,"o":""},"ｺ":{"ha":0,"x_min":0,"x_max":0,"o":""},"ｻ":{"ha":0,"x_min":0,"x_max":0,"o":""},"ｼ":{"ha":0,"x_min":0,"x_max":0,"o":""},"ｽ":{"ha":0,"x_min":0,"x_max":0,"o":""},"ｾ":{"ha":0,"x_min":0,"x_max":0,"o":""},"ｿ":{"ha":0,"x_min":0,"x_max":0,"o":""},"ﾀ":{"ha":0,"x_min":0,"x_max":0,"o":""},"ﾁ":{"ha":0,"x_min":0,"x_max":0,"o":""},"ﾂ":{"ha":0,"x_min":0,"x_max":0,"o":""},"ﾃ":{"ha":0,"x_min":0,"x_max":0,"o":""},"ﾄ":{"ha":0,"x_min":0,"x_max":0,"o":""},"ﾅ":{"ha":0,"x_min":0,"x_max":0,"o":""},"ﾆ":{"ha":0,"x_min":0,"x_max":0,"o":""},"ﾇ":{"ha":0,"x_min":0,"x_max":0,"o":""},"ﾈ":{"ha":0,"x_min":0,"x_max":0,"o":""},"ﾉ":{"ha":0,"x_min":0,"x_max":0,"o":""},"ﾊ":{"ha":0,"x_min":0,"x_max":0,"o":""},"ﾋ":{"ha":0,"x_min":0,"x_max":0,"o":""},"ﾌ":{"ha":0,"x_min":0,"x_max":0,"o":""},"ﾍ":{"ha":0,"x_min":0,"x_max":0,"o":""},"ﾎ":{"ha":0,"x_min":0,"x_max":0,"o":""},"ﾏ":{"ha":0,"x_min":0,"x_max":0,"o":""},"ﾐ":{"ha":0,"x_min":0,"x_max":0,"o":""},"ﾑ":{"ha":0,"x_min":0,"x_max":0,"o":""},"ﾒ":{"ha":0,"x_min":0,"x_max":0,"o":""},"ﾓ":{"ha":0,"x_min":0,"x_max":0,"o":""},"ﾔ":{"ha":0,"x_min":0,"x_max":0,"o":""},"ﾕ":{"ha":0,"x_min":0,"x_max":0,"o":""},"ﾖ":{"ha":0,"x_min":0,"x_max":0,"o":""},"ﾗ":{"ha":0,"x_min":0,"x_max":0,"o":""},"ﾘ":{"ha":0,"x_min":0,"x_max":0,"o":""},"ﾙ":{"ha":0,"x_min":0,"x_max":0,"o":""},"ﾚ":{"ha":0,"x_min":0,"x_max":0,"o":""},"ﾛ":{"ha":0,"x_min":0,"x_max":0,"o":""},"ﾜ":{"ha":0,"x_min":0,"x_max":0,"o":""},"ﾝ":{"ha":0,"x_min":0,"x_max":0,"o":""},"ﾞ":{"ha":0,"x_min":0,"x_max":0,"o":""},"ﾟ":{"ha":0,"x_min":0,"x_max":0,"o":""}," ":{"ha":0,"x_min":0,"x_max":0,"o":""},"、":{"ha":0,"x_min":0,"x_max":0,"o":"m 167 117 b 319 -19 199 89 274 17 b 440 6 367 -57 415 -26 b 414 125 465 39 469 76 b 275 251 378 156 319 217 b 136 235 231 286 164 283 b 167 117 108 188 125 154 z "},"。":{"ha":0,"x_min":0,"x_max":0,"o":"m 258 -39 b 447 129 357 -47 465 36 b 286 311 447 213 399 290 b 100 136 175 332 93 213 b 258 -39 107 58 139 -31 z m 325 143 b 264 86 325 119 301 82 b 213 144 231 90 215 93 b 278 199 213 174 244 204 b 325 143 310 194 325 167 z "},"，":{"ha":0,"x_min":0,"x_max":0,"o":"m 242 -8 b 265 -42 260 -12 272 -25 b 247 -65 263 -47 256 -53 b 260 -117 231 -92 242 -108 b 338 -75 276 -126 308 -112 b 382 90 367 -37 386 35 b 261 201 378 147 325 204 b 161 56 188 199 143 121 b 242 -8 172 15 213 -1 z "},"．":{"ha":0,"x_min":0,"x_max":0,"o":"m 264 -36 b 375 71 322 -40 375 22 b 268 196 375 119 356 192 b 143 72 182 201 138 125 b 264 -36 147 19 192 -29 z "},"・":{"ha":0,"x_min":0,"x_max":0,"o":"m 694 428 b 840 568 776 422 840 499 b 718 721 840 639 813 703 b 550 574 624 739 544 639 b 694 428 557 510 594 435 z "},"：":{"ha":0,"x_min":0,"x_max":0,"o":"m 694 681 b 815 792 758 676 824 725 b 713 913 815 847 786 899 b 574 797 638 926 568 847 b 694 681 578 746 615 686 z m 689 169 b 810 282 764 161 810 235 b 717 393 810 328 782 383 b 579 286 651 403 594 326 b 689 169 579 231 624 178 z "},"；":{"ha":0,"x_min":0,"x_max":0,"o":"m 700 676 b 811 783 758 672 811 735 b 704 908 811 831 792 904 b 579 785 618 914 575 838 b 700 676 583 732 628 683 z m 660 182 b 683 149 678 178 690 165 b 667 125 681 142 675 138 b 678 72 649 99 661 82 b 756 115 694 64 726 76 b 800 281 785 153 804 224 b 679 392 796 336 744 394 b 579 246 606 389 563 311 b 660 182 590 206 631 189 z "},"？":{"ha":0,"x_min":0,"x_max":0,"o":"m 713 233 b 683 236 703 235 693 236 b 567 99 603 236 567 156 b 697 -32 567 36 617 -32 b 819 72 757 -32 807 11 b 807 174 828 111 824 146 b 713 233 789 203 757 224 z m 958 949 b 707 1058 907 1018 817 1058 b 536 1022 647 1058 586 1046 b 365 788 413 964 379 867 b 385 697 360 754 367 721 b 453 660 401 675 424 663 b 576 749 524 651 557 704 b 654 839 583 765 611 821 b 689 843 660 840 672 843 b 783 806 704 843 758 840 b 746 614 828 743 799 658 b 610 382 658 542 617 471 b 636 303 608 351 617 322 b 706 275 653 285 676 275 b 821 385 779 275 811 351 b 882 472 826 406 853 436 b 961 572 907 501 935 535 b 958 949 1025 664 1057 811 z "},"！":{"ha":0,"x_min":0,"x_max":0,"o":"m 806 1008 b 718 1047 783 1033 753 1047 b 611 1001 675 1047 636 1031 b 576 885 585 972 574 932 b 622 347 579 821 613 386 b 704 269 633 299 664 269 l 708 269 b 792 346 753 272 783 299 b 842 876 800 390 835 800 b 806 1008 844 929 832 978 z m 724 233 b 694 236 714 235 704 236 b 576 99 614 236 576 156 b 708 -32 576 36 628 -32 b 829 72 767 -32 817 11 b 818 174 838 111 833 146 b 724 233 800 203 768 224 z "},"゛":{"ha":0,"x_min":0,"x_max":0,"o":"m 135 888 b 279 782 174 811 235 760 b 261 935 326 806 325 849 b 149 1000 217 994 188 1021 b 135 888 108 981 114 928 z m 297 961 b 429 865 336 892 375 838 b 431 1000 476 889 472 931 b 311 1075 392 1065 351 1096 b 297 961 271 1056 274 1000 z "},"゜":{"ha":0,"x_min":0,"x_max":0,"o":"m 272 719 b 461 889 371 713 481 796 b 300 1071 461 972 413 1050 b 113 896 188 1092 106 972 b 272 719 119 818 153 729 z m 338 903 b 278 846 338 879 315 842 b 226 904 244 850 231 853 b 292 958 226 933 258 963 b 338 903 324 954 338 926 z "},"´":{"ha":0,"x_min":0,"x_max":0,"o":"m 697 1043 b 589 931 668 1021 617 975 b 651 829 550 868 611 813 b 807 910 694 847 768 876 b 811 1042 844 942 851 1004 b 697 1043 769 1079 738 1072 z "},"｀":{"ha":0,"x_min":0,"x_max":0,"o":"m 715 1043 b 603 1042 675 1072 643 1079 b 607 910 563 1004 568 942 b 761 829 644 876 718 847 b 824 931 801 813 863 868 b 715 1043 796 975 744 1021 z "},"¨":{"ha":0,"x_min":0,"x_max":0,"o":"m 568 860 b 661 950 621 856 661 906 b 583 1049 661 996 643 1038 b 475 954 522 1060 471 996 b 568 860 479 913 503 864 z m 821 860 b 914 950 874 856 914 906 b 835 1049 914 996 911 1018 b 728 954 775 1060 724 996 b 821 860 732 913 756 864 z "},"＾":{"ha":0,"x_min":0,"x_max":0,"o":"m 918 904 b 829 1006 908 921 878 954 l 800 1035 b 701 1082 772 1065 738 1082 b 607 1038 667 1082 633 1067 b 556 989 597 1028 578 1010 b 475 908 500 936 481 917 b 490 814 446 857 472 828 b 525 803 500 807 513 803 b 592 832 551 803 576 818 b 656 888 600 839 628 864 b 754 878 674 904 718 914 b 796 836 771 861 788 844 b 863 799 810 819 833 799 b 899 810 875 799 888 801 b 918 904 933 831 940 865 z "},"￣":{"ha":0,"x_min":0,"x_max":0,"o":"m 263 963 b 632 960 318 965 531 951 b 1149 960 733 968 1071 953 b 1254 1032 1226 965 1254 1000 b 1185 1118 1254 1065 1243 1107 b 863 1125 1129 1126 954 1128 b 243 1124 769 1122 293 1122 b 131 1038 194 1124 132 1111 b 263 963 131 964 203 958 z "},"＿":{"ha":0,"x_min":0,"x_max":0,"o":"m 1126 -46 b 757 -43 1071 -49 858 -35 b 240 -43 656 -51 318 -36 b 135 -115 163 -49 135 -83 b 204 -201 135 -149 163 -207 b 526 -208 260 -210 435 -211 b 1146 -207 619 -206 1096 -206 b 1258 -121 1194 -207 1257 -194 b 1126 -46 1258 -47 1186 -42 z "},"ヽ":{"ha":0,"x_min":0,"x_max":0,"o":""},"ヾ":{"ha":0,"x_min":0,"x_max":0,"o":""},"ゝ":{"ha":0,"x_min":0,"x_max":0,"o":""},"ゞ":{"ha":0,"x_min":0,"x_max":0,"o":""},"〃":{"ha":0,"x_min":0,"x_max":0,"o":"m 738 813 b 658 936 736 899 696 932 b 558 826 614 939 564 904 b 479 535 554 771 532 640 b 353 383 439 454 393 417 b 307 343 336 369 321 357 b 279 218 274 308 249 250 b 394 189 310 175 381 185 b 628 417 457 206 550 275 b 738 813 696 542 739 697 z m 957 900 b 857 775 910 900 858 861 b 789 453 856 715 840 571 b 661 279 750 363 703 318 b 614 231 644 263 628 247 b 606 107 578 188 576 142 b 731 81 639 68 719 76 b 956 336 811 108 890 199 b 1049 772 1021 475 1057 647 b 957 900 1040 889 976 899 z "},"仝":{"ha":0,"x_min":0,"x_max":0,"o":""},"々":{"ha":0,"x_min":0,"x_max":0,"o":""},"〆":{"ha":0,"x_min":0,"x_max":0,"o":""},"〇":{"ha":0,"x_min":0,"x_max":0,"o":"m 661 -60 b 1247 464 967 -82 1247 201 b 749 1031 1247 725 1081 1003 b 165 485 394 1061 143 725 b 661 -60 188 246 290 -33 z m 1013 486 b 672 172 1013 356 881 146 b 383 500 486 196 383 342 b 750 801 383 657 567 826 b 1013 486 933 775 1013 617 z "},"ー":{"ha":0,"x_min":0,"x_max":0,"o":"m 1019 640 b 900 642 1006 640 963 642 b 535 644 760 643 693 644 b 346 643 444 644 364 644 b 206 513 261 638 206 586 b 340 411 206 476 224 417 b 706 407 385 410 486 407 b 1007 410 790 407 967 407 b 1168 460 1067 413 1133 422 b 1190 529 1183 478 1192 501 b 1019 640 1185 628 1104 640 z "},"―":{"ha":0,"x_min":0,"x_max":0,"o":"m 1019 640 b 900 642 1006 640 963 642 b 535 644 760 643 693 644 b 346 643 444 644 364 644 b 206 513 261 638 206 586 b 340 411 206 476 224 417 b 706 407 385 410 486 407 b 1007 410 790 407 967 407 b 1168 460 1067 413 1133 422 b 1190 529 1183 478 1192 501 b 1019 640 1185 628 1104 640 z "},"‐":{"ha":0,"x_min":0,"x_max":0,"o":"m 546 474 b 869 475 601 474 808 458 b 964 581 946 478 968 538 b 836 657 960 625 899 657 b 535 657 775 657 629 651 b 415 546 463 654 414 600 b 546 474 431 488 474 474 z "},"／":{"ha":0,"x_min":0,"x_max":0,"o":"m 1260 958 b 1256 1058 1289 993 1288 1035 b 1165 1036 1224 1082 1192 1061 b 178 96 1149 1022 264 188 b 131 46 154 71 136 51 b 126 -50 103 17 100 -25 b 213 -42 143 -67 172 -78 b 1260 958 236 -19 1233 928 z "},"＼":{"ha":0,"x_min":0,"x_max":0,"o":"m 129 958 b 1176 -42 156 928 1153 -19 b 1263 -50 1217 -78 1246 -67 b 1258 46 1289 -25 1286 17 b 1211 96 1253 51 1235 71 b 224 1036 1125 188 240 1022 b 133 1058 197 1061 165 1082 b 129 958 101 1035 100 993 z "},"∼":{"ha":0,"x_min":0,"x_max":0,"o":"m 1238 557 b 1124 629 1229 603 1176 636 b 1068 618 1104 626 1086 622 b 943 597 1036 610 999 601 b 729 663 890 593 808 628 b 588 717 682 682 632 703 b 472 732 553 726 514 732 b 253 679 381 732 296 706 b 167 500 197 644 114 593 b 347 492 200 440 268 436 b 496 514 365 504 429 517 b 694 457 556 513 626 485 b 779 425 719 447 750 435 b 969 390 844 403 908 390 b 1122 415 1022 390 1074 399 b 1238 557 1214 447 1246 511 z "},"‖":{"ha":0,"x_min":0,"x_max":0,"o":"m 653 1008 b 544 1111 649 1075 604 1119 b 468 994 485 1104 472 1047 b 468 100 465 961 468 290 b 469 -1 469 49 469 10 b 564 -111 469 -62 511 -111 b 649 -12 600 -111 643 -94 b 653 1008 651 36 657 946 z m 921 1008 b 813 1111 917 1075 872 1119 b 736 994 753 1104 740 1047 b 736 100 733 961 736 290 b 738 -1 738 49 738 10 b 832 -111 738 -64 779 -111 b 917 -12 868 -111 911 -94 b 921 1008 921 36 925 946 z "},"｜":{"ha":0,"x_min":0,"x_max":0,"o":"m 790 996 b 682 1100 786 1063 742 1108 b 606 982 624 1092 610 1036 b 607 89 603 949 606 278 b 607 -14 607 36 607 -1 b 701 -124 607 -75 649 -124 b 786 -25 738 -124 782 -106 b 790 996 790 24 794 935 z "},"…":{"ha":0,"x_min":0,"x_max":0,"o":"m 269 463 b 381 569 332 458 381 517 b 288 686 381 624 358 674 b 160 575 215 700 154 624 b 269 463 164 525 193 468 z m 694 463 b 806 569 757 458 806 517 b 711 686 806 624 783 674 b 583 575 640 700 579 624 b 694 463 589 525 618 468 z m 1118 463 b 1231 569 1181 458 1231 517 b 1136 686 1231 624 1208 674 b 1008 575 1065 700 1004 624 b 1118 463 1013 525 1043 468 z "},"‥":{"ha":0,"x_min":0,"x_max":0,"o":"m 339 463 b 450 569 401 458 450 517 b 357 686 450 624 429 674 b 229 575 286 700 225 624 b 339 463 233 525 263 468 z m 1021 463 b 1132 569 1083 458 1132 517 b 1039 686 1132 624 1110 674 b 911 575 967 700 906 624 b 1021 463 915 525 944 468 z "},"‘":{"ha":0,"x_min":0,"x_max":0,"o":"m 1218 972 b 1194 1004 1200 976 1188 988 b 1213 1029 1197 1011 1204 1015 b 1200 1081 1229 1054 1218 1072 b 1122 1039 1183 1089 1151 1076 b 1078 874 1093 1001 1074 929 b 1200 761 1082 817 1135 760 b 1299 907 1272 765 1317 843 b 1218 972 1288 947 1247 965 z "},"’":{"ha":0,"x_min":0,"x_max":0,"o":"m 172 874 b 196 840 190 868 203 857 b 178 817 193 833 188 829 b 190 764 161 790 172 772 b 268 806 207 756 239 768 b 313 972 297 844 317 915 b 192 1083 308 1028 256 1086 b 92 938 118 1081 75 1003 b 172 874 103 897 143 881 z "},"“":{"ha":0,"x_min":0,"x_max":0,"o":"m 918 972 b 894 1004 900 976 888 988 b 913 1029 897 1011 904 1015 b 901 1081 929 1054 918 1072 b 824 1039 883 1089 851 1076 b 778 874 793 1001 774 929 b 900 761 783 817 835 760 b 999 907 974 765 1017 843 b 918 972 989 947 947 965 z m 1204 972 b 1181 1004 1186 976 1174 988 b 1199 1029 1183 1011 1189 1015 b 1186 1081 1215 1054 1204 1072 b 1108 1039 1169 1089 1138 1076 b 1064 874 1079 1001 1060 929 b 1185 761 1068 817 1121 760 b 1285 907 1258 765 1301 843 b 1204 972 1274 947 1233 965 z "},"”":{"ha":0,"x_min":0,"x_max":0,"o":"m 453 874 b 476 840 471 868 483 857 b 458 817 474 833 467 829 b 469 764 440 790 453 772 b 547 806 488 756 518 768 b 592 972 576 844 597 915 b 471 1083 588 1028 536 1086 b 372 938 397 1081 354 1003 b 453 874 382 897 424 881 z m 167 874 b 190 840 185 868 197 857 b 172 817 188 833 181 829 b 185 764 156 790 167 772 b 263 806 201 756 233 768 b 307 972 292 844 311 915 b 186 1083 303 1028 250 1086 b 86 938 113 1081 68 1003 b 167 874 97 897 138 881 z "},"（":{"ha":0,"x_min":0,"x_max":0,"o":"m 1229 940 b 1263 1088 1282 1000 1293 1056 b 1093 1064 1221 1129 1160 1128 b 889 499 1026 1000 882 803 b 1132 -49 897 175 1068 1 b 1276 -51 1196 -97 1250 -75 b 1263 88 1303 -28 1308 18 b 1083 522 1215 157 1081 300 b 1229 940 1088 746 1189 896 z "},"）":{"ha":0,"x_min":0,"x_max":0,"o":"m 153 940 b 299 522 193 896 294 746 b 121 88 301 300 167 157 b 106 -51 74 18 79 -28 b 250 -49 132 -75 186 -97 b 493 499 315 1 485 175 b 289 1064 501 803 356 1000 b 119 1088 222 1128 161 1129 b 153 940 89 1056 100 1000 z "},"〔":{"ha":0,"x_min":0,"x_max":0,"o":"m 847 931 b 840 117 851 865 847 183 b 946 11 849 43 901 31 b 1197 -60 997 -10 1133 -46 b 1235 103 1281 -79 1325 68 b 1075 161 1208 113 1131 142 b 1014 274 1039 175 1014 197 b 1011 475 1014 333 1014 411 b 1017 801 1008 557 1013 708 b 1092 899 1019 865 1051 888 b 1199 931 1126 910 1168 921 b 1286 1019 1258 949 1282 969 b 1208 1108 1289 1067 1246 1113 b 954 1053 1154 1101 1018 1071 b 847 931 899 1039 842 1013 z "},"〕":{"ha":0,"x_min":0,"x_max":0,"o":"m 529 931 b 424 1053 535 1013 478 1039 b 168 1108 358 1071 222 1101 b 92 1019 131 1113 88 1067 b 179 931 94 969 118 949 b 285 899 208 921 250 910 b 360 801 325 888 357 865 b 365 475 364 708 368 557 b 363 274 363 411 363 333 b 301 161 363 197 338 175 b 143 103 246 142 168 113 b 179 -60 51 68 96 -79 b 431 11 243 -46 379 -10 b 536 117 475 31 528 43 b 529 931 558 182 525 865 z "},"［":{"ha":0,"x_min":0,"x_max":0,"o":"m 878 1003 b 876 36 882 938 869 110 b 983 -62 885 -37 938 -76 b 1196 -61 1032 -67 1131 -65 b 1274 25 1261 -57 1297 -25 b 1213 103 1274 61 1257 99 b 1143 107 1196 104 1169 106 b 1050 201 1097 108 1050 149 b 1049 401 1051 260 1050 338 b 1054 858 1046 486 1051 722 b 1146 961 1056 918 1103 960 b 1186 961 1161 961 1175 961 b 1274 1036 1236 961 1269 985 b 1211 1124 1278 1083 1271 1121 b 983 1125 1174 1124 1040 1125 b 878 1003 926 1125 872 1085 z "},"］":{"ha":0,"x_min":0,"x_max":0,"o":"m 500 1003 b 393 1125 506 1085 451 1125 b 167 1124 336 1125 203 1124 b 103 1036 136 1121 100 1083 b 190 961 107 985 142 961 b 231 961 203 961 217 961 b 322 858 274 960 321 918 b 329 401 326 722 332 486 b 326 201 326 338 326 260 b 235 107 326 149 281 108 b 165 103 208 106 182 104 b 104 25 121 99 104 61 b 182 -61 110 -25 117 -57 b 394 -62 265 -75 344 -67 b 500 36 446 -76 492 -37 b 500 1003 511 94 496 938 z "},"｛":{"ha":0,"x_min":0,"x_max":0,"o":"m 1251 981 b 1285 1040 1271 996 1283 1018 b 1272 1085 1286 1058 1282 1074 b 1213 1107 1261 1099 1238 1107 b 1090 1044 1188 1107 1138 1099 b 1057 739 1014 960 1046 789 b 1029 603 1069 683 1049 617 b 971 476 983 569 964 526 b 1010 403 975 446 993 424 b 1043 342 1025 383 1039 364 b 1040 251 1047 321 1044 286 b 1043 88 1036 199 1031 138 b 1199 -93 1064 4 1136 -93 b 1258 -69 1225 -93 1246 -85 b 1274 -12 1272 -56 1276 -36 b 1242 42 1271 10 1257 25 b 1196 100 1229 56 1214 72 b 1183 265 1174 135 1179 204 b 1185 365 1185 303 1188 336 b 1154 460 1182 403 1168 435 b 1157 533 1146 475 1133 503 b 1199 631 1178 558 1193 594 b 1196 793 1206 681 1200 740 b 1190 871 1193 822 1190 850 b 1251 981 1190 918 1229 963 z "},"｝":{"ha":0,"x_min":0,"x_max":0,"o":"m 126 981 b 188 871 149 963 188 918 b 183 793 188 850 185 822 b 179 631 178 740 172 681 b 221 533 185 594 201 558 b 224 460 244 503 232 475 b 193 365 210 435 196 403 b 194 265 190 336 193 303 b 182 100 200 204 204 135 b 136 42 164 72 149 56 b 104 -12 121 25 107 10 b 119 -69 101 -36 106 -56 b 179 -93 132 -85 153 -93 b 335 88 242 -93 314 4 b 338 251 347 138 342 199 b 335 342 333 286 331 321 b 368 403 339 364 353 383 b 407 476 385 424 403 446 b 349 603 415 526 394 569 b 321 739 329 617 308 683 b 289 1044 332 789 364 960 b 167 1107 240 1099 190 1107 b 106 1085 140 1107 117 1099 b 93 1040 96 1074 92 1058 b 126 981 96 1018 107 996 z "},"〈":{"ha":0,"x_min":0,"x_max":0,"o":"m 1053 68 b 947 208 1042 88 1007 132 b 765 446 886 285 813 376 b 757 542 733 492 751 533 b 925 771 796 597 864 689 b 1046 935 978 842 1024 904 b 1053 1040 1068 967 1071 1007 b 965 1094 1036 1072 1001 1094 b 882 1049 933 1094 903 1078 l 875 1038 b 560 613 686 804 599 676 b 569 381 492 501 544 419 b 892 -46 664 233 854 0 b 974 -87 914 -72 943 -87 b 1058 -37 1008 -87 1040 -68 b 1053 68 1076 -6 1074 35 z "},"〉":{"ha":0,"x_min":0,"x_max":0,"o":"m 322 68 b 318 -37 301 35 300 -6 b 403 -87 335 -68 368 -87 b 485 -46 433 -87 463 -72 b 807 381 522 0 713 233 b 817 613 832 419 885 501 b 501 1038 778 676 690 804 l 493 1049 b 411 1094 474 1078 443 1094 b 324 1040 375 1094 340 1072 b 331 935 306 1007 308 967 b 451 771 351 904 397 842 b 618 542 513 689 581 597 b 611 446 624 533 643 492 b 429 208 564 376 490 285 b 322 68 369 132 335 88 z "},"《":{"ha":0,"x_min":0,"x_max":0,"o":"m 1024 1003 b 933 1064 1065 1064 978 1132 b 583 593 931 1060 689 765 b 594 399 532 508 561 449 b 940 -60 697 239 908 -19 b 1031 3 992 -121 1069 -61 b 690 450 1000 51 774 324 b 693 551 669 483 668 511 b 1024 1003 756 646 969 924 z m 1257 1003 b 1167 1064 1299 1064 1211 1132 b 818 593 1164 1060 922 765 b 828 399 765 508 794 449 b 1175 -60 931 239 1142 -19 b 1264 3 1225 -121 1303 -61 b 924 450 1233 51 1007 324 b 926 551 903 483 901 511 b 1257 1003 989 646 1203 924 z "},"》":{"ha":0,"x_min":0,"x_max":0,"o":"m 353 1003 b 682 551 407 924 621 646 b 685 450 708 511 707 483 b 346 3 603 324 376 51 b 435 -60 307 -61 385 -121 b 782 399 468 -19 679 239 b 792 593 814 449 844 508 b 443 1064 688 765 446 1060 b 353 1003 397 1132 311 1064 z m 119 1003 b 449 551 174 924 388 646 b 451 450 475 511 474 483 b 113 3 369 324 143 51 b 201 -60 74 -61 151 -121 b 549 399 235 -19 446 239 b 558 593 581 449 610 508 b 210 1064 454 765 213 1060 b 119 1003 164 1132 78 1064 z "},"「":{"ha":0,"x_min":0,"x_max":0,"o":"m 908 819 b 986 913 908 876 942 913 b 1165 917 1042 914 1114 917 b 1283 997 1242 919 1283 964 b 1203 1094 1283 1039 1258 1088 b 858 1101 1121 1104 958 1099 b 719 976 776 1101 719 1039 b 726 13 719 915 719 74 b 813 -72 733 -50 771 -72 b 901 17 854 -72 901 -44 b 908 819 901 67 906 603 z "},"」":{"ha":0,"x_min":0,"x_max":0,"o":"m 481 208 b 403 115 481 153 447 117 b 224 111 347 114 275 113 b 106 31 147 110 106 65 b 186 -65 106 -10 131 -58 b 531 -72 268 -75 449 -97 b 669 51 613 -72 669 -10 b 663 1017 669 114 669 954 b 576 1101 656 1079 618 1101 b 488 1013 535 1101 488 1074 b 481 208 488 963 483 426 z "},"『":{"ha":0,"x_min":0,"x_max":0,"o":"m 1203 1094 b 988 1101 1153 1100 1067 1101 b 858 1101 938 1101 890 1101 b 719 976 776 1101 719 1039 b 726 13 719 915 719 74 b 813 -72 733 -50 771 -72 b 901 17 865 -74 901 -44 b 908 911 922 57 908 911 b 1165 917 911 889 1072 915 b 1283 997 1242 919 1283 964 b 1203 1094 1283 1039 1258 1088 z m 1164 978 b 907 972 1071 976 907 972 b 847 911 874 971 847 944 b 840 17 847 878 840 78 b 813 -11 840 -8 824 -11 b 786 19 801 -11 790 -11 b 781 976 782 60 781 529 b 858 1040 781 1003 807 1040 b 910 1040 874 1040 890 1040 b 988 1040 933 1040 960 1040 b 1196 1033 1025 1040 1139 1040 b 1222 1000 1218 1031 1221 1008 b 1164 978 1218 994 1201 979 z "},"』":{"ha":0,"x_min":0,"x_max":0,"o":"m 663 1017 b 576 1101 656 1079 618 1101 b 488 1013 535 1101 488 1074 b 481 118 508 944 481 118 b 224 111 494 113 317 114 b 106 31 147 110 106 65 b 186 -65 106 -10 131 -58 b 401 -72 236 -71 322 -72 b 531 -72 451 -72 499 -72 b 669 51 613 -72 669 -10 b 663 1017 669 114 669 956 z m 531 -11 b 479 -11 515 -11 499 -11 b 401 -11 456 -11 429 -11 b 193 -4 364 -11 250 -11 b 167 28 171 -1 168 21 b 225 50 171 35 188 50 b 482 57 318 53 482 57 b 542 118 515 57 542 85 b 549 1013 542 151 549 950 b 576 1040 549 1036 565 1040 b 603 1010 588 1040 599 1040 b 608 51 607 969 608 500 b 531 -11 608 25 582 -11 z "},"【":{"ha":0,"x_min":0,"x_max":0,"o":"m 878 1003 b 876 36 882 938 869 110 b 983 -62 885 -37 938 -76 b 1196 -61 1032 -67 1131 -65 b 1274 25 1261 -57 1283 -11 b 1049 532 1254 92 1068 131 b 1274 1036 1049 928 1247 974 b 1211 1124 1293 1079 1271 1121 b 983 1125 1174 1124 1040 1125 b 878 1003 926 1125 872 1085 z "},"】":{"ha":0,"x_min":0,"x_max":0,"o":"m 501 1003 b 396 1125 507 1085 453 1125 b 168 1124 338 1125 204 1124 b 104 1036 139 1121 86 1079 b 331 532 131 974 331 928 b 106 25 342 131 125 92 b 183 -61 96 -11 118 -57 b 396 -62 268 -75 347 -67 b 501 36 449 -76 493 -37 b 501 1003 514 94 497 938 z "},"＋":{"ha":0,"x_min":0,"x_max":0,"o":"m 1008 628 b 919 629 999 628 965 629 b 863 629 903 629 883 629 b 788 696 793 628 788 675 b 786 911 788 804 788 890 b 678 1015 782 979 738 1024 b 601 897 619 1008 606 951 b 600 707 600 883 600 806 b 528 631 600 682 581 625 b 497 631 518 632 507 631 b 356 629 429 631 369 631 b 250 532 292 625 250 588 b 351 456 250 504 263 460 b 536 453 369 454 444 453 b 601 382 588 454 601 404 b 603 282 601 346 601 311 b 603 181 603 229 603 192 b 697 71 603 118 644 71 b 782 168 733 71 778 88 b 786 381 783 185 785 272 b 858 453 786 403 804 454 b 1000 454 918 451 981 453 b 1121 492 1044 457 1094 463 b 1138 544 1133 506 1139 524 b 1008 628 1133 618 1074 628 z "},"−":{"ha":0,"x_min":0,"x_max":0,"o":"m 1008 628 b 919 629 999 628 965 629 b 497 631 814 629 617 631 b 356 629 429 631 369 631 b 250 532 292 625 250 588 b 351 456 250 504 263 460 b 772 453 385 454 607 453 b 1000 454 838 453 969 453 b 1121 492 1044 457 1094 463 b 1138 544 1133 506 1139 524 b 1008 628 1133 618 1074 628 z "},"±":{"ha":0,"x_min":0,"x_max":0,"o":"m 1008 746 b 919 747 999 746 965 747 b 872 747 906 747 889 747 b 788 835 781 751 788 810 b 786 932 788 882 788 918 b 678 1036 782 1000 738 1044 b 601 918 618 1029 606 972 b 600 832 600 907 600 875 b 517 749 600 807 599 749 b 356 749 449 750 369 749 b 250 650 292 743 250 706 b 351 574 250 622 263 578 b 522 571 368 572 438 571 b 601 497 593 571 601 522 b 603 396 603 444 603 407 b 697 286 603 333 644 286 b 782 383 733 286 776 303 b 785 500 783 397 785 442 b 860 571 785 522 796 571 b 1000 572 918 569 981 571 b 1121 610 1044 575 1094 582 b 1138 663 1133 624 1139 642 b 1008 746 1133 736 1072 746 z m 1008 225 b 919 225 999 225 965 225 b 497 228 814 226 617 228 b 356 226 429 228 369 228 b 250 128 292 222 250 183 b 351 51 250 101 263 56 b 772 49 385 50 607 49 b 1000 51 836 49 969 49 b 1121 89 1044 53 1094 60 b 1138 142 1133 103 1139 119 b 1008 225 1133 215 1072 225 z "},"×":{"ha":0,"x_min":0,"x_max":0,"o":"m 949 417 b 875 489 929 436 904 461 b 879 590 860 506 836 550 b 1033 746 958 667 1019 729 b 1031 894 1078 796 1078 858 b 893 865 983 932 935 901 b 744 722 882 857 821 797 b 638 724 728 706 676 685 b 617 744 631 731 624 738 b 488 878 569 792 499 869 b 343 883 439 921 383 922 b 361 758 325 865 301 824 b 513 600 374 744 439 678 b 514 493 554 556 531 510 b 444 424 489 468 464 443 b 365 344 407 386 374 351 b 354 199 322 300 317 236 b 485 208 381 174 424 156 b 640 357 497 219 561 281 b 757 354 676 393 733 376 b 882 236 808 304 867 249 b 994 178 915 206 956 175 b 1043 203 1013 178 1029 186 b 1011 353 1092 258 1057 307 b 949 417 1004 360 981 383 z "},"÷":{"ha":0,"x_min":0,"x_max":0,"o":"m 693 764 b 804 872 756 760 804 818 b 711 988 804 925 783 975 b 583 876 639 1001 579 925 b 693 764 588 826 617 769 z m 693 96 b 804 203 756 92 804 150 b 711 319 804 257 782 306 b 583 207 639 333 579 257 b 693 96 588 158 617 101 z m 1008 628 b 919 629 999 628 965 629 b 497 631 814 629 617 631 b 356 629 429 631 369 631 b 250 532 292 625 250 588 b 351 456 250 504 263 460 b 772 453 385 454 607 453 b 1000 454 838 453 969 453 b 1121 492 1044 457 1094 463 b 1138 544 1133 506 1139 524 b 1008 628 1133 618 1074 628 z "},"＝":{"ha":0,"x_min":0,"x_max":0,"o":"m 421 643 b 971 647 469 639 914 633 b 1086 744 1033 647 1094 679 b 983 831 1086 801 1061 801 b 404 831 922 835 490 826 b 296 719 339 826 288 785 b 421 643 303 671 339 649 z m 953 433 b 399 435 901 433 463 439 b 286 333 333 431 286 393 b 393 257 286 285 325 260 b 940 256 457 254 864 251 b 1090 347 1018 260 1094 274 b 953 433 1086 419 1029 433 z "},"≠":{"ha":0,"x_min":0,"x_max":0,"o":"m 953 433 b 819 435 936 433 885 433 b 782 497 757 435 769 476 b 803 533 789 510 796 521 b 843 603 813 549 828 574 b 935 647 868 650 917 647 b 971 647 951 647 964 647 b 1086 744 1033 647 1086 688 b 1025 824 1086 788 1063 813 b 988 882 1013 826 972 843 b 989 943 996 903 994 924 b 950 988 983 963 969 978 b 799 915 878 1025 835 975 b 660 833 793 906 779 831 b 404 831 543 836 435 832 b 296 719 339 826 288 785 b 421 643 303 671 339 649 b 568 642 438 642 494 640 b 599 579 619 643 611 600 b 550 494 582 550 565 522 b 451 436 538 474 522 435 b 399 435 426 436 408 435 b 286 333 333 431 286 393 b 347 264 286 297 308 272 b 388 210 403 251 392 219 b 433 103 375 164 392 128 b 569 147 458 88 515 67 b 603 201 575 156 586 175 b 708 253 613 217 635 251 b 940 256 811 256 907 254 b 1090 347 1018 260 1094 274 b 953 433 1086 419 1029 433 z "},"＜":{"ha":0,"x_min":0,"x_max":0,"o":"m 969 808 b 1088 911 1024 840 1079 871 b 1025 1004 1094 943 1069 989 b 996 1010 1017 1008 1007 1010 b 850 958 957 1010 903 990 l 825 943 b 385 661 732 886 450 714 l 379 657 b 283 543 339 625 293 589 b 335 432 269 489 296 463 b 765 176 378 397 621 260 b 850 129 803 156 833 139 b 1000 74 931 82 965 74 b 1082 154 1038 74 1082 111 l 1082 156 b 1004 269 1082 196 1082 228 b 619 474 953 297 749 406 b 608 589 567 501 561 560 b 960 803 728 663 921 781 z "},"＞":{"ha":0,"x_min":0,"x_max":0,"o":"m 424 808 l 435 803 b 786 589 472 781 665 663 b 774 474 832 560 826 501 b 390 269 644 406 442 297 b 311 156 311 228 311 196 l 311 154 b 393 74 311 111 357 74 b 544 129 429 74 463 82 b 628 176 561 139 590 156 b 1060 432 774 260 1017 397 b 1111 543 1097 463 1124 489 b 1014 657 1100 589 1054 625 l 1008 661 b 568 943 943 714 661 886 l 543 958 b 399 1010 492 990 438 1010 b 368 1004 388 1010 376 1008 b 306 911 324 989 300 943 b 424 808 314 871 369 840 z "},"≦":{"ha":0,"x_min":0,"x_max":0,"o":"m 1040 181 b 968 181 1032 181 1006 181 l 951 181 b 754 183 904 181 832 182 b 481 188 653 186 547 188 b 338 186 404 188 350 188 b 221 94 267 183 221 147 b 333 21 221 68 235 24 b 735 13 336 21 557 13 b 1032 14 761 13 999 13 b 1160 47 1079 17 1132 22 b 1181 100 1175 61 1182 79 b 1040 181 1175 181 1083 181 z m 1185 432 b 1086 529 1185 474 1158 500 b 722 650 1047 546 875 601 b 490 725 628 681 538 710 b 1065 897 590 758 897 849 b 1182 974 1138 918 1176 943 b 1174 1044 1186 990 1190 1021 b 1125 1072 1164 1060 1147 1069 b 947 1042 1079 1079 1015 1061 b 885 1024 926 1035 906 1029 b 332 849 807 1003 381 869 b 210 736 289 829 219 799 b 265 633 201 682 232 656 b 874 426 310 606 801 449 b 872 393 900 418 892 393 b 754 396 831 393 807 394 b 481 400 653 397 547 400 b 338 399 404 400 350 400 b 221 307 267 394 221 358 b 333 232 221 281 235 236 b 735 225 336 232 557 225 b 1032 226 761 225 999 225 b 1160 260 1079 228 1132 233 b 1181 313 1175 274 1182 292 b 1178 332 1181 319 1179 326 b 1179 403 1172 349 1164 374 b 1185 432 1183 411 1185 421 z "},"≧":{"ha":0,"x_min":0,"x_max":0,"o":"m 361 181 b 221 100 318 181 226 181 b 242 47 219 79 226 61 b 371 14 269 22 322 17 b 667 13 403 13 640 13 b 1068 21 846 13 1067 21 b 1182 94 1167 24 1182 68 b 1064 186 1182 147 1136 183 b 921 188 1051 188 999 188 b 647 183 854 188 749 186 b 451 181 569 182 497 181 l 433 181 b 361 181 397 181 371 181 z m 218 431 b 224 403 218 421 219 411 b 225 332 239 374 229 349 b 221 313 222 326 221 319 b 242 260 219 292 226 274 b 371 226 269 233 322 228 b 667 224 403 225 640 224 b 1068 232 846 224 1067 232 b 1182 307 1167 236 1182 281 b 1064 399 1182 358 1136 394 b 921 400 1051 399 999 400 b 647 396 854 400 749 397 b 529 393 594 394 571 393 b 528 426 510 393 501 418 b 1136 633 600 449 1092 606 b 1192 736 1169 656 1200 682 b 1071 849 1182 799 1113 829 b 518 1024 1022 869 594 1003 b 454 1042 496 1029 475 1035 b 276 1072 386 1061 324 1079 b 228 1044 254 1069 239 1060 b 219 974 211 1021 215 990 b 336 897 226 943 264 918 b 911 725 506 849 811 758 b 679 650 864 708 774 681 b 315 529 526 601 354 546 b 218 431 244 500 218 474 z "},"∞":{"ha":0,"x_min":0,"x_max":0,"o":"m 750 749 b 649 754 719 722 682 726 b 510 819 615 782 568 813 b 228 704 400 833 311 810 b 196 339 142 594 156 438 b 500 188 243 225 369 163 b 639 253 556 199 604 228 b 753 244 674 279 717 274 b 832 196 775 226 801 208 b 1151 260 924 157 1063 169 b 1189 650 1225 333 1253 524 b 896 811 1118 789 1003 813 b 750 749 838 810 786 778 z m 557 418 b 433 381 524 381 482 372 b 347 496 371 390 346 463 b 451 618 349 529 368 611 b 575 547 535 625 567 572 b 557 418 589 507 586 449 z m 1021 418 b 896 381 986 381 944 372 b 810 496 833 390 810 463 b 914 618 811 529 831 611 b 1039 547 997 625 1029 572 b 1021 418 1053 507 1049 449 z "},"∴":{"ha":0,"x_min":0,"x_max":0,"o":"m 694 758 b 806 865 757 753 806 811 b 711 982 806 919 783 968 b 583 869 640 994 579 919 b 694 758 589 821 618 763 z m 310 60 b 421 167 372 56 421 114 b 328 283 421 221 400 271 b 200 172 257 297 196 221 b 310 60 204 122 233 65 z m 1078 60 b 1189 167 1140 56 1189 114 b 1096 283 1189 221 1167 271 b 968 172 1024 297 964 221 b 1078 60 972 122 1001 65 z "},"♂":{"ha":0,"x_min":0,"x_max":0,"o":"m 1172 651 l 1082 971 b 978 1031 1069 1017 1022 1043 l 657 944 b 596 839 611 932 583 885 b 701 779 608 793 656 767 l 763 796 b 785 768 763 796 808 807 b 758 722 778 757 769 742 b 713 644 747 704 731 675 b 625 604 703 628 676 601 b 279 447 489 611 342 558 b 379 -22 200 307 199 100 b 404 -37 388 -28 396 -33 b 679 -61 486 -83 585 -92 b 874 100 768 -32 843 31 b 876 449 936 236 932 353 b 864 550 844 501 853 532 b 935 674 885 585 908 626 b 946 692 939 679 943 685 b 986 681 968 740 986 681 l 1007 606 b 1047 554 1013 582 1028 564 b 1113 546 1067 543 1089 539 b 1172 651 1158 558 1185 606 z m 714 178 b 490 126 679 117 569 81 b 474 136 485 129 479 132 b 436 343 400 193 401 281 b 525 414 453 371 488 399 b 651 408 557 426 604 435 l 653 408 b 667 399 657 406 663 401 b 714 178 750 336 751 243 z "},"♀":{"ha":0,"x_min":0,"x_max":0,"o":"m 958 324 b 875 324 947 324 922 325 b 826 392 786 324 793 375 b 1039 694 944 451 1039 571 b 721 1054 1039 854 940 1036 b 693 1056 713 1054 703 1056 b 442 940 599 1056 510 1014 b 350 706 378 871 343 781 b 563 382 365 536 440 431 b 563 326 615 360 581 326 b 408 325 493 326 415 325 b 303 226 344 321 303 282 b 404 150 303 200 315 154 b 557 149 425 150 479 149 b 606 93 572 149 608 136 b 607 26 603 64 607 38 b 644 -94 610 -19 615 -69 b 697 -111 658 -107 676 -112 b 781 18 771 -107 781 -47 b 782 107 781 28 783 60 b 836 147 781 149 818 147 b 949 150 885 149 932 149 b 1069 188 994 151 1044 158 b 1086 240 1082 201 1088 218 b 958 324 1082 314 1022 324 z m 528 715 b 699 871 528 785 607 871 b 717 869 704 871 711 871 b 851 708 810 856 851 779 b 808 603 851 675 835 633 b 696 544 786 576 750 544 b 696 544 696 544 696 544 b 678 546 689 544 683 546 b 528 715 575 560 528 640 z "},"°":{"ha":0,"x_min":0,"x_max":0,"o":"m 272 719 b 461 889 371 713 481 796 b 300 1071 461 972 413 1050 b 113 896 188 1092 106 972 b 272 719 119 818 153 729 z m 338 903 b 278 846 338 879 315 842 b 226 904 244 850 231 853 b 292 958 226 933 258 963 b 338 903 324 954 338 926 z "},"′":{"ha":0,"x_min":0,"x_max":0,"o":"m 249 1025 b 150 868 221 992 172 925 b 232 782 118 789 192 750 b 386 921 276 815 350 874 b 369 1064 422 968 419 1038 b 249 1025 321 1089 288 1071 z "},"″":{"ha":0,"x_min":0,"x_max":0,"o":"m 238 1025 b 138 868 208 992 161 925 b 221 782 106 789 181 750 b 375 921 264 815 339 874 b 358 1064 411 968 408 1038 b 238 1025 310 1089 276 1071 z m 488 1025 b 388 868 458 992 411 925 b 471 782 356 789 431 750 b 625 921 514 815 589 874 b 608 1064 661 968 658 1038 b 488 1025 560 1089 526 1071 z "},"℃":{"ha":0,"x_min":0,"x_max":0,"o":"m 268 754 b 444 910 360 747 444 832 b 294 1079 444 989 399 1060 b 121 917 190 1099 114 989 b 268 754 128 844 158 761 z m 329 924 b 274 871 329 901 308 867 b 225 925 243 875 231 894 b 286 975 225 951 256 979 b 329 924 317 971 329 944 z m 1083 267 b 1008 254 1060 267 1035 261 b 946 243 988 250 967 246 b 914 242 936 243 925 242 b 713 299 851 242 761 260 b 613 558 636 361 604 443 b 800 789 619 681 726 771 b 878 799 825 794 851 799 b 1025 760 933 799 985 785 b 1113 732 1054 742 1085 732 b 1183 764 1142 732 1168 743 b 1186 910 1210 797 1231 840 b 838 1049 1143 976 999 1049 b 821 1049 832 1049 826 1049 b 367 594 661 1043 408 918 b 613 58 325 260 524 108 b 903 3 675 24 783 3 b 1093 29 982 3 1053 13 b 1192 124 1147 51 1182 86 b 1168 224 1201 157 1193 192 b 1083 267 1146 253 1119 267 z "},"￥":{"ha":0,"x_min":0,"x_max":0,"o":"m 1139 982 b 1093 1042 1133 1007 1117 1028 b 1043 1056 1078 1050 1061 1056 b 919 979 981 1056 933 997 b 761 799 900 951 817 860 b 664 804 740 776 686 781 b 478 1010 600 874 503 979 b 369 1058 449 1046 401 1058 b 317 1040 347 1058 328 1051 b 296 894 276 1000 268 949 b 372 796 314 858 340 831 b 415 749 386 782 400 765 b 517 629 442 718 483 671 b 488 576 544 596 506 576 b 425 544 468 576 444 564 b 396 478 406 524 394 501 b 492 390 397 429 439 390 b 543 390 506 390 525 390 b 603 365 567 390 603 393 b 540 347 618 338 565 347 b 475 346 511 347 489 347 b 393 258 421 340 393 297 b 472 183 393 215 426 183 b 542 182 488 183 515 182 b 601 124 565 181 599 167 b 604 83 603 111 603 97 b 701 -12 608 26 649 -12 b 707 -12 703 -12 706 -12 b 808 86 786 -8 804 31 b 810 126 810 101 811 115 b 868 181 807 179 844 181 b 919 181 885 181 901 181 b 1014 267 981 181 1014 225 b 928 346 1014 303 985 342 b 860 347 911 347 885 347 b 808 369 839 347 808 344 b 863 390 832 393 840 390 b 882 390 869 390 875 390 b 935 392 903 390 921 390 b 1014 482 993 396 1014 443 b 944 567 1014 529 989 560 b 883 571 928 569 908 571 b 885 615 876 571 853 581 b 983 732 922 656 963 708 b 1038 796 999 751 1018 774 b 1117 890 1069 832 1101 869 b 1139 982 1136 918 1144 951 z "},"＄":{"ha":0,"x_min":0,"x_max":0,"o":"m 790 624 b 792 724 790 657 792 690 b 792 746 792 731 792 738 b 842 767 792 793 828 778 b 889 735 856 754 869 743 b 1008 804 936 715 1008 739 b 851 972 1008 858 967 932 b 765 1051 796 993 782 1033 b 708 1078 749 1068 729 1078 b 635 1043 683 1078 653 1064 b 563 979 621 1028 597 989 b 440 913 521 969 478 946 b 379 629 361 843 335 724 b 557 464 413 558 471 518 b 607 376 601 438 607 397 b 607 307 607 354 607 331 b 542 278 603 242 553 272 b 453 310 513 294 481 310 b 397 290 433 310 415 303 b 356 218 363 265 356 236 b 399 135 354 188 371 157 l 407 129 b 560 44 444 99 489 67 b 632 -10 597 33 621 1 b 657 -28 639 -18 647 -24 b 690 -35 667 -33 678 -35 b 767 8 715 -35 751 -24 b 828 46 768 13 783 33 b 1018 253 935 76 999 146 b 842 525 1039 369 944 461 b 790 624 825 535 792 558 z m 557 733 b 585 781 563 754 571 769 b 613 758 606 799 613 772 b 611 686 613 736 613 711 b 578 674 610 658 588 664 b 557 733 558 694 551 715 z m 824 256 b 786 265 815 239 785 221 b 788 314 788 293 788 313 b 831 307 788 354 825 324 b 824 256 836 292 833 275 z "},"￠":{"ha":0,"x_min":0,"x_max":0,"o":""},"￡":{"ha":0,"x_min":0,"x_max":0,"o":""},"％":{"ha":0,"x_min":0,"x_max":0,"o":"m 1093 982 b 1035 1013 1078 1001 1057 1013 b 924 946 999 1013 958 988 b 856 864 910 928 885 899 b 672 644 797 796 717 703 b 494 424 640 603 567 513 b 301 183 411 322 325 215 b 282 40 260 126 251 67 b 353 15 297 28 324 15 b 418 42 378 15 400 24 b 599 251 465 88 539 178 l 617 275 b 768 457 639 301 699 374 b 1078 833 899 613 1060 807 l 1079 836 b 1093 982 1106 876 1139 926 z m 611 939 b 424 1033 578 986 503 1033 b 331 1010 390 1033 360 1025 b 207 724 218 949 183 817 b 424 567 231 629 306 574 b 439 565 429 565 435 565 b 629 683 533 565 604 626 b 611 939 667 764 658 871 z m 486 772 b 425 733 482 758 467 733 b 382 753 408 733 393 740 b 367 818 367 772 363 800 b 438 860 371 840 406 860 b 471 850 450 860 463 857 b 486 772 489 835 496 800 z m 1172 308 b 963 471 1136 407 1054 471 b 906 463 944 471 925 468 b 735 246 797 431 735 353 b 865 33 735 165 793 69 b 956 14 892 21 922 14 b 1093 60 1006 14 1058 31 b 1172 308 1146 103 1208 213 z m 953 303 b 1017 250 992 303 1015 272 b 958 179 1018 221 1004 183 b 954 179 957 179 956 179 b 897 236 921 179 897 217 b 953 303 897 256 913 303 z "},"＃":{"ha":0,"x_min":0,"x_max":0,"o":"m 1085 667 b 1189 769 1147 676 1185 729 b 1121 881 1193 806 1172 863 b 1083 933 1074 896 1082 926 b 1003 1058 1093 999 1053 1049 b 885 978 960 1067 908 1050 b 807 897 882 968 881 893 b 728 899 781 900 754 899 b 667 957 654 901 665 943 b 582 1076 667 1014 643 1069 b 458 965 506 1085 478 1036 b 363 901 456 953 436 899 b 224 779 278 906 218 839 b 357 671 228 719 263 678 b 390 604 365 671 400 657 b 367 467 382 560 375 513 b 325 421 364 451 357 421 b 176 311 236 421 176 367 b 274 203 176 264 206 218 b 311 124 283 201 319 192 b 406 -14 300 35 351 -14 b 517 90 461 -14 497 26 b 526 131 519 97 522 111 b 601 193 529 147 558 194 b 700 192 635 193 667 192 b 740 103 756 194 742 117 b 833 -17 735 18 783 -17 b 939 67 883 -17 919 -3 b 950 115 942 75 946 92 b 1025 190 954 136 957 189 b 1163 294 1119 193 1161 242 b 1057 413 1164 356 1126 408 b 1011 482 1047 414 997 408 b 1032 610 1021 525 1025 568 b 1085 667 1043 663 1079 665 z m 736 418 b 639 419 704 421 671 419 b 588 479 583 418 583 460 b 610 610 594 524 601 568 b 682 667 613 629 636 665 b 776 665 713 667 744 665 b 821 604 819 665 824 625 b 800 479 814 564 807 521 b 736 418 796 458 786 415 z "},"＆":{"ha":0,"x_min":0,"x_max":0,"o":"m 1154 143 b 1140 169 1151 151 1147 161 b 1121 267 1113 197 1117 247 b 1124 314 1125 282 1126 299 b 1017 404 1117 360 1068 401 l 1014 404 b 996 401 1007 404 1001 403 b 882 419 972 396 906 399 b 829 475 865 436 847 454 b 832 563 792 515 813 553 b 957 765 890 597 954 675 b 764 1060 961 872 913 1007 b 665 1076 733 1071 700 1076 b 385 910 543 1076 431 1008 b 385 669 347 829 347 753 b 424 604 396 647 410 625 b 422 515 439 585 457 553 b 353 426 397 489 369 458 b 346 143 306 335 303 235 b 699 -33 406 22 571 -33 b 715 -33 704 -33 710 -33 b 908 38 794 -31 861 4 b 1007 42 944 63 990 50 b 1113 40 1042 24 1088 22 b 1154 143 1143 61 1171 100 z m 597 725 b 575 771 586 738 581 754 b 579 832 568 793 569 814 b 626 872 590 854 611 868 b 650 875 633 875 642 875 b 735 811 690 875 726 849 b 689 708 743 776 728 742 b 597 725 675 697 629 688 z m 644 372 l 760 264 b 760 192 760 264 797 219 b 661 164 735 174 700 158 b 521 292 578 174 526 221 b 556 376 519 324 533 357 b 644 372 596 414 644 372 z "},"＊":{"ha":0,"x_min":0,"x_max":0,"o":"m 1053 411 b 921 508 1053 411 997 451 b 915 590 903 522 858 550 b 1047 690 985 639 1035 679 b 1113 858 1106 738 1171 785 b 1040 901 1090 885 1078 899 b 913 846 997 906 947 876 b 849 796 901 836 879 819 b 799 822 833 785 797 758 b 799 903 800 864 799 893 b 700 1056 794 975 797 1053 b 621 1029 665 1056 646 1054 b 586 899 590 999 583 943 b 588 822 586 885 588 858 b 519 800 586 767 539 786 b 460 843 489 822 468 838 b 274 858 396 883 332 932 b 247 782 251 832 240 817 b 336 678 254 742 297 703 b 469 585 356 665 407 632 b 468 511 515 550 485 524 b 324 400 397 458 342 417 b 274 243 261 346 232 292 b 281 235 275 240 278 238 b 458 254 343 172 382 199 b 536 311 458 254 489 276 b 586 283 551 322 586 332 b 588 182 585 235 586 199 b 686 46 593 101 619 46 b 696 47 689 46 692 46 b 790 192 786 54 789 100 b 792 289 790 192 793 231 b 839 319 792 335 825 329 b 939 250 888 285 924 260 b 1113 244 1011 206 1072 193 b 1118 253 1114 247 1117 250 b 1053 411 1165 326 1129 356 z "},"＠":{"ha":0,"x_min":0,"x_max":0,"o":"m 1064 933 b 704 1050 983 1006 849 1050 b 481 1006 617 1050 538 1035 b 190 600 322 926 214 775 b 436 90 161 374 257 174 b 754 19 561 32 678 19 b 872 31 796 19 838 24 b 1056 124 979 54 1042 85 b 1051 206 1067 150 1064 182 b 993 246 1039 228 1018 242 b 879 231 964 250 919 240 b 799 217 849 224 819 217 b 497 290 742 217 576 231 b 390 624 408 357 365 490 b 631 853 415 753 535 828 b 711 863 656 860 682 863 b 958 767 807 863 897 828 b 1008 543 1057 667 1022 565 b 944 563 992 518 939 522 b 926 628 946 582 938 604 b 688 758 896 706 789 764 b 461 524 581 753 464 676 b 615 321 458 414 540 342 b 724 307 647 311 686 307 b 951 313 776 307 900 313 b 1000 317 968 313 983 314 b 1197 522 1103 332 1181 413 b 1064 933 1213 617 1215 796 z m 776 515 b 690 461 758 474 719 457 b 628 497 664 464 639 479 b 622 546 618 511 617 528 b 708 614 636 588 669 614 b 747 606 721 614 733 611 b 778 575 763 599 772 589 b 776 515 788 554 783 529 z "},"§":{"ha":0,"x_min":0,"x_max":0,"o":""},"☆":{"ha":0,"x_min":0,"x_max":0,"o":"m 1235 539 b 1269 654 1268 564 1282 614 b 1178 719 1256 693 1219 714 b 967 725 1178 719 1051 714 b 868 790 894 729 868 790 l 786 1014 b 694 1079 772 1053 751 1056 b 603 1014 653 1079 617 1053 l 519 801 b 407 725 519 801 521 713 b 211 719 315 719 211 719 b 119 654 178 719 133 693 b 160 531 107 614 111 567 l 321 410 b 360 296 321 410 401 344 b 296 72 340 235 297 93 b 332 -35 294 40 299 -11 b 474 -21 365 -60 439 -46 b 626 85 474 -21 567 19 b 767 83 700 132 767 83 l 944 -35 b 1000 -53 961 -47 981 -53 b 1001 -53 1001 -53 1001 -53 b 1097 29 1054 -53 1097 -24 b 1090 96 1097 43 1100 65 b 1029 293 1076 149 1053 218 b 1058 397 1013 349 1058 397 z m 882 251 b 849 235 886 236 890 199 b 732 313 824 254 732 313 b 693 324 721 321 707 324 b 654 313 679 324 665 319 b 536 231 654 313 558 240 b 504 244 517 219 500 228 b 549 389 515 282 533 339 b 525 467 558 418 549 449 b 426 542 525 467 460 493 b 428 582 396 567 428 582 l 557 586 b 621 631 586 586 611 604 b 672 760 621 631 658 686 b 715 757 692 814 715 757 l 761 632 b 825 586 771 604 796 586 b 958 582 825 586 913 576 b 969 547 1006 582 969 547 l 861 461 b 839 383 838 443 829 413 b 882 251 839 383 864 308 z "},"★":{"ha":0,"x_min":0,"x_max":0,"o":"m 1235 539 b 1269 654 1268 564 1289 596 b 1178 719 1256 693 1219 714 b 967 725 1178 719 1051 714 b 868 790 894 729 868 790 l 786 1014 b 694 1079 772 1053 736 1079 b 603 1014 653 1079 617 1053 l 519 801 b 407 725 519 801 521 713 b 211 719 315 719 211 719 b 119 654 178 719 133 693 b 160 531 107 614 111 567 l 321 410 b 360 296 321 410 401 344 b 296 72 340 235 297 93 b 332 -35 294 40 299 -11 b 474 -21 365 -60 439 -46 b 626 85 474 -21 567 19 b 767 83 700 132 767 83 l 944 -35 b 1000 -53 961 -47 981 -53 b 1001 -53 1001 -53 1001 -53 b 1097 29 1054 -53 1097 -24 b 1090 96 1097 43 1100 65 b 1029 293 1076 149 1053 218 b 1058 397 1013 349 1058 397 z "},"○":{"ha":0,"x_min":0,"x_max":0,"o":"m 661 -60 b 1247 464 967 -82 1247 201 b 749 1031 1247 725 1081 1003 b 165 485 394 1061 143 725 b 661 -60 188 246 290 -33 z m 1013 486 b 672 172 1013 356 881 146 b 383 500 486 196 383 342 b 750 801 383 657 567 826 b 1013 486 933 775 1013 617 z "},"●":{"ha":0,"x_min":0,"x_max":0,"o":"m 661 -60 b 1247 464 967 -82 1247 201 b 749 1031 1247 725 1081 1003 b 165 485 394 1061 143 725 b 661 -60 188 246 290 -33 z "},"◎":{"ha":0,"x_min":0,"x_max":0,"o":"m 661 -60 b 1247 464 967 -82 1247 201 b 749 1031 1247 725 1081 1003 b 165 485 394 1061 143 725 b 661 -60 188 246 290 -33 z m 1013 486 b 672 172 1013 356 881 146 b 383 500 486 196 383 342 b 750 801 383 657 567 826 b 1013 486 933 775 1013 617 z m 703 239 b 951 479 833 239 951 353 b 725 732 951 596 874 719 b 525 651 649 739 578 708 b 461 478 479 601 456 536 b 686 239 474 335 556 249 b 703 239 692 239 697 239 z m 706 561 b 711 561 707 561 710 561 b 781 479 778 556 781 488 b 699 410 781 453 740 407 b 632 493 674 413 639 414 b 651 536 631 500 635 518 b 706 561 661 546 679 561 z "},"◇":{"ha":0,"x_min":0,"x_max":0,"o":"m 169 396 b 583 -33 221 336 511 31 b 803 -39 656 -99 742 -104 b 1189 347 863 25 1110 268 b 1225 575 1268 426 1290 507 b 806 1028 1161 643 894 947 b 571 1029 717 1108 642 1097 b 175 640 492 954 235 704 b 169 396 108 571 94 482 z m 650 164 b 375 450 614 193 401 424 b 363 546 332 493 335 517 b 685 850 392 575 663 831 b 751 824 708 869 731 844 b 1025 524 772 803 990 557 b 1024 449 1060 489 1040 465 b 726 160 1006 432 751 185 b 650 164 701 135 686 135 z "},"◆":{"ha":0,"x_min":0,"x_max":0,"o":"m 169 396 b 583 -33 221 336 511 31 b 803 -39 656 -99 742 -104 b 1189 347 863 25 1110 268 b 1225 575 1268 426 1290 507 b 806 1028 1161 643 894 947 b 571 1029 717 1108 642 1097 b 175 640 492 954 235 704 b 169 396 108 571 94 482 z "},"□":{"ha":0,"x_min":0,"x_max":0,"o":"m 189 849 b 193 154 183 760 188 264 b 365 -26 199 44 264 -29 b 985 -26 465 -24 858 -26 b 1199 128 1113 -26 1196 21 b 1208 844 1201 233 1214 708 b 1019 1035 1203 981 1132 1032 b 390 1040 897 1038 490 1043 b 189 849 281 1038 197 978 z m 396 251 b 394 729 390 306 394 685 b 464 817 394 799 417 817 b 976 808 511 817 942 811 b 1010 732 1011 804 1010 767 b 1004 239 1010 697 1004 296 b 942 178 1004 182 976 160 b 457 185 913 178 499 185 b 396 251 415 185 403 197 z "},"■":{"ha":0,"x_min":0,"x_max":0,"o":"m 189 849 b 193 154 183 760 188 264 b 365 -26 199 44 264 -29 b 985 -26 465 -24 858 -26 b 1199 128 1113 -26 1196 21 b 1208 844 1201 233 1214 708 b 1019 1035 1203 981 1132 1032 b 390 1040 897 1038 490 1043 b 189 849 281 1038 197 978 z "},"△":{"ha":0,"x_min":0,"x_max":0,"o":"m 228 -11 b 1201 -11 342 -11 1104 -24 b 1282 200 1313 -11 1342 96 b 840 985 1224 301 922 876 b 599 1013 772 1072 663 1072 b 119 210 518 936 165 288 b 228 -11 33 64 115 -11 z m 1056 165 b 357 168 1017 165 396 163 b 331 236 322 168 293 182 b 682 810 353 271 658 790 b 757 799 706 831 735 819 b 1072 235 778 776 1046 276 b 1056 165 1097 194 1096 165 z "},"▲":{"ha":0,"x_min":0,"x_max":0,"o":"m 228 -11 b 1201 -11 342 -11 1090 -11 b 1282 200 1313 -11 1342 96 b 840 985 1224 301 922 876 b 599 1013 772 1072 663 1072 b 119 210 518 936 165 288 b 228 -11 33 64 115 -11 z "},"▽":{"ha":0,"x_min":0,"x_max":0,"o":"m 1182 1047 b 208 1047 1068 1047 319 1047 b 128 838 97 1047 68 940 b 569 51 186 735 488 160 b 811 24 638 -36 747 -36 b 1290 826 892 101 1244 749 b 1182 1047 1376 972 1294 1047 z m 354 871 b 1053 869 393 871 1026 854 b 1079 800 1088 869 1117 856 b 728 226 1057 765 751 246 b 653 239 704 207 675 217 b 338 801 632 260 364 760 b 354 871 313 842 314 871 z "},"▼":{"ha":0,"x_min":0,"x_max":0,"o":"m 1182 1047 b 208 1047 1068 1047 319 1047 b 128 838 97 1047 68 940 b 569 51 186 735 488 160 b 811 24 636 -36 747 -36 b 1290 826 892 101 1244 749 b 1182 1047 1376 972 1294 1047 z "},"※":{"ha":0,"x_min":0,"x_max":0,"o":"m 385 621 b 235 638 347 660 296 679 b 224 465 174 596 185 497 b 382 464 263 433 324 414 b 385 621 431 506 424 582 z m 625 860 b 783 858 664 828 725 808 b 786 1015 832 900 825 976 b 636 1032 749 1054 697 1074 b 625 860 588 985 586 892 z m 628 251 b 617 79 567 210 578 111 b 775 78 656 47 717 28 b 778 235 824 119 817 196 b 628 251 749 272 689 293 z m 1165 622 b 1015 639 1128 661 1076 681 b 1004 467 954 597 965 499 b 1163 465 1043 435 1104 415 b 1165 622 1211 507 1204 583 z m 876 604 b 975 706 917 649 963 692 b 1035 819 1006 740 1038 781 b 1010 869 1033 838 1025 854 b 857 838 953 918 903 883 b 793 774 850 831 826 807 b 743 725 779 760 763 743 b 649 729 729 711 675 701 b 494 881 574 806 511 867 b 343 878 444 925 381 926 b 374 739 307 829 338 781 b 510 600 382 728 439 671 b 513 497 550 558 529 513 b 489 474 504 489 497 481 b 389 371 440 424 397 381 b 383 225 346 321 343 264 b 510 242 403 206 444 182 b 638 367 524 254 575 304 b 747 365 674 401 729 382 b 814 299 771 340 794 318 b 888 225 851 261 879 233 b 1033 214 932 182 996 176 b 1024 346 1060 240 1079 283 b 879 496 1014 358 954 419 b 876 604 861 514 832 557 z "},"〒":{"ha":0,"x_min":0,"x_max":0,"o":"m 368 776 b 444 775 378 775 403 775 b 893 781 560 775 738 778 b 1031 782 979 781 1011 782 b 1169 901 1108 782 1169 835 b 1046 1007 1169 946 1147 1001 b 699 1011 1010 1010 863 1011 b 350 1007 535 1011 388 1010 b 243 958 306 1004 267 986 b 219 872 224 935 215 904 b 368 776 229 797 300 782 z m 1010 697 b 932 699 997 697 990 699 b 492 701 807 700 632 701 b 343 700 410 701 361 701 b 210 575 261 694 210 646 b 338 479 210 542 226 485 b 515 476 361 478 428 481 b 586 403 574 474 586 429 b 589 72 586 281 586 122 b 697 -35 592 -7 650 -35 b 708 -35 701 -35 704 -35 b 796 106 763 -29 796 42 b 796 190 796 121 796 151 b 797 404 796 253 797 333 b 874 476 797 431 811 476 b 999 478 925 475 974 476 b 1153 526 1057 481 1121 489 b 1174 592 1168 543 1175 565 b 1010 697 1168 685 1092 697 z "},"→":{"ha":0,"x_min":0,"x_max":0,"o":"m 865 218 b 1188 400 907 243 1143 367 b 1199 499 1224 428 1224 472 b 869 696 1168 532 901 678 b 779 651 810 732 779 697 b 779 600 779 643 778 625 b 713 542 781 549 733 542 b 654 540 692 542 671 542 b 285 539 561 538 335 539 b 172 454 236 539 174 528 b 304 378 174 367 244 375 b 500 376 360 382 399 367 b 719 376 549 379 635 379 b 779 310 739 376 781 374 b 779 251 778 282 779 261 b 865 218 779 206 822 194 z "},"←":{"ha":0,"x_min":0,"x_max":0,"o":"m 524 699 b 201 517 482 674 246 550 b 190 418 165 489 165 444 b 519 221 221 385 488 239 b 610 265 579 185 610 219 b 610 317 610 274 611 292 b 676 375 608 368 656 375 b 735 376 697 375 718 375 b 1104 378 828 379 1054 378 b 1217 463 1153 378 1215 389 b 1085 539 1232 533 1144 542 b 889 540 1029 535 990 550 b 669 540 840 538 754 538 b 610 607 650 540 608 543 b 610 665 611 635 610 656 b 524 699 610 711 567 722 z "},"↑":{"ha":0,"x_min":0,"x_max":0,"o":"m 935 685 b 753 1007 910 726 786 963 b 654 1018 725 1043 681 1043 b 457 689 621 986 475 721 b 501 597 421 629 456 597 b 553 597 510 597 528 597 b 611 532 604 600 611 553 b 613 474 611 511 611 490 b 614 104 615 381 614 154 b 699 -8 614 56 625 -7 b 775 124 774 -8 778 64 b 776 319 771 179 786 218 b 776 539 774 368 774 454 b 843 597 776 558 779 600 b 901 597 871 597 892 597 b 935 685 947 597 958 642 z "},"↓":{"ha":0,"x_min":0,"x_max":0,"o":"m 454 308 b 636 -14 479 267 603 31 b 735 -25 664 -50 708 -50 b 932 304 768 6 914 272 b 888 394 968 364 933 394 b 836 394 879 394 861 396 b 778 461 785 393 778 440 b 776 519 778 482 778 503 b 775 889 774 613 775 839 b 690 1036 775 938 775 1038 b 614 869 607 1038 611 929 b 613 674 618 814 603 774 b 613 454 617 625 615 539 b 546 394 613 435 610 393 b 488 394 518 396 497 394 b 454 308 442 394 431 351 z "},"〓":{"ha":0,"x_min":0,"x_max":0,"o":"m 906 853 b 640 858 857 857 872 858 b 478 853 411 858 531 857 b 325 783 414 850 358 824 b 293 664 299 750 288 708 b 503 528 307 558 407 536 b 582 526 515 528 524 526 b 763 533 743 526 543 531 b 886 536 882 535 858 536 b 1081 703 994 536 1081 610 b 906 853 1081 767 1050 844 z m 864 381 b 794 382 846 381 876 382 b 654 386 619 383 853 386 b 475 383 539 386 499 385 b 285 208 360 376 285 307 b 467 74 285 161 308 81 b 719 68 529 71 440 68 b 846 72 826 68 792 69 b 1064 139 928 76 1018 88 b 1093 232 1086 164 1096 194 b 864 381 1086 363 978 381 z "},"∈":{"ha":0,"x_min":0,"x_max":0,"o":"m 1092 250 b 1015 249 1076 250 1050 250 b 604 258 913 247 661 250 b 460 324 557 264 501 282 b 497 392 442 342 433 389 b 946 382 613 397 835 382 b 1089 383 1015 382 1075 383 b 1194 482 1153 388 1194 426 b 1093 558 1194 508 1181 554 b 692 568 1060 560 857 568 b 489 568 653 568 560 567 b 471 633 431 569 451 615 b 596 700 513 669 564 688 b 1013 714 656 724 915 717 b 1078 711 1040 713 1063 711 b 1199 797 1156 711 1197 736 b 1199 800 1199 799 1199 799 b 1079 900 1199 863 1154 900 b 593 889 1018 900 717 897 b 218 469 399 876 218 744 b 549 81 240 178 424 92 b 1081 71 617 74 1014 71 b 1199 158 1154 71 1199 104 b 1092 250 1199 217 1154 250 z "},"∋":{"ha":0,"x_min":0,"x_max":0,"o":"m 297 261 b 192 169 235 261 192 228 b 310 82 192 115 235 82 b 840 92 375 82 772 85 b 1172 481 967 103 1192 200 b 797 900 1172 756 990 888 b 311 911 674 908 371 911 b 192 811 236 911 192 874 b 192 808 192 811 192 810 b 313 724 193 747 233 724 b 376 725 326 724 349 724 b 794 711 474 729 733 735 b 919 644 826 699 878 682 b 901 579 939 628 960 581 b 697 579 829 578 738 579 b 297 569 532 579 331 571 b 196 493 208 565 196 519 b 301 394 196 438 238 400 b 443 393 315 394 375 393 b 892 403 556 393 778 408 b 929 335 957 400 947 353 b 786 269 889 293 833 275 b 374 260 729 261 476 258 b 297 261 340 261 314 261 z "},"⊆":{"ha":0,"x_min":0,"x_max":0,"o":"m 1063 438 b 1001 438 1050 438 1028 438 l 996 438 b 931 436 981 438 957 436 b 563 444 807 436 601 440 b 399 611 513 450 399 478 b 550 778 399 724 493 758 l 558 781 b 803 794 571 786 621 794 b 993 792 876 794 954 793 l 999 792 b 1050 790 1021 790 1039 790 b 1168 871 1100 790 1165 799 l 1168 874 b 1051 967 1168 931 1124 967 b 551 958 1008 967 663 965 b 213 604 394 949 213 850 b 513 276 213 364 408 285 b 1053 269 574 271 999 269 b 1168 351 1124 269 1168 301 b 1063 438 1168 404 1126 438 z m 1040 192 b 951 193 1031 192 997 193 b 481 201 846 193 600 201 b 339 200 413 201 351 201 b 232 103 274 196 232 158 b 333 26 232 75 246 31 b 735 17 367 25 569 17 b 1031 18 799 17 1001 17 b 1151 56 1076 21 1126 26 b 1168 108 1164 69 1169 88 b 1040 192 1164 182 1104 192 z "},"⊇":{"ha":0,"x_min":0,"x_max":0,"o":"m 844 958 b 344 967 733 965 388 967 b 228 874 272 967 228 931 l 228 871 b 346 790 231 799 296 790 b 397 792 357 790 375 790 l 403 792 b 593 794 442 793 518 794 b 838 781 775 794 824 786 l 846 778 b 997 611 903 758 997 724 b 833 444 997 479 883 450 b 465 436 794 440 589 436 b 400 438 439 436 415 438 l 394 438 b 333 438 367 438 346 438 b 228 351 269 438 228 404 b 343 269 228 301 272 269 b 883 276 397 269 822 271 b 1183 604 988 285 1183 364 b 844 958 1183 850 1001 949 z m 1035 199 b 946 200 1025 199 992 200 b 475 188 840 200 594 188 b 333 186 407 188 346 188 b 226 96 268 182 226 151 b 328 19 226 68 240 24 b 750 17 363 18 585 17 b 1025 25 814 17 996 24 b 1146 63 1071 28 1121 33 b 1163 115 1158 76 1164 94 b 1035 199 1158 189 1099 199 z "},"⊂":{"ha":0,"x_min":0,"x_max":0,"o":"m 1199 158 b 1092 250 1199 217 1154 250 b 1015 249 1076 250 1050 250 b 604 258 913 247 661 250 b 403 476 518 269 403 319 b 596 700 415 633 535 676 b 1013 714 656 724 915 717 b 1078 711 1040 713 1063 711 b 1199 797 1156 711 1197 736 b 1199 800 1199 799 1199 799 b 1079 900 1199 863 1154 900 b 593 889 1018 900 717 897 b 218 469 399 876 218 744 b 549 81 240 178 424 92 b 1081 71 617 74 1014 71 b 1199 158 1154 71 1199 104 z "},"⊃":{"ha":0,"x_min":0,"x_max":0,"o":"m 190 158 b 308 71 190 104 235 71 b 840 81 375 71 772 74 b 1171 469 965 92 1190 178 b 796 889 1171 744 990 876 b 310 900 672 897 371 900 b 190 800 235 900 190 863 b 190 797 190 799 190 799 b 311 711 192 736 233 711 b 376 714 326 711 349 713 b 793 700 474 717 733 724 b 986 476 854 676 992 633 b 785 258 986 319 871 269 b 372 249 728 250 476 247 b 297 250 339 250 313 250 b 190 158 235 250 190 217 z "},"∪":{"ha":0,"x_min":0,"x_max":0,"o":"m 1036 976 b 944 869 978 976 944 932 b 946 793 944 854 944 828 b 936 381 947 690 943 438 b 718 181 925 296 875 181 b 493 374 578 164 518 313 b 481 790 471 433 476 693 b 482 854 482 818 482 840 b 397 976 482 933 458 974 b 393 976 396 976 394 976 b 293 857 331 976 293 932 b 304 371 293 796 296 494 b 725 -4 318 176 450 -4 b 1114 326 1008 -11 1103 201 b 1122 858 1119 394 1122 792 b 1036 976 1124 932 1090 976 z "},"∩":{"ha":0,"x_min":0,"x_max":0,"o":"m 1008 -4 b 1096 114 1063 -4 1096 39 b 1086 644 1096 179 1092 576 b 697 976 1075 771 971 976 b 276 601 422 976 290 796 b 265 115 268 478 265 175 b 365 -4 265 40 303 -4 b 369 -4 367 -4 368 -4 b 454 117 431 -3 454 38 b 453 181 454 131 454 153 b 467 599 449 278 443 538 b 690 790 490 660 532 790 b 908 590 847 790 897 675 b 918 178 915 533 919 281 b 917 101 917 144 917 118 b 1008 -4 917 39 950 -4 z "},"∧":{"ha":0,"x_min":0,"x_max":0,"o":"m 946 154 b 1035 43 965 99 994 50 b 1135 97 1072 36 1125 43 b 1079 333 1146 158 1113 238 b 851 897 1054 411 879 850 b 718 1014 846 936 788 1006 b 599 963 661 1021 629 1001 b 329 343 565 919 360 422 b 246 117 315 244 246 151 b 319 42 246 79 275 42 l 321 42 b 435 133 361 42 393 56 b 675 708 465 193 610 554 b 735 708 689 743 721 743 b 946 154 801 544 946 154 z "},"∨":{"ha":0,"x_min":0,"x_max":0,"o":"m 456 903 b 367 1014 436 957 407 1007 b 267 958 329 1021 276 1013 b 322 724 256 899 289 819 b 550 158 349 646 524 207 b 683 42 585 96 614 50 b 803 93 740 35 772 56 b 1072 713 838 136 1042 635 b 1157 940 1117 788 1157 906 b 1083 1015 1157 976 1126 1015 l 1082 1015 b 967 922 1040 1015 1008 1001 b 726 347 936 864 792 503 b 667 349 713 313 682 313 b 456 903 600 513 456 903 z "},"￢":{"ha":0,"x_min":0,"x_max":0,"o":"m 946 597 b 1031 511 996 597 1029 560 b 1035 344 1032 458 1033 393 b 1114 229 1036 269 1079 229 b 1208 308 1154 229 1201 254 b 1215 647 1218 389 1215 565 b 1093 785 1215 728 1154 785 b 176 792 1032 785 238 799 b 93 700 115 785 93 740 b 181 597 93 658 119 597 b 946 597 229 597 742 597 z "},"⇒":{"ha":0,"x_min":0,"x_max":0,"o":""},"⇔":{"ha":0,"x_min":0,"x_max":0,"o":""},"∀":{"ha":0,"x_min":0,"x_max":0,"o":"m 1156 1026 b 1035 967 1100 1039 1075 1022 b 972 843 1031 960 1008 918 b 838 763 960 818 942 763 b 543 765 733 763 626 765 b 429 836 474 746 439 814 b 364 971 397 903 372 954 b 231 1028 328 1036 271 1047 b 178 910 189 1008 153 961 b 583 39 201 860 551 92 b 774 -3 614 -14 715 -26 b 897 210 832 22 865 133 b 1217 885 928 288 1188 807 b 1156 1026 1244 963 1210 1015 z m 672 315 b 583 507 651 363 619 431 b 611 567 575 526 565 565 b 788 565 658 553 742 569 b 810 499 842 542 821 522 b 725 311 783 442 756 379 b 672 315 717 293 690 279 z "},"∃":{"ha":0,"x_min":0,"x_max":0,"o":"m 1049 892 b 944 986 1046 971 990 986 b 413 982 908 986 453 983 b 338 893 367 979 338 926 b 410 803 338 857 360 804 b 819 800 457 800 767 800 b 858 775 838 800 858 793 b 858 656 858 767 858 718 b 792 586 858 633 858 588 b 490 589 688 586 547 589 b 440 588 464 589 447 589 b 363 507 396 586 365 544 b 388 438 361 482 371 454 b 431 418 400 425 414 418 b 797 413 460 418 663 413 b 856 333 853 413 856 357 b 854 236 856 279 856 240 b 831 208 853 217 844 208 b 810 208 828 208 821 208 b 554 208 785 208 601 208 b 410 207 483 208 435 208 b 322 121 354 206 322 174 b 400 29 322 78 346 31 b 882 24 444 26 772 24 b 943 25 910 24 931 24 b 1046 136 1013 26 1046 63 b 1047 256 1046 151 1046 197 b 1049 892 1049 414 1053 819 z "},"∠":{"ha":0,"x_min":0,"x_max":0,"o":""},"⊥":{"ha":0,"x_min":0,"x_max":0,"o":""},"͡":{"ha":0,"x_min":0,"x_max":0,"o":"m 1119 782 b 1265 746 1178 731 1233 719 b 1247 903 1310 783 1310 840 b 688 1108 1185 965 992 1106 b 135 901 363 1111 186 960 b 126 768 83 843 104 793 b 267 778 150 743 196 736 b 706 928 338 818 483 938 b 1119 782 929 918 1076 819 z "},"∂":{"ha":0,"x_min":0,"x_max":0,"o":""},"∇":{"ha":0,"x_min":0,"x_max":0,"o":"m 1017 1040 b 342 1040 903 1040 453 1040 b 261 864 231 1040 222 978 b 585 44 306 735 499 224 b 757 24 628 -42 717 -42 b 1125 854 858 190 1068 701 b 1017 1040 1185 1013 1129 1040 z m 908 782 b 722 328 882 713 768 401 b 646 336 704 297 664 297 b 465 786 607 417 486 728 b 501 864 449 836 451 864 b 860 864 551 864 808 864 b 908 782 910 846 935 851 z "},"≡":{"ha":0,"x_min":0,"x_max":0,"o":"m 1026 250 b 954 250 1018 250 992 250 l 938 250 b 740 253 892 250 818 251 b 467 257 639 256 533 257 b 324 257 390 257 336 257 b 207 161 253 253 207 215 b 319 83 207 133 221 88 b 721 75 322 83 543 75 b 1018 76 747 75 985 75 b 1146 111 1065 79 1118 85 b 1167 167 1161 126 1168 144 b 1026 250 1161 250 1071 250 z m 1026 572 b 954 572 1018 572 992 572 l 938 574 b 740 576 892 574 818 575 b 467 581 639 578 533 581 b 324 579 390 581 336 581 b 207 483 253 575 207 538 b 319 407 207 457 221 410 b 721 399 322 407 543 399 b 1018 400 747 399 985 399 b 1146 435 1065 401 1118 408 b 1167 489 1161 449 1168 468 b 1026 572 1161 572 1071 572 z m 1026 896 b 954 896 1018 896 992 896 l 938 896 b 740 900 892 896 818 897 b 467 904 639 901 533 904 b 324 903 390 904 336 903 b 207 807 253 899 207 861 b 319 729 207 779 221 733 b 721 721 322 729 543 721 b 1018 722 747 721 985 721 b 1146 758 1065 725 1118 731 b 1167 813 1161 772 1168 792 b 1026 896 1161 896 1071 896 z "},"≒":{"ha":0,"x_min":0,"x_max":0,"o":"m 432 829 b 543 936 494 825 543 883 b 450 1053 543 990 521 1040 b 322 942 378 1067 317 990 b 432 829 326 892 356 835 z m 954 -40 b 1065 67 1017 -44 1065 14 b 972 183 1065 121 1044 169 b 844 72 900 197 840 121 b 954 -40 849 22 878 -35 z m 1008 739 b 919 740 999 739 965 740 b 497 742 814 740 617 742 b 356 740 429 742 369 742 b 250 643 292 736 250 699 b 351 567 250 615 263 571 b 772 564 385 565 607 564 b 1000 565 838 564 969 564 b 1121 603 1044 568 1094 574 b 1138 656 1133 617 1139 635 b 1008 739 1133 729 1074 739 z m 1008 447 b 919 449 999 447 965 449 b 497 450 814 450 617 450 b 356 450 429 450 369 450 b 250 351 292 444 250 407 b 351 275 250 325 263 279 b 772 272 385 274 607 272 b 1000 274 838 272 969 272 b 1121 311 1044 276 1094 283 b 1138 364 1133 325 1139 343 b 1008 447 1133 438 1074 447 z "},"≪":{"ha":0,"x_min":0,"x_max":0,"o":"m 863 990 b 801 1082 944 1050 865 1133 b 189 618 793 1075 401 796 b 199 424 111 554 140 475 b 796 -35 340 299 738 13 b 885 33 857 -85 924 -29 b 281 503 854 83 367 408 b 328 588 256 532 292 557 b 863 990 471 706 654 839 z m 1149 990 b 1088 1082 1231 1050 1151 1133 b 475 618 1079 1075 688 796 b 485 424 397 554 426 475 b 1082 -35 626 299 1024 13 b 1171 33 1143 -85 1210 -29 b 567 503 1140 83 653 408 b 615 588 542 532 578 557 b 1149 990 757 706 940 839 z "},"≫":{"ha":0,"x_min":0,"x_max":0,"o":"m 529 990 b 1064 588 739 839 922 706 b 1111 503 1100 557 1138 532 b 508 33 1025 408 538 83 b 597 -35 469 -29 536 -85 b 1194 424 656 13 1053 299 b 1204 618 1253 475 1281 554 b 590 1082 990 796 600 1075 b 529 990 526 1133 449 1050 z m 243 990 b 778 588 453 839 636 706 b 825 503 814 557 851 532 b 222 33 739 408 251 83 b 311 -35 183 -29 250 -85 b 908 424 369 13 767 299 b 918 618 967 475 994 554 b 304 1082 704 796 313 1075 b 243 990 240 1133 161 1050 z "},"√":{"ha":0,"x_min":0,"x_max":0,"o":""},"∽":{"ha":0,"x_min":0,"x_max":0,"o":""},"∝":{"ha":0,"x_min":0,"x_max":0,"o":""},"∵":{"ha":0,"x_min":0,"x_max":0,"o":"m 694 285 b 583 178 632 289 583 232 b 678 61 583 124 619 72 b 806 174 749 47 810 124 b 694 285 800 222 771 279 z m 1079 983 b 968 875 1017 988 968 929 b 1061 758 968 822 989 772 b 1189 871 1132 746 1193 822 b 1079 983 1185 921 1154 978 z m 311 983 b 200 875 249 988 200 929 b 293 758 200 822 222 772 b 421 871 365 746 425 822 b 311 983 417 921 388 978 z "},"∫":{"ha":0,"x_min":0,"x_max":0,"o":""},"∬":{"ha":0,"x_min":0,"x_max":0,"o":""},"Å":{"ha":0,"x_min":0,"x_max":0,"o":""},"‰":{"ha":0,"x_min":0,"x_max":0,"o":""},"♯":{"ha":0,"x_min":0,"x_max":0,"o":"m 1019 533 b 1039 653 1026 574 1033 614 b 1076 710 1042 671 1049 704 b 1188 828 1150 721 1188 783 b 1126 921 1188 860 1165 900 b 1082 979 1114 928 1085 928 b 1003 1058 1079 1022 1040 1050 b 882 968 958 1067 903 1047 b 843 915 881 961 879 919 b 708 900 800 910 754 906 b 665 940 660 894 664 932 b 582 1076 671 1004 649 1068 b 450 926 492 1086 469 1017 b 350 858 447 915 436 867 b 228 721 267 851 215 779 b 335 631 238 671 268 636 b 383 561 347 629 393 617 b 364 450 376 524 372 486 b 314 378 350 393 322 379 b 179 251 225 367 172 306 b 269 160 183 208 214 171 b 311 124 283 157 313 150 b 406 -14 307 35 351 -14 b 517 90 461 -14 497 26 b 525 122 519 97 521 107 b 586 182 528 138 543 178 b 700 196 622 186 661 192 b 746 142 742 200 749 158 b 742 103 743 124 742 111 b 833 -17 735 18 783 -17 b 939 67 883 -17 919 -3 b 960 169 943 79 954 117 b 1036 235 965 218 1024 233 b 1160 356 1131 246 1165 301 b 1075 457 1156 404 1125 446 b 1019 533 1064 458 1008 460 z m 585 465 b 606 588 592 507 597 549 b 678 663 617 638 657 660 b 785 675 713 667 749 672 b 824 622 821 678 826 642 b 801 485 817 576 808 531 b 744 428 797 468 794 435 b 632 415 707 422 669 419 b 585 465 586 411 582 447 z "},"♭":{"ha":0,"x_min":0,"x_max":0,"o":"m 404 892 b 411 125 407 796 397 271 b 625 -17 424 -21 510 -12 b 967 115 740 -19 868 6 b 975 561 1072 232 1086 425 b 701 665 901 651 779 665 b 631 725 660 665 631 688 b 628 885 629 779 628 853 b 533 1011 628 939 594 1004 b 404 892 472 1017 400 976 z m 611 238 b 607 383 607 290 607 343 b 682 458 607 436 629 458 b 833 389 733 458 796 458 b 764 208 865 329 826 242 b 611 238 704 176 614 178 z "},"♪":{"ha":0,"x_min":0,"x_max":0,"o":"m 971 794 b 800 985 882 863 807 965 b 726 1047 817 986 775 1046 b 660 929 660 1047 656 982 b 657 722 663 878 658 813 b 657 439 657 671 660 549 b 603 378 656 374 621 378 b 494 358 567 379 529 374 b 292 154 393 317 314 256 b 417 -61 268 54 335 -37 b 719 44 511 -89 647 -35 b 799 213 761 90 794 158 b 806 585 814 251 807 501 b 804 635 804 597 804 615 b 846 671 803 683 831 683 b 933 590 872 651 901 625 b 1018 344 1015 500 986 376 b 1104 369 1046 317 1085 325 b 971 794 1140 453 1150 656 z "},"†":{"ha":0,"x_min":0,"x_max":0,"o":"m 883 890 b 789 976 779 894 790 957 b 789 996 789 985 789 992 b 681 1099 785 1063 740 1107 b 604 982 622 1092 608 1035 b 528 893 604 974 613 886 b 488 892 507 894 492 892 b 381 793 422 888 381 849 b 483 717 381 767 394 721 b 539 715 499 717 511 715 b 603 638 554 715 604 696 b 606 192 601 471 604 285 b 606 90 606 140 606 101 b 700 -19 606 28 647 -19 b 785 79 736 -19 781 -3 b 790 636 788 107 790 390 b 875 717 790 706 858 715 b 996 754 919 719 969 725 b 1013 807 1008 768 1014 786 b 883 890 1008 881 947 888 z "},"‡":{"ha":0,"x_min":0,"x_max":0,"o":"m 883 375 b 853 375 878 375 868 375 b 789 439 840 375 788 376 b 790 657 790 511 790 586 b 875 717 790 676 806 714 b 996 754 919 718 969 725 b 1013 807 1008 768 1014 785 b 883 890 1008 881 947 888 b 790 968 775 894 790 949 b 789 996 789 981 789 990 b 681 1099 785 1063 740 1107 b 604 982 622 1092 610 1035 b 544 893 604 974 621 886 b 488 892 515 894 493 892 b 382 793 422 888 382 849 b 483 717 382 767 394 721 b 544 715 500 717 513 715 b 603 654 560 715 601 701 b 604 442 606 585 604 511 b 547 376 604 419 592 376 b 488 376 517 378 493 376 b 382 278 422 372 382 333 b 483 201 382 251 394 206 b 553 200 501 201 515 200 b 606 136 567 199 604 188 b 606 90 606 113 606 97 b 700 -19 606 28 647 -19 b 785 79 736 -19 781 -3 b 788 143 786 86 788 108 b 846 200 785 196 829 200 b 875 200 857 200 868 200 b 996 239 919 203 969 210 b 1013 290 1008 253 1014 269 b 883 375 1008 364 947 375 z "},"¶":{"ha":0,"x_min":0,"x_max":0,"o":""},"⃝":{"ha":0,"x_min":0,"x_max":0,"o":"m 661 -60 b 1247 464 967 -82 1247 201 b 749 1031 1247 725 1081 1003 b 165 485 394 1061 143 725 b 661 -60 188 246 290 -33 z m 1013 486 b 672 172 1013 356 881 146 b 383 500 486 196 383 342 b 750 801 383 657 567 826 b 1013 486 933 775 1013 617 z "},"０":{"ha":0,"x_min":0,"x_max":0,"o":"m 707 1056 b 239 642 467 1060 271 860 b 431 69 208 425 261 211 b 986 68 600 -72 847 -50 b 1131 746 1144 204 1204 539 b 707 1056 1067 925 903 1053 z m 547 278 b 489 682 488 326 404 474 b 725 824 533 792 657 831 b 929 614 814 817 907 728 b 843 265 949 507 938 342 b 547 278 757 196 635 207 z "},"１":{"ha":0,"x_min":0,"x_max":0,"o":"m 513 733 b 547 740 519 733 533 736 b 603 678 575 749 604 728 b 599 94 600 511 593 143 b 710 -12 607 21 671 -10 b 829 89 754 -15 825 24 b 844 854 835 154 844 772 b 744 1063 844 938 839 1040 b 476 965 649 1085 568 1028 b 396 806 383 901 381 853 b 513 733 410 760 450 735 z "},"２":{"ha":0,"x_min":0,"x_max":0,"o":"m 535 774 b 599 829 547 796 564 814 b 721 825 626 842 667 844 b 793 649 790 800 819 736 b 488 294 761 539 597 397 b 343 96 378 193 340 157 b 458 -3 346 36 426 -8 b 946 -3 513 -3 849 -3 b 1083 101 1042 -3 1090 29 b 969 210 1083 161 1042 210 b 810 213 928 210 861 211 b 783 256 768 214 756 231 b 865 336 807 276 836 306 b 1025 665 950 429 1004 506 b 764 1053 1044 807 957 1004 b 353 907 569 1101 407 1004 b 394 726 303 819 336 747 b 535 774 451 704 508 729 z "},"３":{"ha":0,"x_min":0,"x_max":0,"o":"m 921 586 b 994 731 951 624 988 676 b 885 1008 1008 853 982 943 b 683 1064 817 1054 738 1064 b 457 1006 603 1064 507 1042 b 397 906 419 978 399 943 b 426 833 396 878 407 850 b 576 824 467 799 519 794 b 675 844 590 831 639 844 b 732 826 700 844 719 838 b 751 717 778 788 768 750 b 633 633 736 686 672 654 b 572 500 588 608 551 554 b 685 414 590 454 636 435 l 706 404 b 785 275 733 392 796 343 b 686 217 779 232 728 217 b 665 217 679 217 672 217 b 532 300 617 222 572 260 b 357 285 482 349 393 339 b 407 94 329 242 335 167 b 696 -18 461 40 556 -18 b 769 -12 719 -18 744 -15 b 1008 290 917 10 1010 143 b 929 483 1007 368 965 438 b 921 586 901 518 897 558 z "},"４":{"ha":0,"x_min":0,"x_max":0,"o":"m 678 1001 b 286 515 625 943 328 569 b 256 350 246 463 231 396 b 393 267 281 304 318 269 b 647 264 446 265 574 264 b 701 188 681 263 701 229 b 706 65 700 144 701 93 b 818 -18 713 13 775 -18 b 914 71 861 -18 911 18 b 917 189 915 97 917 147 b 986 263 918 228 940 263 b 1018 263 996 263 1007 263 b 1117 379 1086 263 1117 324 b 1036 483 1117 433 1074 482 b 1007 486 1028 485 1018 486 b 924 600 942 486 924 540 b 926 942 925 704 925 853 b 815 1049 926 1008 858 1044 b 678 1001 772 1054 722 1051 z m 582 500 b 568 542 542 500 572 518 b 669 668 568 542 654 624 b 704 654 693 690 704 654 l 701 543 b 664 500 701 543 704 500 b 582 500 638 500 604 500 z "},"５":{"ha":0,"x_min":0,"x_max":0,"o":"m 471 1029 b 390 944 424 1029 392 994 b 390 535 390 818 390 588 b 549 443 390 467 464 426 b 750 436 594 453 685 468 b 803 246 828 397 849 307 b 585 225 761 190 646 182 b 419 261 529 264 471 289 b 379 115 376 239 346 175 b 682 -22 414 51 500 -17 b 1026 233 868 -28 999 92 b 906 594 1054 385 1017 515 b 656 651 835 646 724 650 b 597 694 599 654 597 694 l 597 731 b 672 803 597 731 590 796 b 858 804 731 806 808 804 b 992 917 944 804 990 853 b 864 1035 994 994 933 1035 b 471 1029 811 1035 592 1032 z "},"６":{"ha":0,"x_min":0,"x_max":0,"o":"m 825 611 b 711 626 785 621 747 626 b 618 614 674 626 643 619 b 560 653 567 600 556 632 b 626 793 569 706 590 749 b 735 832 647 818 686 832 b 817 819 763 832 790 828 b 871 810 836 813 854 810 b 947 849 915 810 939 833 b 926 976 969 882 976 935 b 724 1047 874 1021 800 1047 b 639 1036 694 1047 665 1043 b 336 568 504 999 356 857 b 581 14 318 265 396 89 b 704 -10 619 -1 660 -10 b 1017 213 828 -10 979 60 b 825 611 1068 417 960 576 z m 832 328 b 738 210 833 279 799 219 b 703 206 725 207 714 206 b 593 261 656 206 619 225 b 589 376 572 292 576 343 b 706 446 606 424 661 446 b 736 442 717 446 726 444 b 832 328 789 426 829 379 z "},"７":{"ha":0,"x_min":0,"x_max":0,"o":"m 522 756 b 518 642 524 713 521 663 b 415 575 514 601 460 575 b 319 649 369 575 324 603 b 317 892 314 694 315 840 b 482 1039 319 969 369 1040 b 967 1026 594 1036 899 1029 b 1085 861 1033 1024 1108 965 b 792 65 1068 788 825 110 b 661 6 751 11 728 -11 b 592 138 607 18 575 71 b 821 749 604 190 754 583 b 775 822 844 808 775 822 l 592 825 b 522 756 592 825 522 821 z "},"８":{"ha":0,"x_min":0,"x_max":0,"o":"m 440 600 b 438 531 458 576 458 551 b 344 357 403 496 354 435 b 469 53 331 239 354 143 b 864 19 588 -39 756 -24 b 1025 347 986 69 1053 206 b 936 519 1011 421 967 483 b 932 586 917 543 915 568 b 988 674 953 608 978 642 b 918 979 1006 733 1015 883 b 528 1029 821 1076 632 1085 b 385 753 424 974 382 868 b 440 600 385 686 415 633 z m 778 724 b 664 697 746 694 707 689 b 589 790 607 707 586 764 b 686 885 590 817 610 881 b 797 825 763 888 790 844 b 778 724 810 792 804 747 z m 776 408 b 818 275 817 372 828 326 b 693 182 807 207 729 181 b 563 294 657 183 569 204 b 639 428 554 383 611 418 b 776 408 682 443 744 439 z "},"９":{"ha":0,"x_min":0,"x_max":0,"o":"m 856 1011 b 681 1057 801 1049 731 1057 b 489 1018 613 1057 540 1042 b 322 729 394 971 325 850 b 463 432 321 611 372 500 b 625 383 506 400 571 388 b 660 315 646 381 682 360 b 581 138 628 253 592 167 b 586 39 568 108 571 69 b 640 -8 597 14 617 -1 b 679 -15 654 -12 667 -15 b 767 47 721 -15 743 7 b 931 425 796 94 910 368 b 944 464 935 438 939 450 b 999 700 969 525 1001 608 b 856 1011 993 831 949 944 z m 746 625 b 651 601 728 613 688 601 b 607 610 633 601 619 604 b 535 753 556 632 524 694 b 651 857 544 813 604 856 l 657 857 b 786 757 700 857 771 831 b 746 625 797 699 769 639 z "},"Ａ":{"ha":0,"x_min":0,"x_max":0,"o":"m 1217 136 b 856 990 1189 194 892 931 b 638 1038 819 1051 704 1065 b 497 794 572 1010 532 883 b 189 143 461 707 222 232 b 258 -19 156 54 194 -6 b 396 49 322 -33 350 -15 b 482 214 407 65 449 153 b 585 282 526 293 585 282 l 846 282 b 936 218 846 282 903 289 b 1004 67 968 154 989 94 b 1172 0 1046 -8 1126 -21 b 1217 136 1219 22 1244 78 z m 744 686 b 796 561 758 650 781 603 b 768 510 813 510 768 510 l 669 508 b 642 563 669 508 617 506 b 696 685 661 610 681 653 b 744 686 711 719 731 718 z "},"Ｂ":{"ha":0,"x_min":0,"x_max":0,"o":"m 1006 518 b 993 536 1000 526 994 535 b 1001 550 994 538 997 544 b 1056 846 1025 589 1086 690 b 849 1046 1038 933 956 1032 b 643 1056 786 1054 703 1056 b 486 1051 586 1056 528 1054 b 353 918 406 1046 353 993 b 353 879 353 913 353 899 b 358 106 351 406 353 146 b 478 -6 365 38 426 -6 b 525 -7 489 -6 506 -6 b 658 -11 558 -8 603 -11 b 840 -3 718 -11 778 -8 b 1088 264 983 11 1067 100 b 1006 518 1101 379 1033 476 z m 835 796 b 821 636 874 744 858 667 b 703 611 800 619 761 611 b 628 615 672 611 644 614 l 621 615 b 593 629 610 617 600 622 b 582 669 585 640 581 654 b 583 735 583 685 583 710 b 585 800 583 760 583 785 b 640 831 588 828 628 831 b 651 831 643 831 647 831 b 690 832 661 831 675 832 b 835 796 768 832 818 819 z m 582 263 b 583 324 583 278 583 301 b 585 383 583 346 583 369 b 640 415 586 413 628 415 b 653 415 643 415 647 415 b 696 415 663 415 678 415 b 853 381 782 415 836 404 b 838 229 892 329 876 260 b 710 206 818 214 775 206 b 625 210 675 206 642 208 l 621 210 b 593 224 610 210 600 215 b 582 263 585 233 581 247 z "},"Ｃ":{"ha":0,"x_min":0,"x_max":0,"o":"m 972 258 b 897 247 949 258 924 253 b 835 236 878 243 856 239 b 804 235 825 235 815 235 b 603 292 740 235 650 253 b 501 551 526 354 494 436 b 689 782 510 674 615 764 b 767 790 715 788 740 790 b 914 753 822 790 875 778 b 1001 724 944 733 974 724 b 1074 756 1032 724 1057 736 b 1075 903 1100 789 1121 833 b 726 1042 1033 969 888 1042 b 710 1040 721 1042 715 1040 b 257 588 550 1036 297 911 b 501 51 214 253 414 101 b 792 -6 564 15 672 -6 b 983 22 872 -6 942 4 b 1082 117 1036 44 1071 78 b 1057 217 1090 149 1082 183 b 972 258 1036 246 1010 258 z "},"Ｄ":{"ha":0,"x_min":0,"x_max":0,"o":"m 1051 875 b 621 1040 968 986 826 1040 b 550 1039 594 1040 571 1040 b 500 1039 529 1039 514 1038 b 494 1039 499 1039 497 1039 b 293 883 403 1039 300 990 b 290 404 289 836 290 596 b 290 149 290 288 290 186 b 415 -6 288 54 329 4 b 517 -8 436 -7 469 -8 b 713 -6 571 -8 640 -7 l 728 -6 b 1114 244 868 -3 1051 65 b 1051 875 1176 428 1176 713 z m 942 489 b 671 235 936 319 846 235 b 608 238 646 235 624 236 b 586 239 599 238 592 239 b 519 293 563 239 522 239 b 519 663 518 338 519 549 b 519 733 519 697 519 724 b 579 789 519 775 536 789 b 590 789 583 789 588 789 b 599 789 593 789 596 789 b 599 789 599 789 599 789 b 613 789 603 789 607 789 b 635 789 619 789 626 789 b 871 711 675 789 796 789 b 942 489 919 661 943 586 z "},"Ｅ":{"ha":0,"x_min":0,"x_max":0,"o":"m 953 225 b 615 228 894 228 679 228 b 565 260 592 228 565 236 b 567 346 565 268 565 301 b 626 407 567 365 565 407 b 853 406 701 407 792 406 b 915 407 885 406 906 406 b 1011 507 969 408 1008 461 b 981 594 1013 539 1000 572 b 926 618 965 610 947 618 b 635 624 894 618 749 625 b 568 672 578 624 568 658 b 571 758 569 721 569 754 b 600 793 574 782 583 793 b 625 793 604 793 613 793 b 772 793 657 793 714 793 b 951 794 860 793 921 793 b 1063 903 1021 797 1063 838 b 964 1018 1063 957 1032 1015 b 536 1024 910 1021 674 1024 b 460 1024 501 1024 476 1024 b 332 883 372 1021 332 976 b 331 735 332 864 332 807 b 328 114 328 536 324 204 b 457 -6 332 15 400 -6 b 950 1 503 -6 899 -1 b 1043 113 1006 4 1043 69 b 953 225 1043 157 1015 222 z "},"Ｆ":{"ha":0,"x_min":0,"x_max":0,"o":"m 574 739 b 622 788 574 781 622 788 b 772 788 654 788 713 788 b 951 789 860 788 921 788 b 1064 900 1022 790 1064 832 b 963 1011 1064 954 1033 1008 b 460 1015 900 1013 550 1018 b 331 874 372 1014 331 967 b 338 101 331 792 332 219 b 463 -19 343 -11 435 -19 b 471 -19 465 -19 468 -19 b 582 90 524 -17 582 28 b 581 213 582 96 581 144 b 578 383 579 260 579 319 b 647 461 578 408 582 461 b 935 465 756 463 903 464 b 1032 572 992 469 1031 524 b 1000 660 1033 604 1021 638 b 942 685 983 676 964 685 b 942 685 942 685 942 685 b 651 685 910 683 763 686 b 574 739 554 685 574 735 z "},"Ｇ":{"ha":0,"x_min":0,"x_max":0,"o":"m 1050 563 b 963 567 1032 565 1004 567 b 847 565 926 567 885 565 l 804 564 b 701 528 758 564 724 551 b 675 457 683 510 674 490 b 804 367 676 397 743 367 b 872 367 821 367 846 364 b 917 308 918 371 931 329 b 824 239 897 279 868 251 b 719 225 789 229 753 225 b 528 290 644 225 579 247 b 507 692 413 388 422 589 b 742 794 588 789 717 794 b 832 783 775 794 807 790 b 883 760 849 778 867 769 b 908 744 892 756 900 750 b 986 713 931 729 956 713 b 1068 754 1017 713 1047 728 b 1085 846 1086 776 1092 808 b 871 1013 1074 899 999 988 b 721 1028 832 1019 781 1028 b 382 907 593 1028 479 988 b 225 365 229 782 179 606 b 603 8 250 236 388 33 b 703 3 638 4 671 3 b 1015 103 831 3 933 35 b 1161 435 1161 224 1161 433 b 1050 563 1160 507 1104 557 z "},"Ｈ":{"ha":0,"x_min":0,"x_max":0,"o":"m 249 875 b 257 138 249 778 260 219 b 367 -7 254 60 293 -7 b 492 122 440 -7 485 32 b 494 326 496 158 494 257 b 558 400 493 396 558 400 l 836 396 b 903 326 836 396 901 388 b 910 117 903 253 903 146 b 1013 -6 926 43 939 1 b 1139 119 1086 -14 1139 26 b 1129 868 1139 218 1138 738 b 1038 1008 1125 942 1110 1000 b 901 847 964 1015 903 986 b 900 681 901 814 901 739 b 836 606 897 600 836 606 l 563 607 b 483 685 563 607 481 607 b 483 856 486 749 483 832 b 351 1008 483 921 461 1008 b 249 875 240 1008 249 875 z "},"Ｉ":{"ha":0,"x_min":0,"x_max":0,"o":"m 825 504 b 821 885 822 672 819 847 b 789 972 822 928 804 956 b 706 1010 767 996 735 1010 b 582 899 650 1010 590 971 b 590 158 572 825 586 253 b 707 4 593 85 625 4 b 714 6 710 4 711 4 b 829 143 806 11 826 63 b 825 504 831 175 828 335 z "},"Ｊ":{"ha":0,"x_min":0,"x_max":0,"o":"m 899 1019 l 894 1019 b 818 990 864 1019 838 1010 b 782 876 793 964 781 924 b 781 393 785 815 783 486 b 643 238 778 296 729 240 b 635 238 640 238 638 238 b 635 238 635 238 635 238 b 501 318 561 238 533 275 l 493 329 b 403 374 472 358 440 374 b 318 332 367 374 332 357 b 368 111 279 267 294 196 b 643 0 428 42 531 0 b 747 13 679 0 714 4 b 993 311 897 49 985 154 b 1013 874 1000 410 1013 785 b 899 1019 1013 968 974 1018 z "},"Ｋ":{"ha":0,"x_min":0,"x_max":0,"o":"m 1082 204 b 782 463 1058 229 882 379 b 775 567 753 488 722 517 b 992 761 839 628 939 721 b 1097 914 1060 814 1099 869 b 990 1018 1097 967 1046 1017 b 783 893 936 1018 872 965 l 769 882 b 735 854 758 872 747 864 b 579 733 697 824 644 783 b 521 761 535 700 521 739 b 521 925 519 843 519 906 b 488 1011 522 967 503 994 b 406 1047 467 1033 435 1047 b 283 936 350 1046 292 1008 b 288 146 275 861 283 224 b 403 -6 290 74 322 -6 b 413 -4 406 -6 408 -4 b 525 133 503 1 522 50 b 525 256 525 147 525 193 b 585 297 525 281 535 333 b 688 217 622 269 661 239 b 939 22 742 171 875 58 b 1007 4 960 10 983 4 b 1113 58 1053 4 1094 25 b 1082 204 1135 97 1121 164 z "},"Ｌ":{"ha":0,"x_min":0,"x_max":0,"o":"m 981 265 b 725 267 939 265 821 267 b 590 267 658 267 603 267 b 551 311 565 267 551 282 b 550 421 551 322 550 364 l 550 433 b 546 911 549 590 544 854 b 510 1014 547 953 535 989 b 415 1053 486 1039 453 1053 b 289 910 339 1053 292 999 b 292 185 286 844 289 308 b 479 10 294 47 415 10 b 979 13 542 10 903 11 b 1079 56 1018 14 1054 28 b 1111 140 1101 79 1113 108 b 981 265 1108 203 1067 265 z "},"Ｍ":{"ha":0,"x_min":0,"x_max":0,"o":"m 1194 690 l 1194 694 b 1193 844 1194 769 1193 828 b 1135 1013 1193 915 1189 968 b 1065 1036 1115 1028 1092 1036 b 963 999 1031 1036 992 1022 b 750 685 932 974 818 796 b 672 682 735 660 699 643 b 503 918 622 754 550 863 b 353 1024 453 976 408 1024 b 321 1019 343 1024 332 1022 b 231 860 260 999 231 947 b 229 739 231 843 229 800 l 229 733 b 228 114 226 540 221 179 b 338 1 239 17 301 1 b 344 3 340 1 343 3 b 458 118 407 6 456 56 b 460 496 458 151 463 363 b 504 522 458 565 488 543 b 615 390 540 478 585 425 b 718 339 647 357 682 339 b 813 383 753 339 785 354 b 914 525 828 399 874 465 b 963 489 968 607 963 489 b 976 111 968 349 975 150 b 1094 7 979 40 1040 4 b 1197 111 1151 10 1193 51 b 1194 690 1200 151 1197 489 z "},"Ｎ":{"ha":0,"x_min":0,"x_max":0,"o":"m 1057 1040 l 1054 1040 b 942 925 1000 1040 942 997 b 942 476 942 876 942 625 b 892 464 942 443 913 436 b 525 960 781 619 564 917 b 375 1033 468 1021 413 1033 b 356 1032 368 1033 361 1032 b 242 904 288 1022 246 975 b 250 132 240 858 243 215 b 364 15 257 49 313 13 b 476 117 417 18 474 56 b 475 525 478 158 476 382 b 529 542 475 561 507 572 b 960 28 653 378 899 60 b 1031 10 983 15 1007 10 b 1158 117 1103 10 1154 65 b 1167 929 1163 181 1167 874 b 1057 1040 1167 993 1110 1039 z "},"Ｏ":{"ha":0,"x_min":0,"x_max":0,"o":"m 1188 660 b 686 1031 1125 878 919 1031 l 675 1031 b 214 657 435 1026 251 838 b 401 97 165 421 271 197 b 714 8 475 42 592 8 b 981 71 814 8 906 31 b 1188 660 1157 167 1251 436 z m 946 410 b 700 258 917 307 796 254 b 460 439 583 264 482 340 b 533 722 432 558 460 661 b 701 778 575 758 636 778 b 888 706 776 778 844 751 b 946 410 979 610 971 492 z "},"Ｐ":{"ha":0,"x_min":0,"x_max":0,"o":"m 882 1036 b 524 1049 738 1044 607 1049 b 439 1046 485 1049 456 1047 b 319 910 363 1038 319 989 b 319 813 319 897 319 861 b 322 78 318 590 314 126 b 442 -22 332 10 392 -22 b 561 85 493 -22 553 15 b 565 317 564 115 565 232 b 643 400 565 354 586 394 b 681 399 656 400 667 399 b 890 407 758 399 829 401 b 1133 728 1051 421 1129 583 b 882 1036 1138 890 1025 1029 z m 572 647 b 574 754 571 668 572 718 b 575 796 575 772 575 789 b 604 835 575 828 586 835 b 842 828 631 835 790 832 b 906 736 888 824 908 779 b 819 626 901 665 874 631 b 697 624 794 625 753 624 b 624 624 669 624 642 624 l 603 625 b 572 647 581 625 574 625 z "},"Ｑ":{"ha":0,"x_min":0,"x_max":0,"o":"m 1140 278 b 1172 663 1199 392 1208 538 b 669 1025 1113 874 907 1029 b 218 660 432 1021 256 838 b 401 110 169 425 276 206 b 943 71 521 19 765 -12 b 1004 68 975 86 997 75 b 1143 64 1051 28 1117 33 b 1158 178 1171 96 1186 139 b 1143 196 1154 183 1150 189 b 1140 278 1136 206 1113 224 z m 694 254 b 444 442 571 260 467 340 b 521 735 419 553 438 665 b 889 718 617 814 797 814 b 961 457 967 636 982 526 b 897 438 953 432 925 422 b 775 414 850 463 796 446 b 758 329 758 388 751 360 b 736 261 763 313 774 275 b 694 254 725 257 706 253 z "},"Ｒ":{"ha":0,"x_min":0,"x_max":0,"o":"m 988 456 b 1114 728 1067 519 1110 632 b 856 1029 1118 886 994 1022 b 407 1039 679 1039 472 1046 b 297 913 343 1032 297 994 b 299 85 297 840 289 144 b 410 -8 308 25 360 -8 b 519 90 461 -8 513 29 b 522 321 524 124 522 242 b 579 393 521 363 543 393 b 653 393 600 393 625 392 b 740 332 722 399 731 354 b 861 67 790 225 844 106 b 1006 8 890 -1 964 -11 b 1065 151 1047 29 1088 82 b 965 369 1054 186 1010 278 b 988 456 956 388 939 415 z m 532 633 b 535 797 529 665 535 774 b 574 844 535 826 544 844 b 815 838 604 844 763 843 b 901 722 868 833 904 769 b 792 603 896 649 854 607 b 574 600 731 599 596 600 b 532 633 550 600 533 600 z "},"Ｓ":{"ha":0,"x_min":0,"x_max":0,"o":"m 1036 881 b 799 1057 1021 938 949 1017 b 704 1068 769 1064 738 1068 b 407 882 593 1068 457 1019 b 454 558 374 790 368 657 b 635 425 501 506 572 463 b 736 356 679 399 717 376 b 757 293 753 338 761 315 b 721 239 754 271 740 250 b 667 229 710 233 690 229 b 524 258 619 229 564 242 b 458 274 501 269 479 274 b 361 221 421 274 388 256 b 382 68 329 176 338 117 b 571 -7 408 39 511 -1 b 643 -10 596 -8 619 -10 b 885 51 744 -10 826 11 b 972 394 992 126 1031 276 b 754 600 931 478 833 558 b 619 731 690 633 625 675 b 688 825 614 775 644 815 b 711 828 694 826 703 828 b 846 792 756 828 815 811 b 932 763 878 772 904 763 b 974 768 946 763 958 765 b 1026 808 996 774 1014 788 b 1036 881 1040 831 1043 856 z "},"Ｔ":{"ha":0,"x_min":0,"x_max":0,"o":"m 1051 1061 b 358 1067 986 1069 436 1069 b 225 949 292 1064 215 1028 b 353 851 236 869 283 854 b 510 853 369 851 431 853 b 588 765 583 851 588 803 b 589 128 585 569 586 193 b 701 -14 592 57 622 -19 b 806 113 788 -10 803 39 b 808 769 808 163 807 572 b 903 858 808 808 825 860 b 1042 858 971 857 1024 860 b 1147 956 1110 856 1147 914 b 1051 1061 1147 999 1118 1054 z "},"Ｕ":{"ha":0,"x_min":0,"x_max":0,"o":"m 1017 1029 b 893 894 944 1029 893 974 b 894 800 893 876 893 842 b 892 404 897 671 901 475 b 710 249 878 297 824 250 b 704 249 708 249 706 249 b 519 394 586 249 549 317 b 503 796 490 469 499 674 b 506 876 504 831 506 858 b 390 1029 506 975 467 1026 b 385 1029 388 1029 386 1029 b 260 879 307 1029 260 972 b 274 390 260 803 263 546 b 714 7 289 147 450 7 l 719 7 b 1115 335 958 8 1101 178 b 1126 881 1122 421 1126 797 b 1017 1029 1126 974 1085 1029 z "},"Ｖ":{"ha":0,"x_min":0,"x_max":0,"o":"m 1133 1000 b 1081 1015 1117 1010 1099 1015 b 965 938 1031 1015 985 975 b 726 440 947 901 800 596 b 651 439 707 401 667 410 b 433 926 582 583 463 875 b 306 1022 400 986 353 1022 b 260 1010 290 1022 274 1018 b 211 840 197 975 182 919 b 546 94 229 792 454 243 b 676 21 575 49 624 21 b 800 88 728 21 774 46 b 1181 839 849 164 1167 800 b 1133 1000 1200 889 1199 960 z "},"Ｗ":{"ha":0,"x_min":0,"x_max":0,"o":"m 138 867 b 401 88 146 807 356 176 b 594 56 444 3 540 -6 b 674 263 614 79 650 186 b 722 263 688 308 708 308 b 800 60 744 193 778 99 b 1004 67 831 6 953 -21 b 1251 861 1056 156 1236 814 b 1203 992 1267 907 1247 972 b 1050 924 1147 1017 1076 1004 b 926 500 1024 844 961 625 b 876 500 917 465 886 467 b 796 735 856 575 824 681 b 597 740 750 826 638 815 b 525 521 582 714 549 600 b 479 521 515 483 490 481 b 365 904 444 639 385 846 b 213 1013 346 964 292 1039 b 138 867 163 996 126 947 z "},"Ｘ":{"ha":0,"x_min":0,"x_max":0,"o":"m 910 589 b 1122 835 1014 711 1101 814 b 1119 1003 1178 893 1157 969 b 954 1001 1083 1035 1013 1053 b 754 776 935 983 853 892 b 651 774 717 732 667 754 b 492 979 571 876 506 958 b 329 1003 444 1042 367 1033 b 303 843 292 974 263 908 b 496 590 318 819 399 714 b 493 469 511 569 536 519 b 303 243 397 360 322 267 b 292 46 254 183 224 100 b 467 74 364 -11 411 17 b 642 275 483 89 553 171 b 753 267 692 332 735 289 b 904 79 828 174 886 100 b 1093 36 954 22 1031 -21 b 1096 211 1161 97 1142 147 b 896 465 1081 232 997 338 b 910 589 882 483 851 519 z "},"Ｙ":{"ha":0,"x_min":0,"x_max":0,"o":"m 233 856 b 513 517 247 832 421 625 b 568 369 546 476 568 417 b 569 129 567 290 567 178 b 692 -6 574 51 618 -4 b 807 108 753 -6 804 44 b 808 361 808 151 808 278 b 868 507 808 404 832 464 b 1121 835 946 603 1076 765 b 1124 1007 1153 883 1167 964 b 978 1007 1081 1051 1018 1039 b 756 750 949 986 829 840 b 639 742 721 708 672 704 b 422 982 568 819 454 947 b 247 1014 375 1036 303 1054 b 233 856 193 975 200 914 z "},"Ｚ":{"ha":0,"x_min":0,"x_max":0,"o":"m 456 788 b 668 790 483 788 592 789 b 686 715 711 792 721 761 b 442 369 611 613 482 436 b 315 138 400 303 315 217 b 449 7 315 57 375 10 b 1006 10 511 6 926 4 b 1108 119 1085 17 1113 65 b 997 221 1104 174 1068 224 b 704 224 967 221 806 222 b 681 307 656 225 644 258 b 983 747 776 444 963 706 b 1029 926 1018 818 1047 875 b 893 1017 1013 976 965 1014 b 456 1018 822 1018 557 1021 b 311 893 356 1017 308 961 b 456 788 313 826 382 788 z "},"ａ":{"ha":0,"x_min":0,"x_max":0,"o":"m 797 38 b 869 18 828 50 851 39 b 931 -12 883 3 903 -12 b 1044 96 993 -12 1043 22 b 986 525 1046 164 1089 364 b 535 638 915 638 700 718 b 336 279 357 551 331 404 b 615 6 343 103 478 17 b 797 38 694 -1 758 18 z m 817 286 b 675 199 792 235 738 199 b 546 349 581 199 531 278 b 722 467 563 421 613 496 b 817 286 831 438 846 344 z "},"ｂ":{"ha":0,"x_min":0,"x_max":0,"o":"m 369 907 b 376 140 372 813 363 288 b 604 0 389 -6 489 3 b 1008 131 719 -4 924 10 b 982 571 1094 251 1094 435 b 678 685 904 664 763 682 b 610 743 638 686 610 708 b 607 900 608 794 607 868 b 499 1026 607 956 560 1019 b 369 907 438 1033 367 993 z m 590 254 b 586 393 586 307 586 351 b 661 468 586 446 608 468 b 819 399 713 468 783 468 b 771 225 851 339 833 258 b 590 254 711 192 593 194 z "},"ｃ":{"ha":0,"x_min":0,"x_max":0,"o":"m 865 10 b 986 133 924 26 986 60 b 910 244 986 213 936 239 b 735 240 869 254 796 233 b 600 385 619 254 586 314 b 839 463 625 500 749 494 b 971 531 897 442 950 468 b 918 674 997 607 953 651 b 600 708 864 708 744 749 b 343 336 419 660 333 503 b 593 17 354 171 461 47 b 865 10 726 -17 803 -8 z "},"ｄ":{"ha":0,"x_min":0,"x_max":0,"o":"m 1007 144 b 1006 911 1019 290 1003 815 b 875 1029 1007 996 936 1036 b 767 901 814 1021 767 956 b 767 749 767 869 767 800 b 704 685 767 713 742 686 b 397 568 621 682 475 664 b 375 128 286 431 288 247 b 781 1 461 8 665 -4 b 1007 144 896 6 994 -3 z m 794 394 b 792 256 794 353 794 308 b 611 224 789 196 671 192 b 560 397 549 257 529 338 b 719 468 597 467 667 468 b 794 394 771 468 794 447 z "},"ｅ":{"ha":0,"x_min":0,"x_max":0,"o":"m 396 385 b 664 7 396 121 521 32 b 947 78 839 -24 922 32 b 846 215 990 154 913 231 b 674 233 749 193 699 213 b 694 264 656 249 668 264 b 901 299 753 264 853 268 b 961 563 990 356 1017 460 b 642 706 904 667 804 724 b 396 385 479 689 396 517 z m 794 479 b 642 432 810 425 681 403 b 672 528 615 453 619 507 b 794 479 726 549 782 525 z "},"ｆ":{"ha":0,"x_min":0,"x_max":0,"o":"m 986 982 b 681 951 904 1036 749 1010 b 567 757 625 904 581 850 b 499 688 563 736 542 685 b 447 685 479 689 461 686 b 325 517 344 678 307 601 b 490 428 338 450 406 428 b 557 347 549 426 557 372 b 560 99 556 238 556 135 b 669 -1 567 33 621 -6 b 771 108 717 1 771 50 b 776 360 771 142 774 253 b 849 431 776 383 785 431 b 874 432 857 431 865 431 b 1003 546 949 433 1007 481 b 897 682 1000 600 965 675 b 846 685 886 683 868 683 b 821 740 803 688 808 725 b 931 753 847 779 900 769 b 1051 808 961 736 1024 754 b 986 982 1078 863 1067 928 z "},"ｇ":{"ha":0,"x_min":0,"x_max":0,"o":"m 760 150 b 806 93 781 153 818 136 b 675 14 790 47 740 25 b 514 39 622 4 585 31 b 417 -87 443 46 403 -32 b 642 -221 435 -154 521 -214 b 940 -96 768 -228 875 -181 b 1024 417 1035 26 1046 256 b 774 751 997 603 913 715 b 390 576 613 794 456 724 b 464 214 344 472 374 292 b 760 150 549 140 676 144 z m 799 410 b 654 367 779 358 718 357 b 596 521 599 375 557 464 b 763 532 633 579 733 564 b 799 410 793 499 817 458 z "},"ｈ":{"ha":0,"x_min":0,"x_max":0,"o":"m 357 893 b 364 121 353 851 357 190 b 469 0 371 36 397 -6 b 581 126 533 6 567 36 b 585 308 588 165 583 265 b 811 313 592 457 801 460 b 817 96 815 271 813 139 b 928 0 821 53 853 0 b 1028 86 997 0 1022 50 b 1029 324 1033 118 1038 215 b 865 613 1018 464 967 567 b 657 650 779 651 706 656 b 588 708 615 647 589 667 b 581 893 585 765 582 843 b 457 1036 581 954 550 1036 b 357 893 364 1036 363 965 z "},"ｉ":{"ha":0,"x_min":0,"x_max":0,"o":"m 707 663 b 832 786 794 669 832 728 b 750 921 832 844 807 892 b 565 811 701 947 579 921 b 707 663 556 729 619 657 z m 572 143 b 685 -12 579 69 588 -4 b 813 101 758 -18 797 28 b 819 438 826 175 819 315 b 703 611 819 556 771 611 b 571 463 633 611 578 572 b 572 143 563 351 565 217 z "},"ｊ":{"ha":0,"x_min":0,"x_max":0,"o":"m 717 658 b 871 785 807 650 867 733 b 736 929 874 836 831 921 b 594 783 642 938 594 842 b 717 658 594 724 654 664 z m 608 439 b 558 64 613 293 644 103 b 414 79 524 49 460 50 b 265 69 367 108 303 111 b 272 -111 217 17 236 -74 b 579 -190 342 -181 458 -210 b 828 67 683 -172 815 -83 b 843 443 838 185 847 350 b 739 604 839 536 824 604 b 608 439 654 604 606 532 z "},"ｋ":{"ha":0,"x_min":0,"x_max":0,"o":"m 850 428 b 971 533 889 464 942 511 b 1004 692 1021 574 1031 642 b 843 718 978 742 897 756 b 701 611 818 701 758 656 b 650 632 663 579 650 611 b 649 900 650 765 649 876 b 521 1022 649 964 599 1022 b 429 894 443 1022 429 957 b 436 111 429 838 439 179 b 536 -8 432 42 465 -14 b 649 104 608 -1 646 51 b 650 135 649 110 650 119 b 693 158 650 175 678 174 b 819 35 743 108 794 57 b 990 38 888 -25 968 13 b 990 185 1014 65 1024 144 b 843 340 968 211 892 290 b 850 428 819 365 822 403 z "},"ｌ":{"ha":0,"x_min":0,"x_max":0,"o":"m 807 147 b 814 875 810 218 811 789 b 710 1006 817 960 761 1006 b 586 888 657 1006 596 969 b 579 164 576 806 575 263 b 703 0 582 82 611 -7 b 807 147 801 6 803 61 z "},"ｍ":{"ha":0,"x_min":0,"x_max":0,"o":"m 243 582 b 249 79 243 518 243 188 b 358 -15 253 11 314 -15 b 451 53 403 -15 443 13 b 465 394 461 93 457 350 b 546 461 475 439 501 465 b 608 381 590 457 604 425 b 624 74 614 336 610 118 b 713 -3 636 29 658 -3 b 815 79 767 -3 811 29 b 828 382 819 128 815 332 b 896 444 842 431 860 444 b 972 382 932 444 963 431 b 976 76 981 332 967 131 b 1067 -11 985 22 1014 -11 b 1163 69 1121 -11 1158 21 b 1167 463 1167 119 1185 328 b 963 682 1150 597 1057 674 b 828 653 914 686 864 669 b 722 660 792 636 753 640 b 617 694 697 676 663 692 b 514 671 576 696 540 685 b 421 692 479 654 436 681 b 343 710 400 706 375 710 b 243 582 285 710 243 658 z "},"ｎ":{"ha":0,"x_min":0,"x_max":0,"o":"m 339 593 b 349 86 331 507 338 160 b 456 -14 361 11 400 -18 b 554 78 510 -11 551 15 b 556 328 556 133 557 238 b 697 467 553 439 622 467 b 824 358 771 467 815 443 b 833 79 831 282 826 165 b 940 -14 840 4 890 -17 b 1026 79 992 -10 1022 32 b 1018 392 1031 126 1035 282 b 775 671 994 547 919 640 b 607 664 699 688 651 665 b 522 681 571 650 540 667 b 442 711 500 700 469 713 b 339 593 390 707 346 671 z "},"ｏ":{"ha":0,"x_min":0,"x_max":0,"o":"m 693 -7 b 1044 308 914 -7 1035 144 b 688 690 1051 457 978 688 b 356 264 396 693 319 425 b 693 -7 399 74 556 -7 z m 832 307 b 665 218 818 251 758 199 b 560 386 569 236 544 325 b 758 472 574 438 658 522 b 832 307 846 429 844 347 z "},"ｐ":{"ha":0,"x_min":0,"x_max":0,"o":"m 385 576 b 393 -114 372 431 397 -18 b 507 -232 390 -199 446 -239 b 606 -107 568 -225 606 -161 b 606 -42 606 -86 606 -62 b 665 25 604 -4 628 25 b 956 139 743 28 878 46 b 983 586 1068 275 1068 465 b 597 718 897 707 713 721 b 385 576 481 714 399 724 z m 579 325 b 582 463 579 365 579 411 b 764 493 586 522 704 525 b 813 319 825 460 844 379 b 653 250 775 250 706 250 b 579 325 601 250 579 272 z "},"ｑ":{"ha":0,"x_min":0,"x_max":0,"o":"m 975 -114 b 983 576 972 -18 997 431 b 772 718 971 724 889 714 b 386 586 657 721 472 707 b 414 139 301 465 301 275 b 701 25 490 46 624 28 b 764 -44 740 25 765 -6 b 763 -107 764 -65 763 -87 b 863 -232 763 -161 801 -225 b 975 -114 924 -239 979 -199 z m 788 463 b 790 325 790 411 790 365 b 715 250 790 272 768 250 b 557 319 664 250 593 250 b 606 493 525 379 543 460 b 788 463 665 525 783 522 z "},"ｒ":{"ha":0,"x_min":0,"x_max":0,"o":"m 422 579 b 440 119 429 481 428 188 b 579 10 453 53 446 -26 b 667 242 661 31 642 156 b 892 453 697 349 774 419 b 1024 599 1001 483 1043 519 b 811 663 1006 678 910 693 b 685 594 763 647 718 619 b 632 622 653 571 632 579 b 518 735 632 690 592 735 b 422 579 444 735 417 678 z "},"ｓ":{"ha":0,"x_min":0,"x_max":0,"o":"m 475 604 b 568 340 443 496 494 407 b 721 199 625 288 744 258 b 542 204 706 158 619 188 b 428 49 426 229 397 88 b 667 -42 458 8 515 -40 b 922 128 811 -44 888 3 b 789 429 963 275 857 372 b 693 540 743 467 651 490 b 869 540 736 592 797 540 b 956 679 953 542 979 625 b 715 774 931 736 838 778 b 475 604 618 769 517 744 z "},"ｔ":{"ha":0,"x_min":0,"x_max":0,"o":"m 897 707 b 860 708 892 707 876 708 b 797 767 835 710 799 729 b 707 886 793 829 776 886 b 601 778 635 886 608 853 b 532 707 596 729 554 711 b 369 572 447 692 369 651 b 535 474 369 496 458 476 b 585 411 583 472 585 432 b 589 136 583 304 583 193 b 696 -4 599 43 621 -4 b 794 132 769 -4 794 51 b 794 414 794 171 794 294 b 867 474 796 465 857 474 b 1010 576 953 474 1008 517 b 897 707 1011 619 985 696 z "},"ｕ":{"ha":0,"x_min":0,"x_max":0,"o":"m 349 550 b 367 235 353 486 328 432 b 806 10 406 39 554 -42 b 1026 519 1058 61 1031 414 b 931 704 1021 646 1001 700 b 813 615 860 710 817 679 b 790 269 807 551 822 335 b 611 233 760 204 656 208 b 571 575 565 257 574 513 b 454 711 567 638 533 717 b 349 550 376 707 342 667 z "},"ｖ":{"ha":0,"x_min":0,"x_max":0,"o":"m 268 526 b 517 93 290 463 415 257 b 844 86 600 -43 774 -26 b 1125 525 893 165 1110 482 b 1085 688 1142 567 1157 642 b 919 629 1013 733 953 678 b 722 329 896 594 783 424 b 640 333 697 290 664 293 b 481 617 590 421 508 564 b 308 699 439 694 376 738 b 268 526 243 660 238 607 z "},"ｗ":{"ha":0,"x_min":0,"x_max":0,"o":"m 1151 650 b 1103 703 1139 675 1126 694 b 1064 713 1085 710 1082 713 b 951 638 1011 713 969 685 b 888 457 938 603 911 526 b 836 450 878 429 846 425 b 794 544 822 488 807 524 b 700 606 772 582 746 606 b 606 549 654 606 628 583 b 571 465 599 538 585 503 b 522 469 563 443 532 443 b 468 624 501 532 478 599 b 339 724 450 669 406 724 b 303 718 326 724 315 721 b 242 582 242 700 231 647 b 451 64 250 531 415 125 b 546 -1 476 24 497 -1 b 608 36 581 -1 583 13 b 671 168 618 46 649 114 b 733 164 688 208 717 204 b 789 43 754 114 781 57 b 869 -6 808 14 824 -6 b 958 49 917 -6 935 14 b 1133 508 989 93 1061 296 b 1154 571 1144 542 1151 564 b 1151 650 1164 596 1163 624 z "},"ｘ":{"ha":0,"x_min":0,"x_max":0,"o":"m 1010 208 b 907 325 1000 222 965 263 b 907 426 869 364 892 411 b 993 517 950 472 982 506 b 1025 601 1015 540 1026 569 b 996 676 1025 633 1018 656 b 835 676 953 715 882 717 b 744 586 824 665 789 632 b 650 589 731 571 694 539 b 576 669 614 631 585 658 b 478 721 553 703 518 721 b 404 697 450 721 424 713 b 389 538 360 663 350 601 b 493 419 399 519 436 479 b 492 322 507 406 529 361 b 394 215 443 271 407 231 b 350 97 375 193 346 147 b 390 28 354 71 368 46 b 457 6 417 8 433 6 b 553 57 497 6 526 31 b 699 210 567 71 626 133 b 822 75 760 147 808 92 b 943 7 858 32 903 7 b 1015 36 969 7 994 17 b 1010 208 1099 110 1033 174 z "},"ｙ":{"ha":0,"x_min":0,"x_max":0,"o":"m 351 506 b 526 238 372 461 472 315 b 519 147 547 207 543 175 b 468 81 504 131 486 108 b 438 -128 419 8 378 -82 b 615 -104 518 -192 563 -149 b 1043 449 678 -51 986 371 b 1068 657 1101 526 1132 589 b 901 647 1006 725 933 681 b 754 465 871 615 801 526 b 664 465 725 429 688 429 b 561 621 632 514 589 581 b 372 690 508 699 435 733 b 351 506 310 647 311 593 z "},"ｚ":{"ha":0,"x_min":0,"x_max":0,"o":"m 488 497 b 635 500 521 496 586 499 b 656 460 668 500 678 485 b 454 235 597 394 488 271 b 385 78 410 183 369 131 b 492 -8 396 43 442 -8 b 915 -10 543 -8 851 -19 b 1036 92 982 -10 1031 28 b 950 197 1040 156 990 194 b 750 206 924 200 818 203 b 739 260 718 206 711 228 b 969 539 813 346 953 513 b 885 704 1024 615 943 704 b 500 701 826 704 596 704 b 372 581 411 699 369 639 b 488 497 375 522 426 501 z "},"ぁ":{"ha":0,"x_min":0,"x_max":0,"o":"m 960 374 b 724 467 888 449 814 465 b 701 482 724 467 701 468 b 725 501 701 499 708 501 l 728 501 b 774 503 749 501 764 503 b 844 578 814 507 840 533 b 826 626 846 594 839 613 b 772 650 813 642 793 650 l 749 650 b 724 658 736 650 728 653 b 717 679 718 663 717 669 b 671 751 717 708 717 738 b 647 756 663 754 656 756 b 578 686 613 756 586 729 b 544 653 574 660 553 653 b 544 653 544 653 544 653 b 522 654 536 654 529 654 b 440 624 490 657 460 644 b 424 568 426 607 421 588 b 515 501 431 510 475 501 b 521 503 518 501 519 501 b 533 501 525 503 529 503 b 556 475 539 501 554 500 b 536 438 556 447 544 442 b 379 250 450 397 392 313 b 483 13 360 149 408 38 b 646 17 533 -4 585 -3 b 660 14 653 19 658 15 b 721 -10 676 -1 699 -10 b 751 -3 732 -10 742 -7 b 779 78 774 11 783 39 b 788 117 778 85 779 101 b 836 192 799 136 819 165 b 863 232 846 207 856 221 b 875 242 867 238 871 242 b 885 233 881 242 883 236 b 876 103 899 206 908 160 b 861 28 864 82 853 53 b 892 -3 865 14 876 4 b 919 -8 901 -7 910 -8 b 1015 72 956 -8 990 21 b 960 374 1043 128 1054 275 z m 756 294 b 718 226 744 269 732 247 b 717 225 718 226 718 226 b 711 260 715 236 713 249 b 706 299 710 272 708 285 b 708 314 704 303 704 310 b 719 318 711 317 714 318 l 731 318 b 751 315 739 317 746 317 b 756 313 753 315 754 315 b 756 294 757 308 757 300 z m 597 143 b 589 139 594 140 592 139 l 588 139 b 531 183 569 139 538 144 b 560 272 522 219 532 247 b 567 276 561 274 564 276 b 575 269 571 276 575 272 b 599 157 581 232 590 196 b 597 143 600 151 600 147 z "},"あ":{"ha":0,"x_min":0,"x_max":0,"o":"m 1085 539 b 731 679 979 649 869 676 b 688 711 715 679 686 686 b 738 751 688 750 711 751 b 807 753 768 750 792 751 b 906 858 874 758 901 806 b 806 960 910 910 863 960 b 769 960 797 960 785 960 b 710 1014 732 960 710 974 b 646 1115 710 1058 710 1097 b 517 1022 583 1135 529 1099 b 454 964 507 974 468 964 b 421 965 442 965 431 965 b 279 843 340 971 269 915 b 411 751 289 772 335 751 b 440 750 421 751 429 751 b 482 700 471 747 481 725 b 447 635 483 650 458 640 b 211 351 324 576 232 453 b 365 -1 182 203 251 38 b 607 6 454 -31 536 -18 b 639 0 624 10 635 4 b 767 -25 671 -31 729 -47 b 806 89 803 -4 813 39 b 821 154 804 100 806 129 b 936 332 847 201 904 282 b 988 333 951 356 975 358 b 972 124 1007 290 1025 218 b 992 -25 942 69 926 3 b 1169 85 1057 -51 1125 -7 b 1085 539 1214 178 1222 394 z m 424 250 b 472 396 411 313 429 357 b 511 386 493 415 510 396 b 547 214 521 328 535 269 b 524 175 554 186 535 175 b 424 250 476 174 435 196 z m 788 419 b 731 314 776 393 757 354 b 710 315 725 307 711 307 b 693 428 704 350 700 389 b 728 468 689 453 701 469 b 775 465 747 467 763 467 b 788 419 793 461 793 433 z "},"ぃ":{"ha":0,"x_min":0,"x_max":0,"o":"m 640 256 b 594 269 625 258 610 261 b 506 436 538 303 515 378 b 419 532 496 493 461 532 b 399 529 413 532 406 531 b 335 386 338 508 328 463 b 533 100 347 215 460 121 b 610 85 558 92 585 85 b 674 107 633 85 654 92 b 690 229 713 138 714 194 b 640 256 678 247 660 251 z m 996 511 b 874 592 981 531 931 592 b 831 578 858 592 843 586 b 803 535 815 567 806 553 b 836 449 799 504 818 471 b 886 371 857 422 872 394 b 974 290 913 326 933 290 b 1000 296 982 290 990 292 b 1051 343 1026 304 1043 319 b 996 511 1067 393 1031 465 z "},"い":{"ha":0,"x_min":0,"x_max":0,"o":"m 185 557 b 474 140 204 297 379 169 b 672 150 561 115 618 107 b 697 318 728 194 726 275 b 557 376 668 361 614 343 b 421 629 471 426 435 542 b 274 758 404 726 340 781 b 185 557 188 731 176 665 z m 926 656 b 1160 431 1031 522 1044 394 b 1149 738 1292 472 1226 636 b 918 833 1090 814 993 886 b 926 656 846 782 890 703 z "},"ぅ":{"ha":0,"x_min":0,"x_max":0,"o":"m 596 582 b 736 547 632 569 690 557 b 758 544 744 546 751 544 b 831 599 794 544 822 567 b 790 674 836 625 821 654 b 628 729 758 693 672 721 b 604 732 621 731 613 732 b 524 679 564 732 532 711 b 596 582 511 633 533 603 z m 911 394 b 665 525 869 503 754 525 b 635 525 654 525 644 525 b 418 418 532 519 439 472 b 421 357 410 394 410 374 b 483 318 432 338 454 324 b 585 343 507 314 547 329 b 654 365 611 353 636 363 b 754 322 701 372 739 356 b 743 232 768 293 764 256 b 661 165 719 203 690 183 b 583 93 628 143 596 124 b 592 24 575 69 578 44 b 657 -10 606 3 631 -10 b 676 -8 664 -10 669 -10 b 861 114 746 8 815 54 b 911 394 928 201 947 304 z "},"う":{"ha":0,"x_min":0,"x_max":0,"o":"m 549 872 b 764 819 604 854 693 835 b 897 893 833 806 883 840 b 839 997 906 928 883 968 b 594 1082 793 1025 664 1067 b 443 1010 524 1096 458 1067 b 549 872 429 953 447 907 z m 1021 574 b 606 767 954 744 763 775 b 281 608 449 758 311 689 b 375 469 254 535 297 482 b 633 542 433 460 563 529 b 779 319 799 568 851 408 b 536 110 699 222 568 192 b 667 -32 504 26 582 -53 b 944 151 765 -8 872 57 b 1021 574 1051 289 1072 440 z "},"ぇ":{"ha":0,"x_min":0,"x_max":0,"o":"m 639 601 b 657 592 643 599 650 596 b 769 549 686 578 735 553 b 785 547 775 549 779 547 b 854 588 818 547 843 563 b 828 674 864 614 858 653 b 694 742 800 693 726 733 b 667 746 685 744 676 746 b 596 700 647 746 613 740 b 639 601 581 661 599 618 z m 943 149 b 803 226 875 158 828 186 b 815 322 779 267 807 314 b 897 442 829 335 893 407 b 878 503 900 461 892 485 b 817 535 867 517 847 533 b 547 540 776 538 640 540 b 494 540 526 540 508 540 b 411 507 447 539 422 521 b 397 446 397 490 393 468 b 488 379 406 407 439 382 b 649 381 514 378 596 379 b 660 376 654 381 658 379 b 656 368 661 375 660 371 b 607 319 642 354 625 338 b 428 135 538 251 453 168 b 400 58 406 106 396 81 b 436 10 403 39 415 22 b 476 -3 449 1 463 -3 b 556 36 508 -3 538 18 b 644 124 583 61 619 97 b 658 129 649 126 653 129 b 671 122 661 129 667 128 b 733 51 688 97 711 71 b 910 -6 767 22 850 -6 l 918 -6 b 1013 64 974 -3 1010 24 b 943 149 1015 106 1013 138 z "},"え":{"ha":0,"x_min":0,"x_max":0,"o":"m 621 901 b 818 822 651 889 751 831 b 939 878 885 814 924 843 b 903 997 953 911 946 967 b 700 1101 858 1028 749 1088 b 561 1042 653 1115 588 1107 b 621 901 540 990 563 928 z m 1083 189 b 863 313 976 206 900 249 b 882 474 822 381 867 458 b 1004 650 908 499 999 603 b 976 738 1008 678 997 711 b 889 782 961 756 933 779 b 476 792 828 788 618 792 b 397 792 444 792 418 792 b 275 743 326 789 292 764 b 256 658 256 719 250 689 b 385 563 268 601 317 565 b 632 565 425 561 550 563 b 650 529 656 565 669 550 b 300 171 554 433 350 236 b 261 61 268 131 256 93 b 311 -7 265 35 282 13 b 367 -24 329 -18 347 -24 b 483 33 414 -24 456 7 b 619 167 525 72 582 129 b 674 164 635 182 660 183 b 768 58 700 126 736 86 b 1033 -28 819 13 943 -28 b 1044 -28 1038 -28 1042 -28 b 1181 71 1126 -24 1176 13 b 1083 189 1185 132 1181 174 z "},"ぉ":{"ha":0,"x_min":0,"x_max":0,"o":"m 725 433 b 699 453 708 435 700 440 b 699 468 697 458 699 463 b 699 475 699 471 699 474 b 704 489 699 479 700 486 b 718 494 708 493 713 494 b 772 496 740 494 760 496 b 847 576 815 500 843 529 b 832 621 849 593 843 608 b 771 646 817 638 794 646 b 760 646 768 646 764 646 b 717 646 749 646 733 646 b 693 669 704 647 696 656 b 608 751 685 725 657 751 b 546 681 582 751 550 739 b 514 650 543 651 521 650 b 514 650 514 650 514 650 l 500 650 b 410 619 463 653 429 640 b 394 565 397 604 392 586 b 493 494 403 503 449 494 b 500 494 496 494 497 494 b 524 494 507 496 514 496 b 549 469 536 493 549 482 b 549 457 549 465 549 461 l 549 450 b 522 411 549 428 540 415 b 356 236 489 401 386 374 b 385 69 342 171 351 113 b 511 6 414 31 458 8 b 700 221 624 0 693 79 l 700 228 b 701 251 701 235 701 243 b 707 268 701 258 703 264 b 729 276 711 274 719 276 b 772 261 743 276 758 271 b 807 119 824 224 824 164 b 799 22 797 94 785 50 b 826 -1 804 10 814 3 b 858 -6 838 -4 849 -6 b 942 56 901 -6 925 25 b 919 342 971 106 999 224 b 725 433 871 413 776 429 z m 542 183 b 500 179 533 174 519 172 b 486 197 492 183 488 190 b 500 251 482 214 488 238 b 529 267 508 261 518 267 b 547 256 539 267 546 263 b 542 183 554 224 551 196 z m 996 610 b 928 653 975 632 954 653 b 896 643 918 653 907 649 b 869 604 882 635 874 621 b 889 539 865 583 872 560 b 901 522 893 533 897 528 b 938 476 913 508 924 494 b 993 449 954 458 975 449 b 1039 471 1010 449 1025 456 b 996 610 1072 508 1028 575 z "},"お":{"ha":0,"x_min":0,"x_max":0,"o":"m 703 661 b 704 696 701 676 704 688 b 742 736 703 710 711 735 b 822 738 776 736 806 736 b 926 849 892 743 921 793 b 821 944 931 904 881 944 b 738 944 804 944 775 942 b 694 988 718 946 699 960 b 578 1101 683 1063 647 1101 b 493 1003 518 1103 497 1057 b 436 949 489 956 451 949 b 415 950 428 950 421 950 b 265 833 329 956 256 908 b 404 736 275 758 324 736 b 450 736 415 736 431 738 b 497 689 476 733 497 711 b 497 660 497 678 497 668 b 450 590 497 626 486 600 b 207 336 378 571 249 522 b 432 3 167 149 269 10 b 706 317 593 -6 694 107 b 707 361 706 331 707 346 b 758 408 706 394 732 408 b 829 383 782 408 807 399 b 883 160 915 321 907 221 b 907 -8 860 97 843 10 b 1069 72 989 -32 1032 7 b 1035 490 1115 153 1149 322 b 753 624 965 593 833 618 b 703 661 733 625 707 631 z m 411 244 b 408 368 372 260 375 331 b 494 368 440 406 489 397 b 411 244 510 299 503 210 z m 1151 892 b 1013 940 1113 935 1071 974 b 1004 799 972 917 961 853 b 1079 706 1028 768 1047 742 b 1215 696 1110 668 1168 642 b 1151 892 1263 749 1190 850 z "},"か":{"ha":0,"x_min":0,"x_max":0,"o":"m 792 817 b 757 833 782 824 768 826 b 722 894 728 850 713 858 b 729 919 725 906 728 914 b 665 1065 742 992 718 1049 b 497 964 592 1088 524 1039 b 486 938 493 954 490 946 b 379 869 461 881 422 871 b 256 856 321 867 275 861 b 154 696 172 833 147 754 b 271 606 160 649 197 606 b 300 607 278 606 288 606 b 333 571 336 607 338 585 b 213 304 290 465 238 354 b 249 138 178 232 201 169 b 421 183 299 104 367 114 b 589 558 433 199 514 378 b 667 583 603 592 642 601 b 719 474 694 564 714 532 b 603 165 731 363 651 278 b 651 4 581 115 596 32 b 799 46 689 -14 760 -6 b 943 431 838 96 932 250 b 792 817 954 610 910 744 z m 1306 582 b 1125 865 1285 661 1176 810 b 968 882 1074 921 1018 929 b 967 724 917 835 915 785 b 1093 544 1003 679 1050 599 b 1235 467 1140 486 1179 446 b 1306 582 1272 479 1318 529 z "},"が":{"ha":0,"x_min":0,"x_max":0,"o":"m 792 817 b 757 833 782 824 768 826 b 722 894 728 850 713 858 b 729 919 725 906 728 914 b 665 1065 742 992 718 1049 b 497 964 592 1088 524 1039 b 486 938 493 954 490 946 b 379 869 461 881 422 871 b 256 856 321 867 275 861 b 154 696 172 833 147 754 b 271 606 160 649 197 606 b 300 607 278 606 288 606 b 333 571 336 607 338 585 b 213 304 290 465 238 354 b 249 138 178 232 201 169 b 421 183 299 104 367 114 b 589 558 433 199 514 378 b 667 583 603 592 642 601 b 719 474 694 564 714 532 b 603 165 731 363 651 278 b 651 4 581 115 596 32 b 799 46 689 -14 760 -6 b 943 431 838 96 932 250 b 792 817 954 610 910 744 z m 1167 831 b 1149 982 1213 856 1213 897 b 1036 1049 1104 1042 1075 1068 b 1021 936 996 1029 1001 976 b 1006 906 1032 914 1015 910 b 968 882 992 901 981 893 b 967 724 917 835 915 785 b 1093 544 1003 679 1050 599 b 1235 467 1140 486 1179 446 b 1306 582 1272 479 1318 529 b 1171 810 1290 642 1224 742 b 1167 831 1167 815 1161 826 z m 1303 1042 b 1185 1117 1264 1106 1225 1136 b 1169 1003 1144 1096 1147 1042 b 1303 906 1210 933 1249 879 b 1303 1042 1350 929 1344 972 z "},"き":{"ha":0,"x_min":0,"x_max":0,"o":"m 1118 613 b 1011 726 1113 668 1072 725 b 865 719 992 726 935 721 b 807 749 821 718 811 738 b 839 786 800 769 825 785 b 900 793 864 789 885 790 b 1008 886 974 804 1013 838 b 915 986 1006 935 968 986 b 799 981 897 986 854 981 b 718 1039 758 982 735 993 b 613 1096 701 1085 669 1106 b 522 1015 557 1085 535 1060 b 458 958 514 988 511 963 b 331 828 368 949 314 894 b 493 763 347 760 414 756 b 529 765 501 763 514 764 b 572 733 558 767 569 744 b 547 697 576 722 578 701 b 449 690 506 692 471 692 b 304 542 347 682 286 618 b 488 468 322 465 399 461 b 628 478 511 471 564 471 b 717 438 667 482 697 464 b 751 393 728 419 740 406 b 951 322 804 335 865 278 b 968 468 1019 357 996 413 b 993 507 960 485 960 501 b 1118 613 1076 521 1122 557 z m 800 136 b 575 239 729 172 636 176 b 388 354 504 310 476 388 b 367 133 313 326 301 235 b 724 -39 446 10 572 -37 b 800 136 842 -39 882 94 z "},"ぎ":{"ha":0,"x_min":0,"x_max":0,"o":"m 800 136 b 575 239 729 172 636 176 b 388 354 504 310 476 388 b 367 133 313 326 301 235 b 724 -39 446 10 572 -37 b 800 136 842 -39 882 94 z m 976 1049 b 947 1004 958 1039 947 1024 b 915 986 947 986 926 986 b 799 981 897 986 854 981 b 718 1039 758 981 735 993 b 613 1096 701 1085 669 1106 b 522 1015 557 1085 535 1060 b 458 958 514 988 511 963 b 331 828 368 949 314 894 b 493 763 347 760 414 756 b 529 765 501 763 514 764 b 572 733 558 767 569 744 b 547 697 576 722 578 701 b 449 690 506 692 471 692 b 304 542 347 682 286 618 b 488 468 322 465 399 461 b 628 478 511 471 564 471 b 717 438 667 482 697 464 b 751 393 728 419 740 406 b 951 322 804 335 865 278 b 968 468 1019 357 996 413 b 993 507 960 485 960 501 b 1118 613 1076 521 1122 557 b 1011 726 1113 668 1072 725 b 865 719 992 726 935 721 b 807 749 821 718 811 738 b 839 786 800 769 825 785 b 900 793 864 789 885 790 b 1000 844 950 800 985 818 b 1029 850 1004 851 1014 863 b 1107 831 1056 826 1083 818 b 1089 982 1154 853 1153 897 b 976 1049 1044 1042 1015 1068 z m 1244 1042 b 1125 1117 1206 1106 1165 1136 b 1111 1003 1085 1096 1088 1042 b 1243 906 1150 933 1189 879 b 1244 1042 1290 929 1285 972 z "},"く":{"ha":0,"x_min":0,"x_max":0,"o":"m 363 371 b 749 19 429 311 667 68 b 938 38 832 -31 883 -17 b 926 214 979 81 971 165 b 629 483 894 250 719 404 b 628 576 597 513 596 549 b 928 842 717 654 890 804 b 929 1018 994 908 972 968 b 724 1006 878 1078 779 1056 b 342 635 669 957 429 728 b 363 371 254 542 293 433 z "},"ぐ":{"ha":0,"x_min":0,"x_max":0,"o":"m 363 371 b 749 19 429 311 667 68 b 938 38 832 -31 883 -17 b 926 214 979 81 971 165 b 629 483 894 250 719 404 b 628 576 597 513 596 549 b 928 842 717 654 890 804 b 929 1018 994 908 972 968 b 724 1006 878 1078 779 1056 b 342 635 669 957 429 728 b 363 371 254 542 293 433 z m 1024 885 b 1168 779 1063 808 1124 757 b 1150 931 1215 801 1214 846 b 1038 997 1106 990 1076 1017 b 1024 885 997 978 1003 924 z m 1171 951 b 1304 854 1211 882 1250 828 b 1306 990 1351 878 1346 921 b 1186 1065 1267 1056 1226 1085 b 1171 951 1146 1044 1149 990 z "},"け":{"ha":0,"x_min":0,"x_max":0,"o":"m 442 825 b 353 996 449 914 404 981 b 199 872 301 1010 226 983 b 233 293 154 693 204 381 b 382 167 263 204 301 154 b 471 332 461 179 485 258 b 442 825 456 406 433 738 z m 1164 818 b 1097 836 1153 825 1128 831 b 1035 892 1051 843 1039 858 b 911 1047 1025 972 986 1047 b 793 890 838 1047 786 979 b 754 849 797 856 768 849 b 683 843 724 847 699 844 b 531 699 571 826 531 772 b 693 581 531 625 611 581 b 747 581 704 581 724 578 b 801 522 790 583 806 556 b 682 163 776 303 708 229 b 742 -10 653 89 658 28 b 967 213 829 -49 917 78 b 1033 531 1004 310 1024 424 b 1082 581 1036 565 1054 576 b 1233 683 1147 588 1226 632 b 1164 818 1242 735 1224 782 z "},"げ":{"ha":0,"x_min":0,"x_max":0,"o":"m 442 825 b 353 996 449 914 404 981 b 199 872 301 1010 226 983 b 233 293 154 693 204 381 b 382 167 263 204 301 154 b 471 332 461 179 485 258 b 442 825 456 406 433 738 z m 1188 825 b 1163 974 1226 850 1222 893 b 1049 1040 1117 1033 1089 1060 b 1035 928 1008 1021 1014 967 b 1090 850 1050 896 1071 869 b 1082 839 1103 839 1088 838 b 1035 892 1049 847 1038 863 b 911 1047 1025 972 985 1047 b 793 890 843 1039 786 979 b 754 849 797 856 768 849 b 683 843 724 847 699 844 b 531 699 571 826 531 772 b 693 581 531 624 611 581 b 747 581 703 581 724 578 b 801 522 790 583 806 556 b 682 163 776 303 708 229 b 742 -10 653 89 658 28 b 967 213 829 -49 917 78 b 1033 531 1004 310 1024 424 b 1082 581 1036 565 1054 576 b 1233 683 1147 588 1226 632 b 1186 803 1240 728 1228 768 b 1188 825 1168 817 1185 824 z m 1317 1033 b 1197 1108 1278 1097 1238 1128 b 1183 993 1157 1088 1161 1033 b 1315 897 1222 925 1263 871 b 1317 1033 1363 921 1358 964 z "},"こ":{"ha":0,"x_min":0,"x_max":0,"o":"m 565 778 b 824 658 657 763 778 701 b 983 643 875 610 938 613 b 1007 797 1029 674 1044 736 b 603 1018 954 881 756 1018 b 421 911 526 1018 436 1003 b 565 778 408 836 468 794 z m 324 264 b 704 31 394 136 556 50 b 968 114 863 11 953 50 b 874 272 982 176 946 271 b 543 413 739 278 614 321 b 360 483 485 488 431 519 b 324 264 289 449 261 378 z "},"ご":{"ha":0,"x_min":0,"x_max":0,"o":"m 565 778 b 824 658 657 763 778 701 b 983 643 875 610 938 613 b 1007 797 1029 674 1044 736 b 603 1018 954 881 756 1018 b 421 911 526 1018 436 1003 b 565 778 408 836 468 794 z m 324 264 b 704 31 394 136 556 50 b 968 114 863 11 953 50 b 874 272 982 176 946 271 b 543 413 739 278 614 321 b 360 483 485 488 431 519 b 324 264 289 449 261 378 z m 963 915 b 1107 808 1001 839 1063 786 b 1089 961 1154 832 1153 876 b 976 1028 1044 1021 1015 1047 b 963 915 936 1007 942 954 z m 1111 981 b 1243 885 1150 911 1189 858 b 1244 1021 1290 908 1285 951 b 1125 1096 1206 1085 1172 1111 b 1111 981 1085 1075 1088 1019 z "},"さ":{"ha":0,"x_min":0,"x_max":0,"o":"m 999 708 b 1083 864 1071 739 1103 782 b 947 944 1069 925 1013 958 b 893 933 936 942 917 938 b 801 985 829 919 808 965 b 789 1018 797 997 793 1008 b 644 1104 756 1104 710 1124 b 568 935 579 1085 546 1026 b 526 858 581 879 544 861 b 453 846 496 853 471 849 b 318 683 360 831 301 767 b 494 597 333 601 406 590 b 617 613 528 600 572 601 b 724 572 669 625 697 607 b 824 447 756 528 789 486 b 1042 407 904 358 989 349 b 960 639 1103 446 1051 521 b 999 708 931 676 979 700 z m 792 171 b 579 299 719 201 644 232 b 375 483 507 374 481 500 b 319 235 283 468 261 349 b 675 -43 394 83 533 -24 b 865 26 772 -56 828 -49 b 792 171 893 81 850 146 z "},"ざ":{"ha":0,"x_min":0,"x_max":0,"o":"m 792 171 b 579 299 719 201 644 232 b 375 483 507 374 481 500 b 319 235 283 468 261 349 b 675 -43 394 83 533 -24 b 865 26 772 -56 828 -49 b 792 171 893 81 850 146 z m 983 1054 b 954 986 957 1040 947 1013 b 932 942 963 951 938 943 b 893 933 922 939 908 936 b 801 985 829 919 808 965 b 789 1018 797 997 793 1008 b 644 1104 756 1104 710 1124 b 568 935 579 1085 546 1026 b 526 858 581 879 544 861 b 453 846 496 853 471 849 b 318 683 360 831 301 767 b 494 597 333 601 406 590 b 617 613 528 600 572 601 b 724 572 669 625 697 607 b 824 447 756 528 789 486 b 1042 407 904 358 989 349 b 960 639 1103 446 1051 521 b 999 708 931 676 979 700 b 1088 801 1050 731 1078 758 b 1114 835 1092 821 1107 831 b 1096 988 1161 858 1160 903 b 983 1054 1051 1047 1022 1074 z m 1251 1046 b 1132 1121 1213 1111 1172 1142 b 1118 1007 1092 1101 1094 1046 b 1250 911 1157 938 1196 885 b 1251 1046 1297 935 1293 976 z "},"し":{"ha":0,"x_min":0,"x_max":0,"o":"m 367 879 b 454 115 340 619 342 242 b 885 24 567 -12 744 -22 b 1051 193 997 61 1057 114 b 885 293 1044 274 958 326 b 639 333 813 260 699 247 b 621 856 579 419 621 763 b 513 1017 621 949 586 1003 b 367 879 439 1029 375 960 z "},"じ":{"ha":0,"x_min":0,"x_max":0,"o":"m 367 879 b 454 115 340 619 342 242 b 885 24 567 -12 744 -22 b 1051 193 997 61 1057 114 b 885 293 1044 274 958 326 b 639 333 813 260 699 247 b 621 856 579 419 621 763 b 513 1017 621 949 586 1003 b 367 879 439 1029 375 960 z m 882 904 b 1028 797 921 828 983 775 b 1008 950 1074 821 1072 865 b 896 1017 964 1010 936 1036 b 882 904 856 996 861 943 z m 1031 969 b 1163 874 1069 900 1108 847 b 1164 1010 1210 897 1206 940 b 1044 1085 1125 1074 1085 1104 b 1031 969 1004 1064 1008 1008 z "},"す":{"ha":0,"x_min":0,"x_max":0,"o":"m 1210 822 b 1082 932 1203 885 1151 935 b 961 931 1064 931 1019 931 b 893 992 942 931 900 938 b 768 1103 885 1050 849 1096 b 644 988 708 1107 640 1064 b 588 935 646 940 607 933 b 396 936 500 935 428 936 b 226 788 296 939 211 872 b 394 683 242 703 300 688 b 603 683 436 682 514 678 b 647 663 629 685 647 674 b 613 649 647 649 629 647 b 406 589 554 656 460 633 b 378 294 335 531 290 414 b 582 214 440 210 538 208 b 606 200 596 215 613 211 b 557 163 600 190 588 179 b 453 49 515 140 444 104 b 567 -53 461 -14 503 -49 b 789 50 632 -57 721 -33 b 894 447 865 144 888 260 b 900 638 897 506 900 571 b 956 692 900 668 918 692 b 1104 700 1026 693 1082 699 b 1210 822 1186 710 1218 744 z m 585 390 b 529 467 544 389 517 438 b 636 483 543 494 607 517 b 585 390 667 450 654 392 z "},"ず":{"ha":0,"x_min":0,"x_max":0,"o":"m 1188 881 b 1140 964 1181 903 1165 931 b 1026 1031 1096 1024 1067 1050 b 997 965 1001 1018 997 993 b 961 931 999 936 978 931 b 893 992 942 931 900 938 b 768 1103 885 1050 849 1096 b 644 988 708 1107 640 1064 b 588 935 646 940 607 933 b 396 936 500 935 428 936 b 226 788 296 939 211 872 b 394 683 242 703 300 688 b 603 683 436 682 514 678 b 647 663 629 685 647 674 b 613 649 647 649 629 647 b 404 589 554 656 460 633 b 378 294 335 531 290 414 b 582 214 440 210 538 208 b 606 200 596 215 613 211 b 557 163 600 190 588 179 b 453 49 515 140 444 104 b 567 -53 461 -14 503 -49 b 789 50 632 -57 721 -33 b 894 447 865 144 888 260 b 900 638 897 506 900 571 b 956 692 900 668 918 692 b 1104 700 1026 693 1082 699 b 1210 822 1186 710 1218 744 b 1188 881 1207 843 1199 864 z m 585 390 b 529 467 544 389 517 438 b 636 483 543 494 607 517 b 585 390 667 450 654 392 z m 1294 1024 b 1175 1099 1256 1088 1215 1118 b 1161 983 1135 1078 1139 1024 b 1294 888 1201 915 1240 861 b 1294 1024 1340 911 1336 954 z "},"せ":{"ha":0,"x_min":0,"x_max":0,"o":"m 1132 854 b 1097 858 1121 857 1108 857 b 1021 929 1069 860 1024 867 b 925 1014 1019 968 988 1010 b 819 946 878 1018 833 989 b 813 910 817 935 815 922 b 757 857 806 876 786 857 b 640 858 714 856 657 856 b 582 914 613 861 585 879 b 575 944 581 924 579 935 b 494 1018 560 992 533 1017 b 381 957 436 1019 401 1001 b 367 910 375 944 371 926 b 329 869 364 893 358 869 b 236 858 307 868 271 867 b 139 744 175 843 136 797 b 208 638 142 668 189 644 b 289 628 222 632 257 631 b 349 564 335 625 350 593 b 401 217 349 474 356 314 b 747 -1 464 88 592 1 b 835 -3 778 -3 807 -3 b 1071 63 950 -3 1029 8 b 1083 175 1096 96 1100 138 b 1003 236 1068 210 1036 233 b 913 236 979 238 946 236 b 846 233 890 235 869 233 b 696 254 786 233 739 240 b 578 554 583 290 571 460 b 633 613 582 607 633 613 l 754 613 b 808 553 754 613 806 613 b 817 500 810 529 814 508 b 907 422 833 449 863 424 l 910 422 b 1000 478 946 422 985 446 b 1019 579 1013 506 1018 547 b 1060 619 1021 597 1032 622 b 1124 622 1088 618 1104 621 b 1244 736 1182 628 1244 669 b 1132 854 1244 826 1190 846 z "},"ぜ":{"ha":0,"x_min":0,"x_max":0,"o":"m 1210 856 b 1160 972 1215 882 1199 919 b 1046 1038 1115 1032 1086 1058 b 1032 925 1007 1018 1013 965 b 1058 882 1040 910 1049 894 b 1056 868 1067 872 1063 864 b 1021 929 1038 876 1022 894 b 925 1014 1019 968 988 1010 b 819 946 878 1018 833 989 b 813 910 817 935 815 922 b 757 857 806 876 786 857 b 640 858 714 856 657 856 b 582 914 613 861 585 879 b 575 944 581 924 579 935 b 494 1018 560 992 533 1017 b 381 957 436 1019 401 1001 b 367 910 375 944 371 926 b 329 869 364 893 358 869 b 236 858 307 868 271 867 b 139 744 175 843 136 797 b 208 638 142 668 189 644 b 289 628 222 632 257 631 b 349 564 335 625 350 593 b 401 217 349 474 356 314 b 747 -1 464 88 592 1 b 835 -3 778 -3 807 -3 b 1071 63 950 -3 1029 8 b 1083 175 1096 96 1100 138 b 1003 236 1068 210 1036 233 b 913 236 979 238 946 236 b 846 233 890 235 869 233 b 696 254 786 233 739 240 b 578 554 583 290 571 460 b 633 613 582 607 633 613 l 754 613 b 808 553 754 613 806 613 b 817 500 810 529 814 508 b 907 422 833 449 863 424 l 910 422 b 1000 478 946 422 985 446 b 1019 579 1013 506 1018 547 b 1060 619 1021 597 1032 622 b 1124 622 1088 618 1104 621 b 1244 736 1182 628 1244 669 b 1218 819 1244 775 1235 801 b 1210 856 1213 825 1206 839 z m 1314 1031 b 1196 1106 1275 1096 1236 1126 b 1181 992 1154 1086 1158 1031 b 1314 896 1221 922 1260 868 b 1314 1031 1361 919 1356 961 z "},"そ":{"ha":0,"x_min":0,"x_max":0,"o":"m 1038 140 b 1001 161 1025 147 1013 154 b 922 247 963 182 926 201 b 963 393 915 310 931 361 b 1051 549 1026 457 1056 506 b 949 649 1049 590 1011 649 l 714 649 b 710 678 714 649 671 656 b 999 933 807 733 982 839 b 974 1017 1003 958 993 992 b 901 1058 961 1035 938 1056 b 829 1060 886 1060 864 1060 b 626 1057 772 1060 694 1058 b 493 1054 569 1056 522 1054 b 350 936 399 1054 350 994 b 447 829 350 871 401 835 b 500 826 461 828 478 826 b 525 799 529 826 554 815 b 356 679 472 767 399 718 b 328 654 346 669 336 661 b 253 514 272 604 242 576 b 408 418 265 451 317 418 l 665 418 b 703 364 665 418 718 426 b 699 183 693 319 679 258 b 896 -40 732 51 822 -19 b 960 -51 919 -47 940 -51 b 1056 3 1003 -51 1035 -33 b 1038 140 1078 39 1085 108 z "},"ぞ":{"ha":0,"x_min":0,"x_max":0,"o":"m 990 1044 b 942 1046 965 1032 953 1040 b 901 1058 931 1053 917 1057 b 829 1060 886 1060 864 1060 b 626 1057 772 1060 694 1058 b 493 1054 569 1056 522 1054 b 350 936 399 1054 350 994 b 447 829 350 871 401 835 b 500 826 461 828 478 826 b 525 799 529 826 554 815 b 356 679 472 767 399 718 b 328 654 346 669 336 661 b 253 514 272 604 242 576 b 408 418 265 451 317 418 l 665 418 b 703 364 665 418 718 426 b 699 183 693 319 679 258 b 896 -40 732 51 822 -19 b 960 -51 919 -47 940 -51 b 1056 3 1003 -51 1035 -33 b 1038 140 1078 39 1085 108 b 1001 161 1025 147 1013 154 b 922 247 963 182 926 201 b 963 393 915 310 931 361 b 1051 549 1026 457 1056 506 b 947 649 1049 590 1011 649 l 714 649 b 710 678 714 649 671 656 b 971 875 788 722 914 799 b 1008 882 978 886 990 901 b 1122 826 1049 839 1088 810 b 1103 979 1168 850 1167 893 b 990 1044 1058 1039 1029 1065 z m 1258 1038 b 1139 1113 1219 1103 1179 1133 b 1125 999 1099 1093 1103 1038 b 1257 903 1164 929 1203 875 b 1258 1038 1304 926 1300 968 z "},"た":{"ha":0,"x_min":0,"x_max":0,"o":"m 813 656 b 953 756 900 658 951 693 b 860 897 956 818 921 888 b 765 906 843 899 808 903 b 715 961 722 908 715 931 b 638 1092 717 1024 704 1071 b 488 986 572 1114 531 1071 b 407 928 468 946 456 921 b 382 929 397 929 389 929 b 214 785 276 933 206 872 b 351 681 221 710 278 689 b 386 621 388 676 392 640 b 264 167 335 433 275 217 b 335 -29 244 83 246 -10 b 496 96 422 -47 471 18 b 639 600 515 154 588 401 b 719 658 644 621 667 661 b 813 656 757 656 790 656 z m 897 583 b 757 446 796 576 736 506 b 900 369 778 386 831 372 b 1097 353 942 368 1033 356 b 1176 503 1163 350 1225 419 b 897 583 1133 578 1015 590 z m 1110 210 b 874 246 1064 213 946 229 b 713 174 790 265 735 244 b 883 -12 685 83 771 18 b 1196 65 996 -43 1171 -32 b 1110 210 1221 163 1157 208 z "},"だ":{"ha":0,"x_min":0,"x_max":0,"o":"m 813 656 b 953 756 900 658 951 693 b 860 897 956 818 921 888 b 765 906 843 899 808 903 b 715 961 722 908 715 931 b 638 1092 717 1024 704 1071 b 488 986 572 1114 531 1071 b 407 928 468 946 456 921 b 382 929 397 929 389 929 b 214 785 276 933 206 872 b 351 681 221 710 278 689 b 386 621 388 676 392 640 b 264 167 335 433 275 217 b 335 -29 244 83 246 -10 b 496 96 422 -47 471 18 b 639 600 515 154 588 401 b 719 658 644 621 667 661 b 813 656 757 656 790 656 z m 897 583 b 757 446 796 576 736 506 b 900 369 778 386 831 372 b 1097 353 942 368 1033 356 b 1176 503 1163 350 1225 419 b 897 583 1133 578 1015 590 z m 1110 210 b 874 246 1064 213 946 229 b 713 174 790 265 735 244 b 883 -12 685 83 771 18 b 1196 65 996 -43 1171 -32 b 1110 210 1221 163 1157 208 z m 969 914 b 1114 808 1008 838 1069 786 b 1096 961 1161 832 1160 876 b 983 1028 1051 1021 1022 1047 b 969 914 943 1007 949 954 z m 1118 981 b 1250 885 1157 911 1196 858 b 1251 1019 1297 908 1293 951 b 1132 1094 1213 1085 1186 1111 b 1118 981 1092 1075 1094 1019 z "},"ち":{"ha":0,"x_min":0,"x_max":0,"o":"m 946 556 b 707 617 867 614 767 619 b 669 657 675 615 663 629 b 750 708 679 692 692 707 b 851 711 794 711 832 710 b 990 825 946 718 986 772 b 878 929 993 878 953 929 b 814 929 864 929 842 929 b 763 971 796 929 756 933 b 685 1118 775 1044 756 1101 b 529 1014 618 1133 554 1092 b 432 931 508 949 478 928 b 386 932 414 933 399 932 b 256 818 299 933 251 878 b 382 717 260 760 304 724 b 432 661 435 713 436 676 b 418 611 426 640 422 624 b 390 414 400 549 368 458 b 553 378 413 371 488 349 b 756 401 626 411 706 418 b 842 274 790 390 861 372 b 700 163 828 201 760 175 b 597 56 642 150 606 113 b 694 -58 590 6 628 -49 b 896 -21 765 -71 808 -65 b 1081 244 983 22 1065 135 b 946 556 1096 354 1068 464 z "},"ぢ":{"ha":0,"x_min":0,"x_max":0,"o":"m 1064 817 b 1046 968 1110 839 1108 883 b 932 1035 1001 1028 972 1054 b 906 958 904 1021 897 989 b 878 929 913 932 892 929 b 814 929 864 929 842 929 b 763 971 796 929 756 933 b 685 1118 775 1043 756 1101 b 529 1014 618 1133 554 1092 b 432 931 508 949 478 928 b 386 932 414 933 399 932 b 256 818 299 933 251 878 b 382 717 260 760 304 724 b 432 661 435 713 438 676 b 418 611 426 640 422 624 b 390 414 400 549 368 458 b 553 378 413 371 488 349 b 756 401 626 411 706 417 b 842 274 790 390 861 372 b 700 163 828 201 760 175 b 597 56 642 150 606 113 b 694 -58 590 6 628 -49 b 896 -21 765 -71 808 -65 b 1081 244 983 22 1065 135 b 946 556 1096 354 1068 464 b 707 617 867 614 767 619 b 669 657 675 615 663 629 b 750 708 679 692 692 707 b 853 711 794 711 832 710 b 985 799 931 717 971 756 b 1008 819 988 807 992 829 b 1064 817 1028 808 1047 808 z m 1200 1028 b 1081 1103 1161 1093 1121 1124 b 1067 989 1040 1082 1044 1028 b 1199 893 1106 919 1146 865 b 1200 1028 1246 915 1242 958 z "},"っ":{"ha":0,"x_min":0,"x_max":0,"o":"m 931 569 b 688 636 882 614 800 636 b 513 624 621 636 556 629 l 499 622 b 369 513 421 613 369 569 b 392 456 369 489 376 469 b 476 429 410 438 439 428 b 531 433 496 429 511 432 b 625 443 556 438 583 442 b 671 446 640 443 656 444 b 732 449 692 447 713 449 b 828 399 789 449 818 433 b 739 242 854 299 793 268 l 732 238 b 629 121 675 210 625 179 b 725 39 633 72 672 39 b 753 43 733 39 743 40 b 974 206 853 64 928 119 b 931 569 1032 313 1042 467 z "},"つ":{"ha":0,"x_min":0,"x_max":0,"o":"m 356 632 b 579 653 421 633 465 649 b 892 579 693 656 860 697 b 743 329 933 415 825 369 b 594 163 661 289 588 246 b 768 53 601 82 676 33 b 1093 293 860 74 1001 124 b 1029 826 1185 463 1182 686 b 390 903 876 968 535 919 b 206 749 278 890 206 829 b 356 632 206 671 264 629 z "},"づ":{"ha":0,"x_min":0,"x_max":0,"o":"m 356 632 b 579 653 421 633 465 649 b 892 579 693 656 860 697 b 743 329 933 415 825 369 b 594 163 661 289 588 246 b 768 53 601 82 676 33 b 1093 293 860 74 1001 124 b 1029 826 1185 463 1182 686 b 390 903 876 968 535 919 b 206 749 278 890 206 829 b 356 632 206 671 264 629 z m 1033 914 b 1179 808 1074 838 1135 786 b 1161 961 1225 832 1224 876 b 1047 1028 1117 1021 1088 1047 b 1033 914 1008 1007 1013 954 z m 1182 981 b 1315 885 1222 911 1261 858 b 1315 1019 1361 908 1357 951 b 1196 1094 1276 1085 1238 1115 b 1182 981 1156 1075 1160 1019 z "},"て":{"ha":0,"x_min":0,"x_max":0,"o":"m 674 717 b 719 672 717 718 735 707 b 699 235 672 565 635 378 b 1011 -7 778 53 922 -32 b 1076 197 1106 21 1129 119 b 940 428 1046 242 928 253 b 1051 769 954 636 1011 647 b 928 969 1093 890 1024 958 b 433 975 838 981 540 975 b 218 850 325 974 218 960 b 357 721 219 742 297 726 b 674 717 442 714 588 715 z "},"で":{"ha":0,"x_min":0,"x_max":0,"o":"m 674 717 b 719 672 717 718 735 707 b 699 235 672 565 635 378 b 1011 -7 778 53 922 -32 b 1076 197 1106 21 1129 119 b 940 428 1046 242 928 253 b 1051 769 954 636 1011 647 b 928 969 1093 890 1024 958 b 433 975 838 981 540 975 b 218 850 325 974 218 960 b 357 721 219 742 297 726 b 674 717 442 714 588 715 z m 1050 922 b 1196 817 1090 846 1151 794 b 1178 968 1242 839 1240 883 b 1064 1035 1133 1028 1104 1054 b 1050 922 1025 1015 1029 961 z m 1199 989 b 1332 892 1239 919 1278 865 b 1332 1028 1378 915 1374 958 b 1213 1103 1293 1093 1253 1122 b 1199 989 1172 1082 1176 1028 z "},"と":{"ha":0,"x_min":0,"x_max":0,"o":"m 336 469 b 389 108 272 303 297 201 b 821 -12 507 -11 664 -15 b 1072 99 971 -8 1047 7 b 956 231 1096 186 1022 221 b 551 340 888 239 524 172 b 940 629 568 432 825 588 b 1089 769 1054 671 1090 722 b 947 881 1086 817 1029 892 b 697 781 850 868 756 818 b 603 807 660 756 622 764 b 561 900 590 833 575 865 b 418 1031 533 972 472 1029 b 296 906 339 1035 293 971 b 404 665 299 860 363 739 b 401 567 422 632 426 603 b 336 469 378 535 346 494 z "},"ど":{"ha":0,"x_min":0,"x_max":0,"o":"m 940 629 b 1089 769 1054 671 1090 722 b 1074 814 1088 783 1083 799 b 1065 867 1061 838 1064 856 b 1015 976 1067 892 1051 928 b 901 1043 971 1036 942 1063 b 888 931 863 1022 867 969 b 903 903 893 921 899 913 b 888 868 918 878 899 871 b 697 781 813 847 744 810 b 603 807 660 756 622 764 b 561 900 590 833 575 865 b 418 1031 533 972 472 1029 b 296 906 339 1035 293 971 b 404 665 299 860 363 739 b 401 567 422 632 426 603 b 336 469 378 533 346 494 b 389 108 272 303 297 201 b 821 -12 507 -11 664 -15 b 1072 99 971 -8 1047 7 b 956 231 1096 186 1022 221 b 551 340 888 239 524 172 b 940 629 568 432 825 588 z m 1169 1036 b 1050 1111 1131 1100 1090 1131 b 1036 996 1010 1090 1014 1035 b 1169 900 1076 926 1115 874 b 1169 1036 1215 924 1211 967 z "},"な":{"ha":0,"x_min":0,"x_max":0,"o":"m 644 686 b 792 800 744 693 789 743 b 700 903 794 850 763 892 b 671 947 690 904 664 914 b 614 1092 682 1006 674 1072 b 439 981 525 1119 471 1069 b 338 918 422 932 385 917 b 186 793 243 919 182 857 b 268 703 189 744 219 724 b 290 657 303 688 296 669 b 221 486 256 583 228 517 b 288 342 203 414 233 354 b 436 400 342 328 401 333 b 544 632 449 422 494 525 b 644 686 565 675 624 685 z m 1263 632 b 1150 764 1240 674 1189 719 b 993 797 1096 826 1038 840 b 994 653 949 756 958 697 b 1117 525 1014 629 1067 561 b 1239 518 1167 489 1214 500 b 1263 632 1265 536 1285 590 z m 993 344 b 1004 476 993 344 1004 415 b 903 607 1004 536 981 597 b 796 482 825 617 800 550 b 738 411 792 429 771 408 b 489 338 657 418 547 401 b 456 36 415 257 392 119 b 785 -50 519 -49 661 -87 b 925 58 865 -28 907 21 b 1010 93 946 103 975 99 b 1124 136 1054 86 1103 100 b 1114 261 1140 168 1149 210 b 993 344 1081 311 993 344 z m 744 164 b 668 136 742 147 697 129 b 633 186 640 143 628 160 b 711 211 640 214 685 214 b 744 164 738 207 749 181 z "},"に":{"ha":0,"x_min":0,"x_max":0,"o":"m 508 185 b 499 224 504 199 500 213 b 492 257 497 232 494 243 b 460 560 478 322 453 432 b 488 736 463 624 476 683 b 506 861 499 785 507 828 b 394 1004 503 944 460 1000 b 246 851 328 1008 272 950 b 206 532 226 779 201 668 b 282 129 210 349 231 236 b 435 7 317 54 375 7 b 489 24 454 7 474 13 b 508 185 546 63 525 133 z m 1149 853 b 936 946 1113 896 1029 933 b 875 950 917 949 897 950 b 683 903 796 950 724 932 b 625 807 651 879 631 844 b 642 740 622 781 628 757 b 765 711 674 699 707 692 b 890 726 796 722 836 726 b 979 711 928 726 950 719 b 1044 694 997 706 1018 700 b 1079 692 1057 692 1068 692 b 1163 739 1136 692 1157 725 b 1149 853 1174 767 1185 808 z m 1178 181 b 1043 292 1171 251 1099 299 b 1011 290 1033 292 1024 290 b 824 324 947 290 856 304 b 750 342 803 335 776 342 b 644 292 704 342 665 324 b 674 125 610 239 621 175 b 849 54 711 90 774 65 b 969 43 894 47 931 43 b 1068 54 1001 43 1033 46 b 1178 181 1167 76 1182 135 z "},"ぬ":{"ha":0,"x_min":0,"x_max":0,"o":"m 1294 246 b 1233 300 1281 267 1256 286 b 1182 396 1217 306 1179 332 b 1150 582 1183 450 1175 522 b 1031 738 1122 650 1071 704 b 989 833 1006 758 974 782 b 994 864 992 844 993 854 b 940 992 1003 911 993 972 b 801 951 875 1018 828 1003 b 778 893 792 932 783 911 b 728 851 765 856 746 851 b 578 836 689 851 638 846 b 514 861 560 833 524 822 b 401 983 490 950 453 990 b 307 853 369 979 294 958 b 319 779 308 829 313 804 b 283 676 333 726 299 692 b 207 583 254 647 228 617 b 158 267 163 514 129 385 b 288 90 178 189 222 128 b 410 58 325 69 367 58 b 517 79 444 58 482 64 b 581 65 551 93 572 72 b 654 33 610 40 635 33 b 689 40 667 33 679 36 b 736 157 726 57 758 97 l 725 188 b 735 247 708 215 729 240 b 871 519 797 329 840 447 b 951 542 892 568 929 565 b 978 499 961 529 972 515 b 990 425 989 472 992 446 b 956 390 988 394 967 390 b 810 336 910 390 847 375 b 776 111 760 282 732 188 b 971 22 814 44 904 22 b 1021 26 989 22 1006 24 b 1122 93 1069 35 1101 67 b 1204 113 1143 121 1175 121 b 1290 139 1242 100 1272 110 l 1294 144 b 1294 246 1308 168 1328 197 z m 667 647 b 686 604 692 644 693 622 b 650 511 678 579 665 546 b 611 514 643 494 617 497 b 590 583 606 538 599 560 b 621 643 575 624 606 639 b 667 647 636 646 651 649 z m 361 329 b 371 443 344 357 350 399 b 414 439 386 472 408 457 b 453 322 426 403 439 363 b 438 290 456 313 457 292 b 361 329 403 286 375 304 z m 976 193 b 939 181 967 183 954 179 b 901 215 913 183 901 200 b 967 254 903 235 922 257 b 992 224 988 253 994 235 b 976 193 988 213 983 201 z "},"ね":{"ha":0,"x_min":0,"x_max":0,"o":"m 1250 300 b 1165 371 1235 322 1196 350 b 1128 442 1142 386 1125 390 b 1061 746 1132 513 1129 650 b 713 832 979 860 851 885 b 667 857 686 822 672 846 b 606 906 654 881 633 899 b 564 954 597 908 569 917 b 451 1053 554 1010 515 1057 b 346 942 383 1049 353 1008 b 283 896 346 933 340 896 b 150 778 204 897 149 849 b 282 672 151 708 207 672 b 339 626 331 672 338 643 b 304 535 343 574 314 546 b 193 403 251 479 211 431 b 179 208 135 318 132 251 b 296 204 207 182 257 181 b 329 192 308 213 331 225 b 331 86 328 139 329 101 b 431 -17 335 10 394 -17 b 551 81 467 -17 551 4 b 557 436 551 114 557 268 b 599 533 558 485 585 521 b 783 640 650 576 710 618 b 922 581 861 664 899 651 b 932 533 928 563 931 547 b 867 471 935 476 893 472 b 682 393 810 467 725 444 b 669 96 611 311 604 193 b 976 6 724 15 856 -24 b 1119 150 1097 36 1119 150 b 1257 176 1167 128 1232 146 b 1250 300 1281 208 1278 260 z m 917 215 b 857 182 907 194 883 178 b 815 253 806 190 801 226 b 900 275 829 278 868 293 b 917 215 931 256 925 236 z "},"の":{"ha":0,"x_min":0,"x_max":0,"o":"m 790 596 b 847 643 789 635 803 663 b 953 503 883 625 929 588 b 864 142 1010 310 874 253 b 1043 67 858 76 964 -17 b 1135 636 1100 128 1256 331 b 426 886 1022 915 686 971 b 188 329 154 799 118 492 b 597 199 224 244 378 100 b 790 596 771 278 790 490 z m 392 565 b 575 647 433 654 551 686 b 449 422 604 599 588 408 b 392 565 392 428 357 490 z "},"は":{"ha":0,"x_min":0,"x_max":0,"o":"m 357 1003 b 189 815 260 1028 219 932 b 175 224 158 700 139 382 b 365 28 211 65 297 3 b 424 229 432 53 449 83 b 428 754 399 378 386 518 b 357 1003 450 875 454 979 z m 1240 719 b 1174 844 1247 750 1235 825 b 1114 854 1160 849 1140 851 b 1046 917 1096 856 1053 864 b 851 953 1026 1076 872 1058 b 847 928 850 944 847 936 b 786 861 844 861 806 863 b 763 861 778 861 771 861 b 619 739 649 854 619 800 b 758 647 619 678 685 647 b 799 647 767 647 781 649 b 865 582 847 643 863 625 b 869 475 867 540 869 503 b 814 426 869 429 832 425 b 564 175 649 433 536 301 b 844 4 594 35 686 4 b 1058 144 1004 4 1058 144 b 1217 260 1186 108 1254 199 b 1121 335 1197 293 1156 318 b 1071 422 1090 350 1068 365 b 1076 540 1074 456 1076 499 b 1075 601 1076 558 1076 579 b 1138 653 1074 628 1093 650 b 1240 719 1186 657 1235 690 z m 871 208 b 774 165 865 176 822 150 b 779 267 733 179 718 246 b 871 208 840 289 878 246 z "},"ば":{"ha":0,"x_min":0,"x_max":0,"o":"m 357 1003 b 189 815 260 1028 219 932 b 175 224 158 700 139 382 b 365 28 211 65 297 3 b 424 229 432 53 449 83 b 428 754 399 378 386 518 b 357 1003 450 875 454 979 z m 1228 846 b 1182 972 1240 872 1226 911 b 1068 1038 1138 1032 1108 1058 b 1054 925 1028 1018 1033 965 b 1082 882 1063 910 1069 893 b 1074 868 1093 869 1083 861 b 1046 917 1061 876 1049 892 b 851 953 1028 1076 872 1058 b 847 928 850 944 847 936 b 786 861 844 861 806 863 b 763 861 778 861 771 861 b 619 739 649 854 619 800 b 758 647 619 678 685 647 b 799 647 767 647 781 649 b 865 582 847 643 863 625 b 869 475 868 540 869 503 b 814 426 869 429 832 425 b 564 175 649 433 538 301 b 844 4 594 35 686 4 b 1058 144 1004 4 1058 144 b 1217 260 1186 108 1254 199 b 1121 335 1197 293 1156 318 b 1071 422 1090 350 1068 365 b 1076 540 1074 456 1076 499 b 1075 601 1076 558 1076 579 b 1138 653 1074 628 1093 650 b 1240 719 1186 657 1235 690 b 1226 799 1244 738 1242 771 b 1228 846 1222 807 1218 824 z m 871 208 b 774 165 865 176 822 150 b 779 267 733 179 718 246 b 871 208 840 289 878 246 z m 1336 1031 b 1217 1106 1297 1096 1257 1126 b 1203 992 1176 1086 1181 1031 b 1335 896 1242 922 1282 868 b 1336 1031 1382 919 1378 961 z "},"ぱ":{"ha":0,"x_min":0,"x_max":0,"o":"m 357 1003 b 189 815 260 1028 219 932 b 175 224 158 700 139 382 b 365 28 211 65 297 3 b 424 229 432 53 449 83 b 428 754 399 378 386 518 b 357 1003 450 875 454 979 z m 1278 1113 b 1046 996 1183 1179 1051 1090 b 1075 876 1043 950 1053 908 b 1069 871 1079 871 1075 867 b 1046 917 1058 879 1049 894 b 851 953 1026 1076 872 1058 b 847 928 850 944 847 936 b 786 861 844 861 806 863 b 763 861 778 861 771 861 b 619 739 649 854 619 800 b 758 647 619 678 685 647 b 799 647 767 647 781 649 b 865 582 847 643 863 625 b 869 475 867 540 869 503 b 814 426 869 429 832 425 b 564 175 649 433 536 301 b 844 4 594 35 686 4 b 1058 144 1004 4 1058 144 b 1217 260 1186 108 1254 199 b 1121 335 1197 293 1156 318 b 1071 422 1090 350 1068 365 b 1076 540 1074 456 1076 499 b 1075 601 1076 558 1076 579 b 1138 653 1074 628 1093 650 b 1240 719 1186 657 1235 690 b 1236 775 1243 733 1243 754 b 1251 811 1233 786 1231 807 b 1367 919 1317 825 1363 882 b 1278 1113 1372 969 1372 1046 z m 871 208 b 774 165 865 176 822 150 b 779 267 733 179 718 246 b 871 208 840 289 878 246 z m 1193 933 b 1186 1000 1157 940 1160 986 b 1246 974 1213 1013 1239 1007 b 1193 933 1253 940 1225 926 z "},"ひ":{"ha":0,"x_min":0,"x_max":0,"o":"m 1269 829 b 1029 907 1251 850 1125 907 b 969 894 1006 907 986 903 l 964 893 b 871 761 932 878 883 854 b 732 349 846 557 800 422 b 599 293 688 300 629 293 b 496 325 550 293 513 308 b 504 665 414 407 447 554 b 546 735 517 689 532 713 b 603 858 574 781 600 824 b 524 968 606 921 576 963 b 294 975 468 975 383 975 b 140 863 207 975 147 932 b 228 742 133 793 181 751 b 271 681 257 736 290 719 b 211 432 243 626 211 540 b 447 67 211 260 300 124 b 613 33 504 44 560 33 b 900 171 718 33 813 79 b 1074 607 1014 290 1057 500 b 1139 647 1081 646 1114 651 b 1192 643 1156 644 1174 643 b 1243 649 1211 643 1228 644 b 1288 700 1263 654 1278 672 b 1269 829 1300 739 1297 796 z "},"び":{"ha":0,"x_min":0,"x_max":0,"o":"m 1193 907 b 1149 982 1186 928 1172 953 b 1036 1049 1104 1042 1076 1068 b 1022 936 996 1029 1003 976 b 1000 904 1035 910 1008 906 b 969 894 989 903 979 899 l 964 893 b 871 761 932 878 883 854 b 732 349 846 557 800 422 b 599 293 688 300 629 293 b 496 325 550 293 513 308 b 504 665 414 407 447 554 b 546 735 517 689 532 713 b 603 858 574 781 600 824 b 524 968 606 921 576 963 b 294 975 468 975 383 975 b 140 863 207 975 147 932 b 228 742 133 793 181 751 b 271 681 257 736 290 719 b 211 432 243 626 211 540 b 447 67 211 260 300 124 b 613 33 504 44 560 33 b 900 171 718 33 813 79 b 1074 607 1014 290 1057 500 b 1139 647 1081 646 1114 651 b 1192 643 1156 644 1174 643 b 1243 649 1211 643 1228 644 b 1288 700 1263 654 1278 672 b 1269 829 1300 739 1297 796 b 1243 847 1265 833 1257 840 b 1193 907 1201 867 1199 892 z m 1304 1042 b 1185 1117 1265 1106 1225 1136 b 1171 1003 1144 1096 1149 1042 b 1303 906 1210 933 1249 879 b 1304 1042 1350 929 1346 972 z "},"ぴ":{"ha":0,"x_min":0,"x_max":0,"o":"m 1278 1113 b 1046 996 1183 1179 1051 1090 b 1050 933 1044 975 1044 953 b 1029 907 1060 908 1039 907 b 969 894 1006 907 986 903 l 964 893 b 871 761 932 878 883 854 b 732 349 846 557 800 422 b 599 293 688 300 629 293 b 496 325 550 293 513 308 b 504 665 414 407 447 554 b 546 735 517 689 532 713 b 603 858 574 781 600 824 b 524 968 606 921 576 963 b 294 975 468 975 383 975 b 140 863 207 975 147 932 b 228 742 133 793 181 751 b 271 681 257 736 290 719 b 211 432 243 626 211 540 b 447 67 211 260 300 124 b 613 33 504 44 560 33 b 900 171 718 33 813 79 b 1074 607 1014 290 1057 500 b 1139 647 1081 646 1114 651 b 1192 643 1156 644 1174 643 b 1243 649 1211 643 1228 644 b 1288 700 1263 654 1278 672 b 1290 781 1294 724 1297 754 b 1308 839 1288 794 1286 819 b 1367 919 1340 864 1364 894 b 1278 1113 1372 969 1372 1046 z m 1186 1000 b 1246 974 1213 1013 1239 1007 b 1193 933 1253 940 1225 926 b 1186 1000 1157 940 1160 986 z "},"ふ":{"ha":0,"x_min":0,"x_max":0,"o":"m 900 883 b 744 1026 876 925 818 979 b 639 1061 711 1049 672 1061 b 551 1018 600 1061 569 1046 b 578 861 515 961 524 910 b 694 778 614 831 656 804 l 714 765 b 804 738 742 747 774 738 b 882 767 835 738 863 747 b 900 883 915 799 922 842 z m 1199 442 b 1076 524 1168 492 1119 524 b 1031 511 1060 524 1044 519 b 992 368 978 479 965 431 b 1068 213 1011 322 1040 256 b 1182 150 1092 174 1135 150 b 1221 157 1196 150 1210 153 b 1282 249 1263 171 1285 204 b 1199 442 1279 307 1222 404 z m 800 597 b 665 675 771 636 718 675 b 607 656 643 675 624 668 b 561 583 579 633 564 610 b 600 481 557 551 569 518 b 614 464 604 475 608 469 b 690 313 642 431 685 382 b 669 242 693 283 686 260 b 600 213 650 221 619 213 b 539 222 582 213 561 217 b 458 232 513 226 486 232 b 372 135 404 232 372 174 b 556 -17 372 88 411 -4 b 597 -19 569 -18 585 -19 b 903 217 753 -19 867 69 b 800 597 943 389 835 551 z m 338 531 b 282 546 321 540 301 546 b 165 457 231 546 185 511 b 149 411 158 439 153 424 b 118 310 133 369 125 349 b 183 171 106 239 131 186 b 226 164 197 165 213 164 b 331 225 271 164 308 186 b 390 390 350 263 381 350 b 338 531 403 440 392 503 z "},"ぶ":{"ha":0,"x_min":0,"x_max":0,"o":"m 900 883 b 744 1026 876 925 818 979 b 639 1061 711 1049 672 1061 b 551 1018 600 1061 569 1046 b 578 861 515 961 524 910 b 694 778 614 831 656 804 l 714 765 b 804 738 742 747 774 738 b 882 767 835 738 863 747 b 900 883 915 799 922 842 z m 1199 442 b 1076 524 1168 492 1119 524 b 1031 511 1060 524 1044 519 b 992 368 978 479 965 431 b 1068 213 1011 322 1040 256 b 1182 150 1092 174 1135 150 b 1221 157 1196 150 1210 153 b 1282 249 1263 171 1285 204 b 1199 442 1279 307 1222 404 z m 800 597 b 665 675 771 636 718 675 b 607 656 643 675 624 668 b 561 583 579 633 564 610 b 600 481 557 551 569 518 b 614 464 604 475 608 469 b 690 313 642 431 685 382 b 669 242 693 283 686 260 b 600 213 650 221 619 213 b 539 222 582 213 561 217 b 458 232 513 226 486 232 b 372 135 404 232 372 174 b 556 -17 372 88 411 -4 b 597 -19 569 -18 585 -19 b 903 217 753 -19 867 69 b 800 597 943 389 835 551 z m 338 531 b 282 546 321 540 301 546 b 165 457 231 546 185 511 b 149 411 158 439 153 424 b 118 310 133 369 125 349 b 183 171 106 239 131 186 b 226 164 197 165 213 164 b 331 225 271 164 308 186 b 390 390 350 263 381 350 b 338 531 403 440 392 503 z m 979 893 b 1125 786 1019 817 1081 764 b 1107 939 1171 810 1169 854 b 993 1006 1063 999 1033 1025 b 979 893 954 985 958 932 z m 1128 958 b 1261 863 1168 889 1207 836 b 1261 999 1307 886 1303 929 b 1142 1074 1222 1063 1182 1093 b 1128 958 1101 1053 1106 997 z "},"ぷ":{"ha":0,"x_min":0,"x_max":0,"o":"m 900 883 b 744 1026 876 925 818 979 b 639 1061 711 1049 672 1061 b 551 1018 600 1061 569 1046 b 578 861 515 961 524 910 b 694 778 614 831 656 804 l 714 765 b 804 738 742 747 774 738 b 882 767 835 738 863 747 b 900 883 915 799 922 842 z m 1199 442 b 1076 524 1168 492 1119 524 b 1031 511 1060 524 1044 519 b 992 368 978 479 965 431 b 1068 213 1011 322 1040 256 b 1182 150 1092 174 1135 150 b 1221 157 1196 150 1210 153 b 1282 249 1263 171 1285 204 b 1199 442 1279 307 1222 404 z m 800 597 b 665 675 771 636 718 675 b 607 656 643 675 624 668 b 561 583 579 633 564 610 b 600 481 557 551 569 518 b 614 464 604 475 608 469 b 690 313 642 431 685 382 b 669 242 693 283 686 260 b 600 213 650 221 619 213 b 539 222 582 213 561 217 b 458 232 513 226 486 232 b 372 135 404 232 372 174 b 556 -17 372 88 411 -4 b 597 -19 569 -18 585 -19 b 903 217 753 -19 867 69 b 800 597 943 389 835 551 z m 338 531 b 282 546 321 540 301 546 b 165 457 231 546 185 511 b 149 411 158 439 153 424 b 118 310 133 369 125 349 b 183 171 106 239 131 186 b 226 164 197 165 213 164 b 331 225 271 164 308 186 b 390 390 350 263 381 350 b 338 531 403 440 392 503 z m 1231 1076 b 997 961 1136 1143 1003 1054 b 1136 772 992 867 1042 789 b 1318 883 1236 756 1313 833 b 1231 1076 1324 933 1324 1010 z m 1144 897 b 1138 964 1110 904 1111 950 b 1197 938 1165 978 1192 971 b 1144 897 1204 904 1178 892 z "},"へ":{"ha":0,"x_min":0,"x_max":0,"o":"m 385 517 b 500 610 401 529 458 572 b 606 593 539 646 574 631 b 979 158 706 475 918 224 b 1175 104 1042 90 1129 69 b 1207 267 1221 140 1243 193 b 711 881 1172 342 772 817 b 488 940 651 944 563 974 b 213 715 413 908 278 794 b 203 513 150 640 157 558 b 385 517 249 467 322 469 z "},"べ":{"ha":0,"x_min":0,"x_max":0,"o":"m 385 517 b 500 610 401 529 458 572 b 606 593 539 646 574 631 b 979 158 706 475 918 224 b 1175 104 1042 90 1129 69 b 1207 267 1221 140 1243 193 b 711 881 1172 342 772 817 b 488 940 651 944 563 974 b 213 715 413 908 278 794 b 203 513 150 640 157 558 b 385 517 249 467 322 469 z m 918 872 b 1064 767 958 796 1019 744 b 1046 919 1110 789 1108 833 b 932 985 1001 979 972 1006 b 918 872 892 965 897 913 z m 1067 939 b 1199 843 1106 869 1146 815 b 1200 978 1246 867 1242 908 b 1081 1053 1161 1043 1121 1074 b 1067 939 1040 1033 1044 978 z "}}}
